<svg width="72" height="67" viewBox="0 0 72 67" fill="none" xmlns="http://www.w3.org/2000/svg">
<path d="M35.9955 46.5391C33.9752 46.5391 32.3157 48.2707 32.3157 50.291C32.3157 52.3113 33.9752 54.043 35.9955 54.043C37.9436 54.043 39.6753 52.3113 39.6032 50.4353C39.7475 48.1986 38.0158 46.5391 35.9955 46.5391Z" fill="#333844"/>
<path d="M70.2683 59.7429C72.5772 55.7023 72.5772 50.868 70.2683 46.8996L47.1071 6.49379C44.7982 2.45321 40.6855 0 35.9955 0C31.3056 0 27.265 2.45321 24.9561 6.49379L1.72276 46.8996C-0.586141 50.9402 -0.586141 55.7744 1.79492 59.815C4.10382 63.7834 8.21655 66.1645 12.8344 66.1645H59.1567C63.7745 66.2366 67.9594 63.7834 70.2683 59.7429ZM65.2176 56.7846C63.9188 59.0213 61.6821 60.3201 59.0846 60.3201H12.8344C10.309 60.3201 8.07225 59.0213 6.77349 56.8567C5.47473 54.62 5.47473 52.0225 6.77349 49.7857L30.0068 9.37992C31.2334 7.14317 33.5423 5.84441 36.0677 5.84441C38.5931 5.84441 40.902 7.14317 42.1286 9.37992L65.3619 49.7857C66.5163 51.9503 66.5164 54.5478 65.2176 56.7846Z" fill="#333844"/>
<path d="M35.1295 20.4192C33.3979 20.9242 32.2434 22.5116 32.2434 24.4598C32.3156 25.6142 32.3877 26.8408 32.4599 27.9953C32.6763 32.4688 32.9649 36.8701 33.1814 41.3436C33.2536 42.8588 34.408 43.9411 35.9232 43.9411C37.4384 43.9411 38.5929 42.7867 38.665 41.1993C38.665 40.2613 38.665 39.3955 38.7372 38.4575C38.8815 35.5713 39.098 32.6852 39.2423 29.8712C39.3144 27.9953 39.4587 26.1193 39.603 24.3154C39.603 23.6661 39.5309 23.0167 39.2423 22.4395C38.5929 20.8521 36.8612 19.9862 35.1295 20.4192Z" fill="#333844"/>
</svg>
