<?xml version="1.0" encoding="utf-8"?>
<!-- Generator: Adobe Illustrator 25.2.3, SVG Export Plug-In . SVG Version: 6.00 Build 0)  -->
<svg version="1.0" xmlns="http://www.w3.org/2000/svg" xmlns:xlink="http://www.w3.org/1999/xlink" x="0px" y="0px"
	 viewBox="0 0 580.13 59.88" style="enable-background:new 0 0 580.13 59.88;" xml:space="preserve">
<style type="text/css">
	.st0{clip-path:url(#SVGID_2_);}
	.st1{fill:#FFFFFF;}
</style>
<g id="Background">
</g>
<g id="Слой_1" style="opacity: 0.1;">
	<g>
		<defs>
			<rect id="SVGID_1_" width="580.13" height="60"/>
		</defs>
		<clipPath id="SVGID_2_">
			<use xlink:href="#SVGID_1_"  style="overflow:visible;"/>
		</clipPath>
		<g class="st0">
			<g>
				<path class="st1" d="M405.14-3.44c12.03,3.91,21.42-7.82,21.42-7.82c-18.82,28.16-45.49-0.33-22.94-7
					c-5.69,12.77,11.34,14.54,21.05,8.37C420.23-6.11,413.5-2.31,405.14-3.44z"/>
			</g>
			<g>
				<path class="st1" d="M115.07-3.44c12.03,3.91,21.42-7.82,21.42-7.82c-18.82,28.16-45.49-0.33-22.94-7
					c-5.69,12.77,11.34,14.54,21.05,8.37C130.16-6.11,123.44-2.31,115.07-3.44z"/>
			</g>
			<g>
				<path class="st1" d="M546.11,0.94c15.99-9.46,23.35-19.2,24.54-22.71c1.19-3.51,4.73-12.16,0.58-23.6
					c-7.27,5.58-8.94,7.44-11.74,13.31C556.77-26.33,556.84-11.56,546.11,0.94c8.51-6.99,11.33-9.13,19.49-26.95
					C567.04-13.1,550.18-3.49,546.11,0.94z"/>
				<path class="st1" d="M577.18-10.82c-10.99-9.26-24.32,10.25-24.12,11.76c0,0,8.19-11.39,17.28-9.24
					c-10.74,0.86-17.28,9.24-17.28,9.24c12.68-8.41,21.55-5.21,21.18-1.84C578.84-0.41,581.12-7.51,577.18-10.82z"/>
				<path class="st1" d="M530.08-19.36c10.61,5.91,6.63,15.65-7.32,20.06c0.04,0.01,0.08,0.02,0.12,0.03
					c4.03-0.81,16.68-4.13,17.36-13.9c-0.4,11.67-12.68,13.5-17.07,13.96c3.95,0.58,18.38-1.19,21.15-10.87
					C546.78-18.64,537.99-24.32,530.08-19.36z"/>
			</g>
			<g>
				<path class="st1" d="M256.04,0.94c15.99-9.46,23.35-19.2,24.54-22.71c1.19-3.51,4.73-12.16,0.58-23.6
					c-7.27,5.58-8.94,7.44-11.74,13.31C266.71-26.33,266.78-11.56,256.04,0.94c8.51-6.99,11.33-9.13,19.49-26.95
					C276.98-13.1,260.12-3.49,256.04,0.94z"/>
				<path class="st1" d="M287.12-10.82c-10.99-9.26-24.32,10.25-24.12,11.76c0,0,8.19-11.39,17.28-9.24
					c-10.74,0.86-17.28,9.24-17.28,9.24c12.68-8.41,21.55-5.21,21.18-1.84C288.77-0.41,291.05-7.51,287.12-10.82z"/>
				<path class="st1" d="M240.02-19.36c10.61,5.91,6.63,15.65-7.32,20.06c0.04,0.01,0.08,0.02,0.12,0.03
					c4.03-0.81,16.68-4.13,17.36-13.9c-0.4,11.67-12.68,13.5-17.07,13.96c3.95,0.58,18.38-1.19,21.15-10.87
					C256.71-18.64,247.92-24.32,240.02-19.36z"/>
			</g>
			<g>
				<path class="st1" d="M401.07,56.24c15.99,9.46,23.35,19.2,24.54,22.71c1.19,3.51,4.73,12.16,0.58,23.6
					c-7.27-5.58-8.94-7.44-11.74-13.31C411.74,83.52,411.81,68.75,401.07,56.24c8.51,6.99,11.33,9.13,19.49,26.95
					C422.01,70.29,405.15,60.67,401.07,56.24z"/>
				<path class="st1" d="M432.15,68.01c-10.99,9.26-24.32-10.25-24.12-11.76c0,0,8.19,11.39,17.28,9.24
					c-10.74-0.86-17.28-9.24-17.28-9.24c12.68,8.41,21.55,5.21,21.18,1.84C433.8,57.59,436.08,64.69,432.15,68.01z"/>
				<path class="st1" d="M385.05,76.54c10.61-5.91,6.63-15.65-7.32-20.06c0.04-0.01,0.08-0.02,0.12-0.03
					c4.03,0.81,16.68,4.13,17.36,13.9c-0.4-11.67-12.68-13.5-17.07-13.96c3.95-0.58,18.38,1.19,21.15,10.87
					C401.75,75.82,392.96,81.51,385.05,76.54z"/>
			</g>
			<g>
				<path class="st1" d="M111.01,56.24c15.99,9.46,23.35,19.2,24.54,22.71c1.19,3.51,4.73,12.16,0.58,23.6
					c-7.27-5.58-8.94-7.44-11.74-13.31C121.67,83.52,121.74,68.75,111.01,56.24c8.51,6.99,11.33,9.13,19.49,26.95
					C131.94,70.29,115.09,60.67,111.01,56.24z"/>
				<path class="st1" d="M142.08,68.01c-10.99,9.26-24.32-10.25-24.12-11.76c0,0,8.19,11.39,17.28,9.24
					c-10.74-0.86-17.28-9.24-17.28-9.24c12.68,8.41,21.55,5.21,21.18,1.84C143.74,57.59,146.02,64.69,142.08,68.01z"/>
				<path class="st1" d="M94.98,76.54c10.61-5.91,6.63-15.65-7.32-20.06c0.04-0.01,0.08-0.02,0.12-0.03
					c4.03,0.81,16.68,4.13,17.36,13.9c-0.4-11.67-12.68-13.5-17.07-13.96c3.95-0.58,18.38,1.19,21.15,10.87
					C111.68,75.82,102.89,81.51,94.98,76.54z"/>
			</g>
			<g>
				<path class="st1" d="M550.17,60.63c12.03-3.91,21.42,7.82,21.42,7.82c-18.82-28.16-45.49,0.33-22.94,7
					c-5.69-12.77,11.34-14.54,21.05-8.37C565.26,63.29,558.53,59.49,550.17,60.63z"/>
			</g>
			<g>
				<path class="st1" d="M260.11,60.63c12.03-3.91,21.42,7.82,21.42,7.82c-18.82-28.16-45.49,0.33-22.94,7
					c-5.69-12.77,11.34-14.54,21.05-8.37C275.2,63.29,268.47,59.49,260.11,60.63z"/>
			</g>
			<g>
				<path class="st1" d="M73.99,55.36c-2.1,0.56-3.36,2.72-2.79,4.83c0.19,0.7,0.56,1.31,1.04,1.78c-1.1,0.48-2.79,0.68-4.75,0.47
					c-4.67-0.51-10.88-3.4-14.32-10.65c0.74,4.16,7.4,11.22,14.87,12.7c3.1,0.61,6.33,0.27,9.34-1.65c1.36-1.33,1.96-2.74,1.44-4.69
					C78.26,56.05,76.09,54.8,73.99,55.36z"/>
				<path class="st1" d="M51.27,40.83l-2.07-1.3c0.16,5.44,2.87,9.75,6.16,12.04c0.82,0.89,4.79,1.72,7.23-0.05
					c1.41-1.02,2.16-2.61,2.18-4.23c0.01-1.1-0.31-2.21-1-3.16c-0.69-0.96-1.65-1.61-2.69-1.94c-1.54-0.49-3.29-0.27-4.7,0.76
					c-1.38,1-2.12,2.53-2.18,4.11C52.49,45.05,51.55,43.45,51.27,40.83z"/>
				<path class="st1" d="M46.49,50.2c-0.33-0.77,0.28-7.13,0.58-10.37c-1.82,3.97-2.46,11.55-2.45,11.55
					c-0.66,0.81-0.96,1.92-0.69,3.02c0.45,1.86,2.33,3.01,4.19,2.56c1.86-0.45,3.01-2.33,2.55-4.2
					C50.23,50.9,48.35,49.75,46.49,50.2z"/>
				<g>
					<path class="st1" d="M93.06,40.29c-0.52-2.29-2.8-3.72-5.08-3.2c-2.29,0.52-3.72,2.8-3.2,5.09c0.52,2.29,2.8,3.72,5.08,3.2
						C92.15,44.86,93.58,42.58,93.06,40.29z"/>
					<path class="st1" d="M98.11,40.48c-2.05,0.47-3.33,2.51-2.87,4.56c0.47,2.05,2.51,3.34,4.56,2.87
						c2.05-0.47,3.33-2.51,2.87-4.56C102.21,41.3,100.17,40.01,98.11,40.48z"/>
					<path class="st1" d="M105.62,43.29c0.38,1.66,2.03,2.69,3.68,2.32c1.66-0.38,2.69-2.03,2.32-3.68
						c-0.38-1.66-2.03-2.69-3.68-2.32C106.28,39.99,105.24,41.64,105.62,43.29z"/>
					<path class="st1" d="M114.85,34.04c-1.44,0.33-2.34,1.76-2.01,3.2c0.33,1.44,1.76,2.34,3.19,2.01c1.44-0.33,2.34-1.76,2.01-3.2
						C117.72,34.62,116.29,33.72,114.85,34.04z"/>
					<path class="st1" d="M120.57,29.31c-0.27-1.2-1.47-1.95-2.67-1.68c-1.2,0.27-1.95,1.47-1.68,2.67c0.27,1.2,1.47,1.95,2.67,1.68
						C120.1,31.71,120.85,30.51,120.57,29.31z"/>
					<path class="st1" d="M121.8,22.59c-0.24-1.04-1.27-1.7-2.32-1.46c-1.04,0.24-1.69,1.28-1.46,2.32c0.24,1.04,1.27,1.7,2.32,1.46
						C121.39,24.67,122.04,23.63,121.8,22.59z"/>
					<path class="st1" d="M120.85,16.58c-0.18-0.81-0.99-1.31-1.79-1.13c-0.81,0.18-1.31,0.99-1.13,1.79
						c0.18,0.81,0.99,1.31,1.79,1.13C120.53,18.19,121.03,17.39,120.85,16.58z"/>
					<path class="st1" d="M116.7,9.1c-0.12-0.53-0.65-0.86-1.17-0.74C115,8.48,114.67,9,114.79,9.53c0.12,0.53,0.65,0.86,1.18,0.74
						C116.49,10.15,116.83,9.62,116.7,9.1z"/>
					<path class="st1" d="M119.1,12.55c-0.12-0.53-0.65-0.86-1.17-0.74c-0.53,0.12-0.86,0.65-0.74,1.18
						c0.12,0.53,0.65,0.86,1.18,0.74C118.89,13.6,119.22,13.08,119.1,12.55z"/>
				</g>
				<path class="st1" d="M8.89,52.14c0.4-0.13,0.81-0.28,1.22-0.46l0.03-0.02C10.15,51.66,9.64,51.8,8.89,52.14z"/>
				<path class="st1" d="M8.13,53.33c-0.03-0.02-0.06-0.04-0.09-0.06l2.07-1.59c-0.42,0.17-0.83,0.33-1.22,0.46
					c-0.42,0.19-0.91,0.44-1.43,0.76c-0.28-0.15-0.57-0.27-0.87-0.37c0.61,0.05,1.42-0.11,2.3-0.39c0.75-0.34,1.25-0.48,1.25-0.48
					l-0.03,0.02c2.71-1.13,5.61-3.1,5.76-4.09c-0.09-0.01-0.18-0.01-0.28-0.02C9.36,50.45,4.22,51.33,0,50.9v1.89
					c0.4,0.05,0.8,0.08,1.22,0.1C0.8,53.07,0.4,53.28,0,53.53v5.45c1.96-2.93,4.5-4.48,7.03-5.14c0,0-4.63,3.71-7.03,6.05v4.45
					C4.27,62.17,9.6,58.48,8.13,53.33z"/>
				<path class="st1" d="M99.69,9.93c-3.99,4.44,0.73,8.92,3.68,7.23c0.17-4.97,8.68-5.73,9.46,2.17
					c1.42,14.23-13.86,17.13-18.05,14.65c4.97-0.28,5.33-5.94,3.41-7.76c-2.36,2.15-10.6,5.99-16.3-0.77
					c2.09,13.33,33.31,17.55,33.52-6.23C115.51,8.94,104.61,4.47,99.69,9.93z"/>
				<path class="st1" d="M54.21,1.98c-8.91,6.55-23.55,6.97-24.07,0.25c3.46-1.03,2.67-6.12,0.58-7.34
					c-3.05-1.78-6.6-0.56-7.74,1.29C15.16,8.94,39.36,19.94,54.21,1.98z"/>
				<path class="st1" d="M6.96,48.52c1.43,0.7,2.59,0.9,2.59,0.9l-2.08-1.29c0.02-0.02,0.05-0.04,0.08-0.07
					c0.52-5.8-3.66-7.62-7.54-8.84v3.97c2.51,1.92,6.48,4.5,6.48,4.5C4.27,47.35,1.97,46.3,0,44.14v4.97
					C2.14,50.27,4.62,49.87,6.96,48.52z"/>
				<g>
					<path class="st1" d="M23.98,22.6c0.11,0.07,0.25,0.07,0.36,0c0.04-0.03,0.08-0.06,0.11-0.11c0.04-0.07,0.06-0.14,0.05-0.22
						c-0.03-0.29-0.07-1.22,0.2-1.64c0.05-0.09,0.11-0.13,0.16-0.15c0.38,0.22,0.31,1.32,0.21,1.82c-0.03,0.13,0.02,0.26,0.13,0.34
						c0.1,0.08,0.24,0.09,0.36,0.03c0.65-0.34,1.28-1.25,1.61-1.76c0.76-1.21,2.01-3.82,1.25-5.06c-0.17-0.28-0.5-0.59-1.16-0.58
						c-0.35-0.47-1.09-1.25-2.13-1.29c-1.04-0.05-1.84,0.67-2.23,1.11c-0.7-0.06-1.06,0.26-1.25,0.55
						C20.68,17.18,22.6,21.7,23.98,22.6z"/>
					<path class="st1" d="M31.9,18.06c-1.45-0.16-3.28,2.08-4.04,3.28c-0.32,0.51-0.87,1.47-0.91,2.2
						c-0.01,0.13,0.06,0.25,0.18,0.32c0.12,0.06,0.26,0.05,0.36-0.03c0.46-0.34,1.39-0.82,1.73-0.59c0,0.05-0.02,0.12-0.07,0.21
						c-0.27,0.42-1.1,0.78-1.4,0.88c-0.07,0.03-0.14,0.08-0.18,0.14c-0.03,0.04-0.04,0.09-0.05,0.14c-0.02,0.13,0.05,0.26,0.16,0.33
						c1.4,0.87,6.31,0.68,7.28-0.85c0.19-0.3,0.32-0.76-0.03-1.37c0.23-0.54,0.54-1.56,0.05-2.49c-0.48-0.92-1.5-1.26-2.07-1.38
						C32.64,18.27,32.22,18.1,31.9,18.06z"/>
					<path class="st1" d="M26.4,26.26c0.34-0.97-0.16-2.03-1.13-2.37c-0.97-0.34-2.03,0.16-2.37,1.13
						c-0.34,0.97,0.16,2.03,1.13,2.37C24.99,27.74,26.05,27.23,26.4,26.26z"/>
					<path class="st1" d="M27.48,26.71c-0.04,0.06-0.05,0.12-0.05,0.19c0.01,0.13,0.08,0.25,0.2,0.3c0.52,0.23,1.4,0.79,1.37,1.21
						c-0.37,0.22-1.29-0.4-1.68-0.73c-0.1-0.09-0.24-0.11-0.36-0.05c-0.06,0.03-0.12,0.07-0.15,0.13c-0.03,0.05-0.05,0.11-0.05,0.17
						c-0.05,1.6,2.28,5.29,3.99,5.82c0.62,0.19,1.16-0.01,1.51-0.56c0.02-0.03,0.03-0.05,0.05-0.08c0.58-0.07,1.62-0.32,2.18-1.2
						c0.56-0.88,0.34-1.93,0.16-2.48c0.02-0.03,0.04-0.05,0.05-0.08c0.35-0.56,0.3-1.13-0.14-1.61c-1.2-1.32-5.53-1.87-6.96-1.14
						C27.56,26.62,27.51,26.66,27.48,26.71z"/>
					<path class="st1" d="M24.15,37.31c1.04,0.05,1.84-0.67,2.23-1.11c0.7,0.07,1.07-0.26,1.25-0.55c0.98-1.53-0.94-6.06-2.33-6.96
						c-0.11-0.07-0.25-0.07-0.36,0c-0.04,0.03-0.08,0.06-0.11,0.11c-0.04,0.07-0.06,0.14-0.05,0.22c0.04,0.31,0.07,1.22-0.2,1.64
						c-0.05,0.08-0.11,0.13-0.16,0.15c-0.38-0.22-0.31-1.32-0.21-1.82c0.03-0.13-0.02-0.26-0.13-0.34c-0.1-0.08-0.24-0.09-0.36-0.03
						c-0.65,0.35-1.28,1.25-1.61,1.76c-0.76,1.21-2.01,3.82-1.25,5.05c0.17,0.28,0.5,0.59,1.16,0.58
						C22.38,36.48,23.11,37.26,24.15,37.31z"/>
					<path class="st1" d="M17.39,33.23c1.44,0.16,3.28-2.08,4.04-3.28c0.32-0.51,0.87-1.47,0.91-2.2c0.01-0.13-0.06-0.25-0.18-0.32
						c-0.12-0.06-0.26-0.05-0.36,0.03c-0.46,0.34-1.39,0.82-1.73,0.59c0-0.05,0.02-0.12,0.07-0.21c0.27-0.42,1.1-0.78,1.4-0.88
						c0.07-0.03,0.14-0.08,0.18-0.14c0.03-0.04,0.04-0.09,0.05-0.14c0.02-0.13-0.05-0.26-0.16-0.33c-0.12-0.07-0.27-0.14-0.43-0.2
						c-1.78-0.63-5.96-0.35-6.85,1.05c-0.19,0.3-0.32,0.76,0.03,1.37c-0.23,0.54-0.54,1.56-0.05,2.49c0.48,0.92,1.5,1.26,2.07,1.38
						C16.65,33.02,17.07,33.19,17.39,33.23z"/>
					<path class="st1" d="M21.81,24.58c0.04-0.06,0.06-0.12,0.05-0.19c-0.01-0.13-0.08-0.25-0.2-0.3c-0.52-0.23-1.4-0.79-1.37-1.21
						c0.38-0.22,1.29,0.4,1.68,0.73c0.1,0.09,0.24,0.11,0.36,0.05c0.06-0.03,0.12-0.07,0.15-0.13c0.03-0.05,0.05-0.11,0.05-0.17
						c0.05-1.6-2.28-5.29-3.99-5.82c-0.63-0.19-1.16,0-1.51,0.56c0,0-0.03,0.05-0.05,0.08c-0.58,0.07-1.62,0.32-2.18,1.2l0,0
						c-0.56,0.88-0.34,1.93-0.16,2.48c-0.02,0.03-0.04,0.05-0.05,0.08c-0.35,0.55-0.3,1.13,0.14,1.61c1.2,1.32,5.53,1.87,6.96,1.14
						C21.74,24.67,21.78,24.63,21.81,24.58z"/>
				</g>
				<g>
					<path class="st1" d="M1.51,18.3c0.05-0.02,0.09-0.05,0.12-0.08c0.05-0.06,0.08-0.12,0.09-0.2c0.02-0.28,0.14-1.18,0.47-1.53
						c0.06-0.07,0.12-0.1,0.17-0.12c0.32,0.27,0.07,1.31-0.11,1.77c-0.05,0.12-0.02,0.25,0.07,0.35c0.09,0.09,0.22,0.12,0.34,0.09
						c0.67-0.22,1.43-0.98,1.83-1.41c0.93-1.02,2.56-3.3,2.04-4.61c-0.11-0.29-0.38-0.64-1.01-0.75c-0.25-0.5-0.83-1.37-1.81-1.59
						C2.73,10,1.85,10.54,1.41,10.89c-0.65-0.18-1.06,0.07-1.29,0.32c-0.04,0.05-0.08,0.1-0.12,0.16v4.47
						c0.3,1.06,0.73,1.98,1.17,2.4C1.26,18.32,1.4,18.35,1.51,18.3z"/>
					<path class="st1" d="M9.48,15.24c-1.35-0.4-3.47,1.43-4.4,2.45c-0.39,0.43-1.08,1.26-1.23,1.95c-0.03,0.12,0.02,0.25,0.11,0.33
						c0.1,0.08,0.24,0.09,0.35,0.04c0.49-0.24,1.46-0.55,1.75-0.27c-0.01,0.05-0.04,0.11-0.1,0.18c-0.33,0.35-1.18,0.56-1.48,0.6
						c-0.07,0.01-0.14,0.05-0.19,0.1c-0.03,0.04-0.06,0.08-0.07,0.13c-0.04,0.12,0,0.25,0.1,0.34c1.19,1.07,5.9,1.71,7.09,0.41
						c0.23-0.25,0.44-0.67,0.2-1.31c0.31-0.47,0.77-1.4,0.47-2.36c-0.3-0.96-1.22-1.45-1.74-1.66C10.15,15.56,9.77,15.33,9.48,15.24
						z"/>
					<path class="st1" d="M2.85,22.13c0.49-0.86,0.18-1.96-0.68-2.45C1.45,19.27,0.56,19.42,0,20v2.5c0.12,0.12,0.25,0.23,0.4,0.31
						C1.27,23.3,2.37,23,2.85,22.13z"/>
					<path class="st1" d="M3.81,22.74c-0.04,0.05-0.07,0.11-0.08,0.17c-0.02,0.13,0.04,0.25,0.14,0.32c0.46,0.3,1.21,0.99,1.11,1.38
						c-0.39,0.14-1.17-0.59-1.47-0.98c-0.08-0.1-0.21-0.14-0.33-0.11C3.1,23.54,3.05,23.58,3,23.62c-0.04,0.04-0.07,0.1-0.08,0.15
						c-0.32,1.52,1.29,5.43,2.82,6.22c0.56,0.29,1.11,0.19,1.54-0.28c0.02-0.02,0.04-0.05,0.06-0.07c0.56,0.03,1.6-0.03,2.28-0.78
						c0.68-0.75,0.65-1.78,0.57-2.34c0.02-0.02,0.04-0.04,0.06-0.07c0.43-0.47,0.48-1.02,0.14-1.56c-0.92-1.46-4.96-2.71-6.44-2.25
						C3.9,22.67,3.85,22.7,3.81,22.74z"/>
					<path class="st1" d="M2.46,31.28c1.19-1.3,0.12-5.93-1.05-7.02c-0.09-0.09-0.23-0.11-0.34-0.06c-0.05,0.02-0.09,0.05-0.12,0.08
						c-0.05,0.06-0.08,0.12-0.09,0.2c-0.02,0.3-0.14,1.18-0.47,1.53c-0.07,0.07-0.13,0.11-0.18,0.12c-0.32-0.27-0.07-1.31,0.11-1.77
						c0.05-0.12,0.02-0.25-0.07-0.35c-0.07-0.07-0.16-0.1-0.26-0.1v8.31c0.5-0.15,0.91-0.42,1.17-0.63
						C1.82,31.78,2.23,31.53,2.46,31.28z"/>
				</g>
				<g>
					<path class="st1" d="M11.57,0.54c0.28-0.78-0.13-1.63-0.91-1.91C9.88-1.64,9.02-1.23,8.75-0.46C8.47,0.32,8.88,1.18,9.66,1.46
						C10.44,1.73,11.29,1.32,11.57,0.54z"/>
					<path class="st1" d="M12.44,0.91C12.41,0.95,12.4,1,12.4,1.06c0,0.11,0.07,0.2,0.16,0.24c0.42,0.18,1.13,0.64,1.11,0.97
						c-0.3,0.18-1.04-0.32-1.35-0.59c-0.08-0.07-0.19-0.09-0.29-0.04c-0.05,0.02-0.09,0.06-0.12,0.1c-0.02,0.04-0.04,0.09-0.04,0.14
						c-0.04,1.29,1.84,4.26,3.21,4.69c0.5,0.16,0.94,0,1.22-0.45c0.01-0.02,0.03-0.04,0.04-0.07C16.8,6,17.64,5.8,18.09,5.09
						c0.45-0.71,0.27-1.55,0.13-2c0.02-0.02,0.03-0.04,0.04-0.06c0.28-0.45,0.25-0.91-0.11-1.3c-0.97-1.06-4.45-1.5-5.61-0.92
						C12.5,0.83,12.47,0.86,12.44,0.91z"/>
					<path class="st1" d="M9.76,9.44c0.84,0.04,1.48-0.54,1.79-0.89c0.56,0.05,0.86-0.21,1.01-0.45c0.79-1.24-0.76-4.88-1.88-5.61
						c-0.09-0.06-0.2-0.06-0.29,0c-0.04,0.02-0.07,0.05-0.09,0.08c-0.03,0.05-0.05,0.11-0.04,0.18c0.03,0.25,0.05,0.98-0.16,1.32
						c-0.04,0.07-0.09,0.1-0.13,0.12c-0.3-0.17-0.25-1.06-0.17-1.46c0.02-0.1-0.02-0.21-0.11-0.27C9.63,2.4,9.51,2.39,9.42,2.44
						C8.9,2.72,8.38,3.45,8.12,3.86C7.51,4.83,6.5,6.94,7.11,7.93C7.25,8.16,7.52,8.41,8.05,8.4C8.33,8.78,8.92,9.41,9.76,9.44z"/>
					<path class="st1" d="M4.31,6.16c1.16,0.13,2.64-1.67,3.26-2.65C7.83,3.1,8.27,2.32,8.3,1.73c0-0.1-0.05-0.2-0.14-0.26
						C8.07,1.43,7.95,1.44,7.87,1.5C7.5,1.77,6.75,2.16,6.47,1.97c0-0.04,0.01-0.1,0.06-0.17C6.74,1.47,7.41,1.18,7.66,1.1
						C7.72,1.07,7.77,1.03,7.8,0.98c0.02-0.03,0.04-0.07,0.04-0.11C7.85,0.76,7.8,0.66,7.71,0.6C7.61,0.54,7.5,0.49,7.36,0.44
						c-1.43-0.51-4.8-0.28-5.52,0.85c-0.15,0.24-0.26,0.62,0.03,1.1c-0.19,0.43-0.43,1.26-0.04,2c0.39,0.74,1.21,1.01,1.67,1.11
						C3.71,5.99,4.06,6.13,4.31,6.16z"/>
				</g>
				<path class="st1" d="M84.24-16.78C68.25-7.32,60.89,2.42,59.7,5.93s-4.73,12.16-0.58,23.6c7.27-5.58,8.94-7.44,11.74-13.31
					C73.57,10.49,73.51-4.28,84.24-16.78c-8.51,6.99-11.33,9.13-19.49,26.95C63.3-2.74,80.16-12.35,84.24-16.78z"/>
				<path class="st1" d="M46.84,66.42c-13.54-7.91-2.33-32.61-2.33-32.61l-1.18-3.29c0.01-0.45-0.04-0.9-0.19-1.33
					c-0.37,6.1-10,7.37-14.21,20.24C24.72,62.31,33.57,72.4,46.84,66.42z M34.94,43.48c1.56-2.69,4.64-5.69,6.6-8.57
					c-3.27,6.35-9.73,17.49-6.08,26.68C30.18,57.81,32.29,48.04,34.94,43.48z"/>
				<path class="st1" d="M70.91,44.6c8.13-2.14,10.35-8.63,10.17-13.25c-0.14-3.72-1.53-8.96-5.67-15.75
					c1.26,5.21,3.12,15.24,0.1,19.58c0.56-2.1-1.83-16.45-0.93-20.91c-0.1-0.16-0.21-0.32-0.31-0.49
					C65.32,28.58,71.26,38.06,70.91,44.6z"/>
				<path class="st1" d="M22.48,59.11c2.94-2.05,4.29-6.51,5.56-13.52C16.06,51.35,12.36,56.61,8.66,60.09
					C14.37,63.24,18.7,61.75,22.48,59.11z M27.9,46.36c0,0-3.7,10.11-11.47,11.92C21.47,54.23,26.2,47.93,27.9,46.36z"/>
				<g>
					<path class="st1" d="M31.02,41l-0.73,0.58C30.53,41.38,30.78,41.19,31.02,41z"/>
					<path class="st1" d="M17.24,46.78c-0.09,0.04-0.17,0.08-0.25,0.12c3.27,0.01,6.4-0.9,9.3-2.59c1.4-0.81,2.72-1.75,4-2.74
						c0,0-10.22,6.86-15.45,0.56C22.38,46.06,31.02,41,31.02,41c-5.16,1.45-11.71,0.09-19.64-6.84C8.85,41.07,13.66,47,17.24,46.78z
						"/>
				</g>
				<path class="st1" d="M85.02,16.75c-6.31-2.89-7.69-11-3.59-22.73c-4.52,6.47-5.1,15.37-4.35,18.8
					c0.75,3.44,6.84,13.12,17.3,5.43c-7.66-2.53-14.4-13.32-12.95-24.23C81.44-5.98,76.86,11.34,85.02,16.75z"/>
				<path class="st1" d="M80.18,70.02c-12.03,3.91-21.42-7.82-21.42-7.82c18.82,28.16,45.49-0.33,22.94-7
					c5.69,12.77-11.34,14.54-21.05,8.37C65.09,67.35,71.81,71.15,80.18,70.02z"/>
				<path class="st1" d="M100.27,3.52c-10.61-5.91-6.63-15.65,7.32-20.06c-0.04-0.01-0.08-0.02-0.12-0.03
					c-4.03,0.81-16.68,4.13-17.36,13.9c0.4-11.67,12.68-13.5,17.07-13.96c-3.95-0.58-18.38,1.19-21.15,10.87
					C83.57,2.8,92.36,8.48,100.27,3.52z"/>
				<path class="st1" d="M45.1,30.53c2.84,5.97,11.27,12.41,18.2,3.4C51.15,33.81,45.54,13.71,61.5,0.25
					c0,0-18.77,13.27-11.75,29.23C40.17,11.26,61.5,0.25,61.5,0.25C48.06,5.88,40.15,20.13,45.1,30.53z"/>
			</g>
			<g>
				<path class="st1" d="M364.06,55.36c-2.1,0.56-3.36,2.72-2.79,4.83c0.19,0.7,0.56,1.31,1.04,1.78c-1.1,0.48-2.79,0.68-4.75,0.47
					c-4.67-0.51-10.88-3.4-14.32-10.65c0.74,4.16,7.4,11.22,14.87,12.7c3.1,0.61,6.33,0.27,9.34-1.65c1.36-1.33,1.96-2.74,1.44-4.69
					C368.32,56.05,366.16,54.8,364.06,55.36z"/>
				<path class="st1" d="M341.33,40.83l-2.07-1.3c0.16,5.44,2.87,9.75,6.16,12.04c0.82,0.89,4.79,1.72,7.23-0.05
					c1.41-1.02,2.16-2.61,2.18-4.23c0.01-1.1-0.31-2.21-1-3.16c-0.69-0.96-1.65-1.61-2.69-1.94c-1.54-0.49-3.29-0.27-4.7,0.76
					c-1.38,1-2.12,2.53-2.18,4.11C342.56,45.05,341.62,43.45,341.33,40.83z"/>
				<path class="st1" d="M336.55,50.2c-0.33-0.77,0.28-7.13,0.58-10.37c-1.82,3.97-2.46,11.55-2.45,11.55
					c-0.66,0.81-0.96,1.92-0.69,3.02c0.45,1.86,2.33,3.01,4.19,2.56c1.86-0.45,3.01-2.33,2.55-4.2
					C340.29,50.9,338.41,49.75,336.55,50.2z"/>
				<g>
					<path class="st1" d="M383.12,40.29c-0.52-2.29-2.8-3.72-5.08-3.2c-2.29,0.52-3.72,2.8-3.2,5.09c0.52,2.29,2.8,3.72,5.08,3.2
						C382.21,44.86,383.64,42.58,383.12,40.29z"/>
					<path class="st1" d="M388.18,40.48c-2.05,0.47-3.33,2.51-2.87,4.56c0.47,2.05,2.51,3.34,4.56,2.87
						c2.05-0.47,3.33-2.51,2.87-4.56C392.27,41.3,390.23,40.01,388.18,40.48z"/>
					<path class="st1" d="M395.68,43.29c0.38,1.66,2.03,2.69,3.68,2.32c1.66-0.38,2.69-2.03,2.32-3.68
						c-0.38-1.66-2.02-2.69-3.68-2.32C396.34,39.99,395.31,41.64,395.68,43.29z"/>
					<path class="st1" d="M404.92,34.04c-1.44,0.33-2.34,1.76-2.01,3.2c0.33,1.44,1.76,2.34,3.19,2.01c1.44-0.33,2.34-1.76,2.01-3.2
						C407.78,34.62,406.35,33.72,404.92,34.04z"/>
					<path class="st1" d="M410.64,29.31c-0.27-1.2-1.47-1.95-2.67-1.68c-1.2,0.27-1.95,1.47-1.68,2.67c0.27,1.2,1.47,1.95,2.67,1.68
						C410.16,31.71,410.91,30.51,410.64,29.31z"/>
					<path class="st1" d="M411.87,22.59c-0.24-1.04-1.27-1.7-2.32-1.46c-1.04,0.24-1.69,1.28-1.46,2.32
						c0.24,1.04,1.27,1.7,2.32,1.46C411.45,24.67,412.11,23.63,411.87,22.59z"/>
					<path class="st1" d="M410.91,16.58c-0.18-0.81-0.99-1.31-1.79-1.13c-0.81,0.18-1.31,0.99-1.13,1.79
						c0.18,0.81,0.99,1.31,1.79,1.13C410.59,18.19,411.1,17.39,410.91,16.58z"/>
					<path class="st1" d="M406.77,9.1c-0.12-0.53-0.65-0.86-1.17-0.74c-0.53,0.12-0.86,0.65-0.74,1.17
						c0.12,0.53,0.65,0.86,1.18,0.74C406.56,10.15,406.89,9.62,406.77,9.1z"/>
					<path class="st1" d="M409.16,12.55c-0.12-0.53-0.65-0.86-1.17-0.74c-0.53,0.12-0.86,0.65-0.74,1.18
						c0.12,0.53,0.65,0.86,1.18,0.74C408.95,13.6,409.28,13.08,409.16,12.55z"/>
				</g>
				<path class="st1" d="M273.31,35.83c-0.2,1.48,1.75,5.82,4.03,8.8c-2.93-0.89-3.56-1.7-5.08-4.78
					c-6.74,11.68,5.88,16.5,9.49,11.28c1.56,0.33,2.73,0.24,2.73,0.24l-2.33-0.75c0.02-0.03,0.04-0.05,0.06-0.08
					c-0.03-0.24-0.07-0.46-0.11-0.68c2.54,1.78,5.65,2.85,9.19,3.04c-3.79,1.63-7.07,6.12-5.81,13.53
					c2.06-1.01,14.91-5.43,12.73-13.09c-0.03-0.02-0.06-0.04-0.09-0.06l2.1-1.61c0,0-1.22,0.34-2.69,1.25
					c-0.28-0.15-0.57-0.27-0.87-0.37c2.69,0.2,9.06-3.46,9.28-4.94c-0.09-0.01-0.18-0.01-0.28-0.02
					c-20.36,9.41-29.15-2.59-31.66-11.46c6.96-2.38,2.34-12,3.26-16.58C272.14,22.23,265.52,33.24,273.31,35.83z M297.1,53.84
					c0,0-7.44,5.97-8.36,7.53C290.78,56.85,293.95,54.65,297.1,53.84z M281.02,50.95c-0.28,0.68-7.48,0.51-9.02-5
					C272.99,49.64,281.02,50.95,281.02,50.95z M274.21,23.52c-1.8,3.86-1.61,8.79-0.82,11.63C271.52,31.1,271.58,27.4,274.21,23.52z
					"/>
				<path class="st1" d="M389.76,9.93c-3.99,4.44,0.73,8.92,3.68,7.23c0.17-4.97,8.68-5.73,9.46,2.17
					c1.42,14.23-13.86,17.13-18.05,14.65c4.97-0.28,5.33-5.94,3.41-7.76c-2.36,2.15-10.6,5.99-16.3-0.77
					c2.09,13.33,33.31,17.55,33.52-6.23C405.58,8.94,394.67,4.47,389.76,9.93z"/>
				<path class="st1" d="M344.27,1.98c-8.91,6.55-23.55,6.97-24.07,0.25c3.46-1.03,2.67-6.12,0.58-7.34
					c-3.05-1.78-6.6-0.56-7.74,1.29C305.22,8.94,329.42,19.94,344.27,1.98z"/>
				<path class="st1" d="M297.02,48.52c1.43,0.7,2.59,0.9,2.59,0.9l-2.08-1.29c0.02-0.02,0.05-0.04,0.08-0.07
					c0.81-9.04-9.81-8.43-12.91-10.89C286.05,49.87,291.88,51.49,297.02,48.52z M296.55,47.7c-2.97-0.46-6.09-2.2-8.38-6.17
					C289.15,42.88,296.55,47.7,296.55,47.7z"/>
				<path class="st1" d="M270.8,19.45c-0.23,0.81,0.36,4.71,0.36,4.71l0.5-4.68c0.02,0.02,0.03,0.05,0.05,0.07
					c8.77,0.83,5.16-10.81,9.5-13.19C269.1,7.24,266,17.47,270.8,19.45z M271.59,18.58c-0.15-3.72,3.34-8.42,5.95-9.52
					C276.32,9.45,272.02,15.89,271.59,18.58z"/>
				<g>
					<path class="st1" d="M314.05,22.6c0.11,0.07,0.25,0.07,0.36,0c0.04-0.03,0.08-0.06,0.11-0.11c0.04-0.07,0.06-0.14,0.05-0.22
						c-0.03-0.29-0.07-1.22,0.2-1.64c0.05-0.09,0.11-0.13,0.16-0.15c0.38,0.22,0.31,1.32,0.21,1.82c-0.03,0.13,0.02,0.26,0.13,0.34
						c0.1,0.08,0.24,0.09,0.36,0.03c0.65-0.34,1.28-1.25,1.61-1.76c0.76-1.21,2.01-3.82,1.25-5.06c-0.17-0.28-0.5-0.59-1.16-0.58
						c-0.35-0.47-1.09-1.25-2.13-1.29c-1.04-0.05-1.84,0.67-2.23,1.11c-0.7-0.06-1.06,0.26-1.25,0.55
						C310.75,17.18,312.66,21.7,314.05,22.6z"/>
					<path class="st1" d="M321.96,18.06c-1.45-0.16-3.28,2.08-4.04,3.28c-0.32,0.51-0.87,1.47-0.91,2.2
						c-0.01,0.13,0.06,0.25,0.18,0.32c0.12,0.06,0.26,0.05,0.36-0.03c0.46-0.34,1.39-0.82,1.73-0.59c0,0.05-0.02,0.12-0.07,0.21
						c-0.27,0.42-1.1,0.78-1.4,0.88c-0.07,0.03-0.14,0.08-0.18,0.14c-0.03,0.04-0.04,0.09-0.05,0.14c-0.02,0.13,0.05,0.26,0.16,0.33
						c1.4,0.87,6.31,0.68,7.28-0.85c0.19-0.3,0.32-0.76-0.03-1.37c0.23-0.54,0.54-1.56,0.05-2.49c-0.48-0.92-1.5-1.26-2.07-1.38
						C322.71,18.27,322.28,18.1,321.96,18.06z"/>
					<path class="st1" d="M316.46,26.26c0.34-0.97-0.16-2.03-1.13-2.37c-0.97-0.34-2.03,0.16-2.37,1.13
						c-0.34,0.97,0.16,2.03,1.13,2.37C315.06,27.74,316.12,27.23,316.46,26.26z"/>
					<path class="st1" d="M317.54,26.71c-0.04,0.06-0.05,0.12-0.05,0.19c0.01,0.13,0.08,0.25,0.2,0.3c0.52,0.23,1.4,0.79,1.37,1.21
						c-0.37,0.22-1.29-0.4-1.68-0.73c-0.1-0.09-0.24-0.11-0.36-0.05c-0.06,0.03-0.12,0.07-0.15,0.13c-0.03,0.05-0.05,0.11-0.05,0.17
						c-0.05,1.6,2.28,5.29,3.99,5.82c0.62,0.19,1.16-0.01,1.51-0.56c0.02-0.03,0.03-0.05,0.05-0.08c0.58-0.07,1.62-0.32,2.18-1.2
						c0.56-0.88,0.34-1.93,0.16-2.48c0.02-0.03,0.04-0.05,0.05-0.08c0.35-0.56,0.3-1.13-0.14-1.61c-1.2-1.32-5.53-1.87-6.96-1.14
						C317.62,26.62,317.58,26.66,317.54,26.71z"/>
					<path class="st1" d="M314.22,37.31c1.04,0.05,1.84-0.67,2.23-1.11c0.7,0.07,1.07-0.26,1.25-0.55c0.98-1.53-0.94-6.06-2.33-6.96
						c-0.11-0.07-0.25-0.07-0.36,0c-0.04,0.03-0.08,0.06-0.11,0.11c-0.04,0.07-0.06,0.14-0.05,0.22c0.04,0.31,0.07,1.22-0.2,1.64
						c-0.05,0.08-0.11,0.13-0.16,0.15c-0.38-0.22-0.31-1.32-0.21-1.82c0.03-0.13-0.02-0.26-0.13-0.34c-0.1-0.08-0.24-0.09-0.36-0.03
						c-0.65,0.35-1.28,1.25-1.61,1.76c-0.76,1.21-2.01,3.82-1.25,5.05c0.17,0.28,0.5,0.59,1.16,0.58
						C312.44,36.48,313.18,37.26,314.22,37.31z"/>
					<path class="st1" d="M307.46,33.23c1.44,0.16,3.28-2.08,4.04-3.28c0.32-0.51,0.87-1.47,0.91-2.2c0.01-0.13-0.06-0.25-0.18-0.32
						c-0.12-0.06-0.26-0.05-0.36,0.03c-0.46,0.34-1.39,0.82-1.73,0.59c0-0.05,0.02-0.12,0.07-0.21c0.27-0.42,1.1-0.78,1.4-0.88
						c0.07-0.03,0.14-0.08,0.18-0.14c0.03-0.04,0.04-0.09,0.05-0.14c0.02-0.13-0.05-0.26-0.16-0.33c-0.12-0.07-0.27-0.14-0.43-0.2
						c-1.78-0.63-5.96-0.35-6.85,1.05c-0.19,0.3-0.32,0.76,0.03,1.37c-0.23,0.54-0.54,1.56-0.05,2.49c0.48,0.92,1.5,1.26,2.07,1.38
						C306.71,33.02,307.14,33.19,307.46,33.23z"/>
					<path class="st1" d="M311.88,24.58c0.04-0.06,0.06-0.12,0.05-0.19c-0.01-0.13-0.08-0.25-0.2-0.3c-0.52-0.23-1.4-0.79-1.37-1.21
						c0.38-0.22,1.29,0.4,1.68,0.73c0.1,0.09,0.24,0.11,0.36,0.05c0.06-0.03,0.12-0.07,0.15-0.13c0.03-0.05,0.05-0.11,0.05-0.17
						c0.05-1.6-2.28-5.29-3.99-5.82c-0.63-0.19-1.16,0-1.51,0.56c0,0-0.03,0.05-0.05,0.08c-0.58,0.07-1.62,0.32-2.18,1.2l0,0
						c-0.56,0.88-0.34,1.93-0.16,2.48c-0.02,0.03-0.04,0.05-0.05,0.08c-0.35,0.55-0.3,1.13,0.14,1.61c1.2,1.32,5.53,1.87,6.96,1.14
						C311.8,24.67,311.84,24.63,311.88,24.58z"/>
				</g>
				<g>
					<path class="st1" d="M291.23,18.23c0.09,0.09,0.23,0.11,0.34,0.06c0.05-0.02,0.09-0.05,0.12-0.08c0.05-0.06,0.08-0.12,0.09-0.2
						c0.02-0.28,0.14-1.18,0.47-1.53c0.06-0.07,0.12-0.1,0.17-0.12c0.32,0.27,0.07,1.31-0.11,1.77c-0.05,0.12-0.02,0.25,0.07,0.35
						c0.09,0.09,0.22,0.12,0.34,0.09c0.67-0.22,1.43-0.98,1.83-1.41c0.93-1.02,2.56-3.3,2.04-4.61c-0.11-0.29-0.38-0.64-1.01-0.75
						c-0.25-0.5-0.83-1.37-1.81-1.59c-0.98-0.22-1.87,0.33-2.31,0.68c-0.65-0.18-1.06,0.07-1.29,0.32
						C289,12.51,290.06,17.15,291.23,18.23z"/>
					<path class="st1" d="M299.54,15.24c-1.35-0.4-3.47,1.43-4.4,2.45c-0.39,0.43-1.08,1.26-1.24,1.95
						c-0.03,0.12,0.02,0.25,0.11,0.33c0.1,0.08,0.24,0.09,0.35,0.04c0.49-0.24,1.46-0.55,1.75-0.27c-0.01,0.05-0.04,0.11-0.1,0.18
						c-0.33,0.35-1.18,0.56-1.48,0.6c-0.07,0.01-0.14,0.05-0.19,0.1c-0.03,0.04-0.06,0.08-0.07,0.13c-0.04,0.12,0,0.25,0.1,0.34
						c1.19,1.07,5.9,1.71,7.09,0.41c0.23-0.25,0.44-0.67,0.2-1.31c0.31-0.47,0.77-1.4,0.47-2.36c-0.3-0.96-1.22-1.45-1.74-1.66
						C300.21,15.56,299.84,15.33,299.54,15.24z"/>
					<path class="st1" d="M292.92,22.13c0.49-0.86,0.18-1.96-0.68-2.45c-0.87-0.49-1.96-0.19-2.45,0.68
						c-0.49,0.86-0.19,1.96,0.68,2.45C291.33,23.3,292.43,23,292.92,22.13z"/>
					<path class="st1" d="M293.88,22.74c-0.04,0.05-0.07,0.11-0.08,0.17c-0.02,0.13,0.04,0.25,0.14,0.32
						c0.46,0.3,1.21,0.99,1.11,1.38c-0.39,0.14-1.17-0.59-1.47-0.98c-0.08-0.1-0.21-0.14-0.33-0.11c-0.07,0.01-0.12,0.05-0.17,0.1
						c-0.04,0.04-0.07,0.1-0.08,0.15c-0.32,1.52,1.29,5.43,2.82,6.22c0.56,0.29,1.11,0.19,1.54-0.28c0.02-0.02,0.04-0.05,0.06-0.07
						c0.56,0.03,1.6-0.03,2.28-0.78c0.68-0.75,0.65-1.78,0.57-2.34c0.02-0.02,0.04-0.04,0.06-0.07c0.43-0.47,0.48-1.02,0.14-1.56
						c-0.92-1.46-4.96-2.71-6.44-2.25C293.96,22.67,293.92,22.7,293.88,22.74z"/>
					<path class="st1" d="M288.93,32.28c0.98,0.22,1.87-0.33,2.31-0.68c0.65,0.18,1.06-0.07,1.29-0.32c1.19-1.3,0.12-5.93-1.05-7.02
						c-0.09-0.09-0.23-0.11-0.34-0.06c-0.05,0.02-0.09,0.05-0.12,0.08c-0.05,0.06-0.08,0.12-0.09,0.2c-0.02,0.3-0.14,1.18-0.47,1.53
						c-0.07,0.07-0.13,0.11-0.18,0.12c-0.32-0.27-0.07-1.31,0.11-1.77c0.05-0.12,0.02-0.25-0.07-0.35
						c-0.09-0.09-0.22-0.12-0.34-0.09c-0.67,0.22-1.43,0.98-1.83,1.41c-0.93,1.02-2.56,3.3-2.04,4.61c0.11,0.29,0.38,0.64,1.01,0.75
						C287.37,31.2,287.94,32.06,288.93,32.28z"/>
					<path class="st1" d="M283.17,27.26c1.35,0.4,3.47-1.43,4.4-2.45c0.39-0.43,1.08-1.26,1.24-1.95c0.03-0.12-0.02-0.25-0.12-0.33
						c-0.1-0.08-0.24-0.09-0.35-0.04c-0.49,0.24-1.46,0.55-1.75,0.27c0.01-0.05,0.04-0.11,0.1-0.18c0.33-0.35,1.18-0.56,1.48-0.6
						c0.07-0.01,0.14-0.05,0.19-0.1c0.03-0.03,0.06-0.08,0.07-0.13c0.04-0.12,0-0.25-0.1-0.34c-0.1-0.09-0.23-0.18-0.38-0.26
						c-1.59-0.9-5.62-1.34-6.71-0.15c-0.23,0.25-0.44,0.67-0.2,1.31c-0.31,0.47-0.77,1.4-0.47,2.36c0.3,0.96,1.22,1.45,1.74,1.66
						C282.49,26.94,282.87,27.17,283.17,27.26z"/>
					<path class="st1" d="M288.83,19.75c0.04-0.05,0.07-0.11,0.08-0.17c0.02-0.13-0.04-0.25-0.14-0.32
						c-0.46-0.3-1.21-0.99-1.11-1.38c0.4-0.14,1.17,0.59,1.47,0.98c0.08,0.1,0.21,0.14,0.33,0.11c0.07-0.01,0.12-0.05,0.17-0.1
						c0.04-0.04,0.07-0.1,0.08-0.15c0.32-1.52-1.29-5.43-2.82-6.21c-0.56-0.29-1.11-0.19-1.54,0.28c0,0-0.04,0.04-0.06,0.07
						c-0.56-0.03-1.6,0.03-2.28,0.78l0,0c-0.68,0.74-0.65,1.78-0.57,2.34c-0.02,0.02-0.04,0.05-0.06,0.07
						c-0.43,0.47-0.48,1.02-0.14,1.56c0.92,1.46,4.96,2.71,6.44,2.25C288.74,19.83,288.79,19.8,288.83,19.75z"/>
				</g>
				<g>
					<path class="st1" d="M301.63,0.54c0.28-0.78-0.13-1.63-0.91-1.91c-0.78-0.28-1.63,0.13-1.91,0.91
						c-0.28,0.78,0.13,1.64,0.91,1.91C300.5,1.73,301.36,1.32,301.63,0.54z"/>
					<path class="st1" d="M302.51,0.91c-0.03,0.05-0.04,0.1-0.04,0.15c0,0.11,0.07,0.2,0.16,0.24c0.42,0.18,1.13,0.64,1.11,0.97
						c-0.3,0.18-1.04-0.32-1.35-0.59c-0.08-0.07-0.19-0.09-0.29-0.04c-0.05,0.02-0.09,0.06-0.12,0.1c-0.02,0.04-0.04,0.09-0.04,0.14
						c-0.04,1.29,1.84,4.26,3.21,4.69c0.5,0.16,0.94,0,1.22-0.45c0.01-0.02,0.03-0.04,0.04-0.07c0.47-0.06,1.31-0.26,1.76-0.96
						c0.45-0.71,0.27-1.55,0.13-2c0.02-0.02,0.03-0.04,0.04-0.06c0.28-0.45,0.25-0.91-0.11-1.3c-0.97-1.06-4.45-1.5-5.61-0.92
						C302.57,0.83,302.53,0.86,302.51,0.91z"/>
					<path class="st1" d="M299.83,9.44c0.84,0.04,1.48-0.54,1.79-0.89c0.56,0.05,0.86-0.21,1.01-0.45c0.79-1.24-0.76-4.88-1.88-5.61
						c-0.09-0.06-0.2-0.06-0.29,0c-0.04,0.02-0.07,0.05-0.09,0.08c-0.03,0.05-0.05,0.11-0.04,0.18c0.03,0.25,0.05,0.98-0.16,1.32
						c-0.04,0.07-0.09,0.1-0.13,0.12c-0.3-0.17-0.25-1.06-0.17-1.46c0.02-0.1-0.02-0.21-0.11-0.27c-0.08-0.06-0.2-0.07-0.29-0.02
						c-0.52,0.28-1.04,1.01-1.3,1.42c-0.62,0.97-1.62,3.07-1.01,4.07c0.14,0.22,0.41,0.47,0.93,0.47
						C298.39,8.78,298.99,9.41,299.83,9.44z"/>
					<path class="st1" d="M294.38,6.16c1.16,0.13,2.64-1.67,3.26-2.65c0.26-0.41,0.7-1.19,0.73-1.78c0-0.1-0.05-0.2-0.14-0.26
						c-0.09-0.05-0.21-0.04-0.29,0.02c-0.37,0.27-1.12,0.66-1.4,0.47c0-0.04,0.01-0.1,0.06-0.17c0.22-0.34,0.89-0.63,1.13-0.71
						c0.06-0.02,0.11-0.06,0.14-0.11c0.02-0.03,0.04-0.07,0.04-0.11c0.01-0.11-0.04-0.21-0.13-0.26c-0.1-0.06-0.21-0.11-0.35-0.16
						c-1.43-0.51-4.8-0.28-5.52,0.85c-0.15,0.24-0.26,0.62,0.03,1.1c-0.19,0.43-0.43,1.26-0.04,2c0.39,0.74,1.21,1.01,1.67,1.11
						C293.78,5.99,294.12,6.13,294.38,6.16z"/>
				</g>
				<path class="st1" d="M374.31-16.78c-15.99,9.46-23.35,19.2-24.54,22.71s-4.73,12.16-0.58,23.6c7.27-5.58,8.94-7.44,11.74-13.31
					C363.64,10.49,363.57-4.28,374.31-16.78c-8.51,6.99-11.33,9.13-19.49,26.95C353.37-2.74,370.23-12.35,374.31-16.78z"/>
				<path class="st1" d="M336.9,66.42c-13.54-7.91-2.33-32.61-2.33-32.61l-1.18-3.29c0.01-0.45-0.04-0.9-0.19-1.33
					c-0.37,6.1-10,7.37-14.21,20.24C314.78,62.31,323.63,72.4,336.9,66.42z M325,43.48c1.56-2.69,4.64-5.69,6.6-8.57
					c-3.27,6.35-9.73,17.49-6.08,26.68C320.25,57.81,322.35,48.04,325,43.48z"/>
				<path class="st1" d="M360.97,44.6c8.13-2.14,10.35-8.63,10.17-13.25c-0.14-3.72-1.53-8.96-5.67-15.75
					c1.26,5.21,3.12,15.24,0.1,19.58c0.56-2.1-1.83-16.45-0.93-20.91c-0.1-0.16-0.21-0.32-0.31-0.49
					C355.38,28.58,361.33,38.06,360.97,44.6z"/>
				<path class="st1" d="M312.55,59.11c2.94-2.05,4.29-6.51,5.56-13.52c-11.99,5.75-15.68,11.01-19.38,14.49
					C304.44,63.24,308.76,61.75,312.55,59.11z M317.97,46.36c0,0-3.7,10.11-11.47,11.92C311.54,54.23,316.26,47.93,317.97,46.36z"/>
				<g>
					<path class="st1" d="M321.09,41l-0.73,0.58C320.6,41.38,320.84,41.19,321.09,41z"/>
					<path class="st1" d="M307.3,46.78c-0.09,0.04-0.17,0.08-0.25,0.12c3.27,0.01,6.4-0.9,9.3-2.59c1.4-0.81,2.72-1.75,4-2.74
						c0,0-10.22,6.86-15.45,0.56c7.55,3.92,16.19-1.14,16.19-1.14c-5.16,1.45-11.71,0.09-19.64-6.84
						C298.91,41.07,303.72,47,307.3,46.78z"/>
				</g>
				<path class="st1" d="M375.09,16.75c-6.31-2.89-7.69-11-3.59-22.73c-4.52,6.47-5.1,15.37-4.35,18.8
					c0.75,3.44,6.84,13.12,17.3,5.43c-7.66-2.53-14.4-13.32-12.95-24.23C371.5-5.98,366.92,11.34,375.09,16.75z"/>
				<path class="st1" d="M370.24,70.02c-12.03,3.91-21.42-7.82-21.42-7.82c18.82,28.16,45.49-0.33,22.94-7
					c5.69,12.77-11.34,14.54-21.05,8.37C355.15,67.35,361.88,71.15,370.24,70.02z"/>
				<path class="st1" d="M390.33,3.52c-10.61-5.91-6.63-15.65,7.32-20.06c-0.04-0.01-0.08-0.02-0.12-0.03
					c-4.03,0.81-16.68,4.13-17.36,13.9c0.4-11.67,12.68-13.5,17.07-13.96c-3.95-0.58-18.38,1.19-21.15,10.87
					C373.63,2.8,382.42,8.48,390.33,3.52z"/>
				<path class="st1" d="M335.17,30.53c2.84,5.97,11.27,12.41,18.2,3.4c-12.15-0.12-17.76-20.22-1.81-33.68
					c0,0-18.77,13.27-11.75,29.23c-9.57-18.22,11.75-29.23,11.75-29.23C338.13,5.88,330.22,20.13,335.17,30.53z"/>
			</g>
			<g>
				<path class="st1" d="M578.8,61.37c0.4-0.89,0.85-1.68,1.33-2.4v-5.45c-3.24,2.01-5.72,6.29-4.6,12.9
					c0.67-0.33,2.51-1.03,4.6-2.09v-4.45C579.49,60.51,579,61.04,578.8,61.37z"/>
				<path class="st1" d="M564.07,36.11c6.96-2.38,2.34-12,3.26-16.58c-5.12,2.7-11.74,13.7-3.95,16.29c-0.2,1.48,1.75,5.82,4.03,8.8
					c-2.93-0.89-3.56-1.7-5.08-4.78c-6.74,11.68,5.88,16.5,9.49,11.28c1.56,0.33,2.73,0.24,2.73,0.24l-2.33-0.75
					c0.02-0.03,0.04-0.05,0.06-0.08c-0.03-0.24-0.07-0.46-0.11-0.68c2.24,1.57,4.93,2.59,7.97,2.94V50.9
					C570.57,49.93,565.81,42.27,564.07,36.11z M564.27,23.52c-1.8,3.86-1.61,8.79-0.82,11.63C561.59,31.1,561.65,27.4,564.27,23.52z
					 M562.07,45.95c0.99,3.69,9.02,5,9.02,5C570.8,51.63,563.61,51.47,562.07,45.95z"/>
				<path class="st1" d="M578.23,41.52c0.26,0.36,0.99,0.97,1.9,1.67v-3.97c-2.18-0.68-4.26-1.17-5.37-2.05
					c0.74,6.92,2.81,10.56,5.37,11.94v-4.97C579.45,43.4,578.81,42.54,578.23,41.52z"/>
				<path class="st1" d="M560.87,19.45c-0.23,0.81,0.36,4.71,0.36,4.71l0.5-4.68c0.02,0.02,0.03,0.05,0.05,0.07
					c8.77,0.83,5.16-10.81,9.5-13.19C559.17,7.24,556.07,17.47,560.87,19.45z M561.66,18.58c-0.15-3.72,3.34-8.42,5.95-9.52
					C566.38,9.45,562.09,15.89,561.66,18.58z"/>
				<g>
					<path class="st1" d="M580.13,15.84v-4.47C579.53,12.26,579.67,14.21,580.13,15.84z"/>
					<path class="st1" d="M579.85,20.36c-0.4,0.71-0.27,1.58,0.28,2.14V20C580.03,20.1,579.93,20.23,579.85,20.36z"/>
					<path class="st1" d="M580.05,23.93c-0.67,0.22-1.43,0.98-1.83,1.41c-0.93,1.02-2.56,3.3-2.04,4.61
						c0.11,0.29,0.38,0.64,1.01,0.75c0.25,0.5,0.83,1.37,1.81,1.59c0.4,0.09,0.79,0.05,1.14-0.05v-8.31
						C580.1,23.92,580.07,23.92,580.05,23.93z"/>
					<path class="st1" d="M573.23,27.26c1.35,0.4,3.47-1.43,4.4-2.45c0.39-0.43,1.08-1.26,1.24-1.95c0.03-0.12-0.02-0.25-0.12-0.33
						c-0.1-0.08-0.24-0.09-0.35-0.04c-0.49,0.24-1.46,0.55-1.75,0.27c0.01-0.05,0.04-0.11,0.1-0.18c0.33-0.35,1.18-0.56,1.48-0.6
						c0.07-0.01,0.14-0.05,0.19-0.1c0.03-0.03,0.06-0.08,0.07-0.13c0.04-0.12,0-0.25-0.1-0.34c-0.1-0.09-0.23-0.18-0.38-0.26
						c-1.59-0.9-5.62-1.34-6.71-0.15c-0.23,0.25-0.44,0.67-0.2,1.31c-0.31,0.47-0.77,1.4-0.47,2.36c0.3,0.96,1.22,1.45,1.74,1.66
						C572.56,26.94,572.93,27.17,573.23,27.26z"/>
					<path class="st1" d="M578.9,19.75c0.04-0.05,0.07-0.11,0.08-0.17c0.02-0.13-0.04-0.25-0.14-0.32c-0.46-0.3-1.21-0.99-1.11-1.38
						c0.4-0.14,1.17,0.59,1.47,0.98c0.08,0.1,0.21,0.14,0.33,0.11c0.07-0.01,0.12-0.05,0.17-0.1c0.04-0.04,0.07-0.1,0.08-0.15
						c0.32-1.52-1.29-5.43-2.82-6.21c-0.56-0.29-1.11-0.19-1.54,0.28c0,0-0.04,0.04-0.06,0.07c-0.56-0.03-1.6,0.03-2.28,0.78l0,0
						c-0.68,0.74-0.65,1.78-0.57,2.34c-0.02,0.02-0.04,0.05-0.06,0.07c-0.43,0.47-0.48,1.02-0.14,1.56
						c0.92,1.46,4.96,2.71,6.44,2.25C578.81,19.83,578.86,19.8,578.9,19.75z"/>
				</g>
			</g>
			<g>
				<path class="st1" d="M219.02,2.26c-2.1-0.56-3.36-2.72-2.79-4.83c0.19-0.7,0.56-1.31,1.04-1.78c-1.1-0.48-2.79-0.68-4.75-0.47
					c-4.67,0.51-10.88,3.4-14.32,10.65c0.74-4.16,7.4-11.22,14.87-12.7c3.1-0.61,6.33-0.27,9.34,1.65c1.36,1.33,1.96,2.74,1.44,4.69
					C223.29,1.57,221.13,2.82,219.02,2.26z"/>
				<path class="st1" d="M196.3,16.79l-2.07,1.3c0.16-5.44,2.87-9.75,6.16-12.04c0.82-0.89,4.79-1.72,7.23,0.05
					c1.41,1.02,2.16,2.61,2.18,4.23c0.01,1.1-0.31,2.21-1,3.16c-0.69,0.96-1.65,1.61-2.69,1.94c-1.54,0.49-3.29,0.27-4.7-0.76
					c-1.38-1-2.12-2.53-2.18-4.11C197.53,12.57,196.58,14.17,196.3,16.79z"/>
				<path class="st1" d="M191.52,7.41c-0.33,0.77,0.28,7.13,0.58,10.37c-1.82-3.97-2.46-11.55-2.45-11.54
					c-0.66-0.81-0.96-1.92-0.69-3.02c0.45-1.86,2.33-3.01,4.19-2.56c1.86,0.45,3.01,2.33,2.55,4.2
					C195.26,6.72,193.38,7.87,191.52,7.41z"/>
				<g>
					<path class="st1" d="M238.09,17.33c-0.52,2.29-2.8,3.72-5.08,3.2c-2.29-0.52-3.72-2.8-3.2-5.09c0.52-2.29,2.8-3.72,5.08-3.2
						C237.18,12.76,238.61,15.04,238.09,17.33z"/>
					<path class="st1" d="M243.15,17.14c-2.05-0.47-3.33-2.51-2.87-4.56c0.47-2.05,2.51-3.34,4.56-2.87
						c2.05,0.47,3.33,2.51,2.87,4.56C247.24,16.32,245.2,17.61,243.15,17.14z"/>
					<path class="st1" d="M250.65,14.33c0.38-1.66,2.03-2.69,3.68-2.32c1.66,0.38,2.69,2.03,2.32,3.68
						c-0.38,1.66-2.03,2.69-3.68,2.32C251.31,17.63,250.28,15.98,250.65,14.33z"/>
					<path class="st1" d="M259.88,23.58c-1.44-0.33-2.34-1.76-2.01-3.2c0.33-1.44,1.76-2.34,3.19-2.01c1.44,0.33,2.34,1.76,2.01,3.2
						C262.75,23,261.32,23.9,259.88,23.58z"/>
					<path class="st1" d="M265.61,28.31c-0.27,1.2-1.47,1.95-2.67,1.68c-1.2-0.27-1.95-1.47-1.68-2.67c0.27-1.2,1.47-1.95,2.67-1.68
						C265.13,25.91,265.88,27.11,265.61,28.31z"/>
					<path class="st1" d="M266.84,35.03c-0.24,1.04-1.27,1.7-2.32,1.46c-1.04-0.24-1.69-1.28-1.46-2.32
						c0.24-1.04,1.27-1.7,2.32-1.46C266.42,32.95,267.07,33.99,266.84,35.03z"/>
					<path class="st1" d="M265.88,41.04c-0.18,0.81-0.99,1.31-1.79,1.13c-0.81-0.18-1.31-0.99-1.13-1.79
						c0.18-0.81,0.99-1.31,1.79-1.13C265.56,39.43,266.06,40.23,265.88,41.04z"/>
					<path class="st1" d="M261.74,48.52c-0.12,0.53-0.65,0.86-1.17,0.74c-0.53-0.12-0.86-0.65-0.74-1.17
						c0.12-0.53,0.65-0.86,1.18-0.74C261.53,47.47,261.86,48,261.74,48.52z"/>
					<path class="st1" d="M264.13,45.07c-0.12,0.53-0.65,0.86-1.17,0.74c-0.53-0.12-0.86-0.65-0.74-1.18
						c0.12-0.53,0.65-0.86,1.18-0.74C263.92,44.02,264.25,44.54,264.13,45.07z"/>
				</g>
				<path class="st1" d="M128.28,21.79c-0.2-1.48,1.75-5.82,4.03-8.8c-2.93,0.89-3.56,1.7-5.08,4.78
					c-6.74-11.68,5.88-16.5,9.49-11.28c1.56-0.33,2.73-0.24,2.73-0.24L137.11,7c0.02,0.03,0.04,0.05,0.06,0.08
					c-0.03,0.24-0.07,0.46-0.11,0.68c2.54-1.78,5.65-2.85,9.19-3.04c-3.79-1.63-7.07-6.12-5.81-13.53
					c2.06,1.01,14.91,5.43,12.73,13.09c-0.03,0.02-0.06,0.04-0.09,0.06l2.1,1.61c0,0-1.22-0.34-2.69-1.25
					c-0.28,0.15-0.57,0.27-0.87,0.37c2.69-0.2,9.06,3.46,9.28,4.94c-0.09,0.01-0.18,0.01-0.28,0.02
					c-20.36-9.41-29.15,2.59-31.66,11.46c6.96,2.38,2.34,12,3.26,16.58C127.11,35.39,120.48,24.38,128.28,21.79z M152.07,3.78
					c0,0-7.44-5.97-8.36-7.53C145.75,0.77,148.92,2.97,152.07,3.78z M135.99,6.67c-0.28-0.68-7.48-0.51-9.02,5
					C127.96,7.98,135.99,6.67,135.99,6.67z M129.17,34.1c-1.8-3.86-1.61-8.79-0.82-11.63C126.49,26.52,126.55,30.22,129.17,34.1z"/>
				<path class="st1" d="M244.73,47.69c-3.99-4.44,0.73-8.92,3.68-7.23c0.17,4.97,8.68,5.73,9.46-2.17
					c1.42-14.23-13.86-17.13-18.05-14.65c4.97,0.28,5.33,5.94,3.41,7.76c-2.36-2.15-10.6-5.99-16.3,0.77
					c2.09-13.33,33.31-17.55,33.52,6.23C260.54,48.68,249.64,53.15,244.73,47.69z"/>
				<path class="st1" d="M199.24,55.64c-8.91-6.55-23.55-6.97-24.07-0.25c3.46,1.03,2.67,6.12,0.58,7.34
					c-3.05,1.78-6.6,0.56-7.74-1.29C160.19,48.68,184.39,37.68,199.24,55.64z"/>
				<path class="st1" d="M151.99,9.1c1.43-0.7,2.59-0.9,2.59-0.9l-2.08,1.29c0.02,0.02,0.05,0.04,0.08,0.07
					c0.81,9.04-9.81,8.43-12.91,10.89C141.02,7.75,146.85,6.13,151.99,9.1z M151.51,9.92c-2.97,0.46-6.09,2.2-8.38,6.17
					C144.12,14.74,151.51,9.92,151.51,9.92z"/>
				<path class="st1" d="M125.77,38.17c-0.23-0.81,0.36-4.71,0.36-4.71l0.5,4.68c0.02-0.02,0.03-0.05,0.05-0.07
					c8.77-0.83,5.16,10.81,9.5,13.19C124.07,50.38,120.97,40.14,125.77,38.17z M126.56,39.04c-0.15,3.72,3.34,8.42,5.95,9.52
					C131.28,48.16,126.99,41.73,126.56,39.04z"/>
				<g>
					<path class="st1" d="M169.02,35.02c0.11-0.07,0.25-0.07,0.36,0c0.04,0.03,0.08,0.06,0.11,0.11c0.04,0.07,0.06,0.14,0.05,0.22
						c-0.03,0.29-0.07,1.22,0.2,1.64c0.05,0.09,0.11,0.13,0.16,0.15c0.38-0.22,0.31-1.32,0.21-1.82c-0.03-0.13,0.02-0.26,0.13-0.34
						c0.1-0.08,0.24-0.09,0.36-0.03c0.65,0.34,1.28,1.25,1.61,1.76c0.76,1.21,2.01,3.82,1.25,5.06c-0.17,0.28-0.5,0.59-1.16,0.58
						c-0.35,0.47-1.09,1.25-2.13,1.29c-1.04,0.05-1.84-0.67-2.23-1.11c-0.7,0.06-1.06-0.26-1.25-0.55
						C165.72,40.44,167.63,35.92,169.02,35.02z"/>
					<path class="st1" d="M176.93,39.56c-1.45,0.16-3.28-2.08-4.04-3.28c-0.32-0.51-0.87-1.47-0.91-2.2
						c-0.01-0.13,0.06-0.25,0.18-0.32c0.12-0.06,0.26-0.05,0.36,0.03c0.46,0.34,1.39,0.82,1.73,0.59c0-0.05-0.02-0.12-0.07-0.21
						c-0.27-0.42-1.1-0.78-1.4-0.88c-0.07-0.03-0.14-0.08-0.18-0.14c-0.03-0.04-0.04-0.09-0.05-0.14c-0.02-0.13,0.05-0.26,0.16-0.33
						c1.4-0.87,6.31-0.68,7.28,0.85c0.19,0.3,0.32,0.76-0.03,1.37c0.23,0.54,0.54,1.56,0.05,2.49c-0.48,0.92-1.5,1.26-2.07,1.38
						C177.67,39.35,177.25,39.52,176.93,39.56z"/>
					<path class="st1" d="M171.43,31.36c0.34,0.97-0.16,2.03-1.13,2.37c-0.97,0.34-2.03-0.16-2.37-1.13
						c-0.34-0.97,0.16-2.03,1.13-2.37C170.02,29.88,171.09,30.39,171.43,31.36z"/>
					<path class="st1" d="M172.51,30.91c-0.04-0.06-0.05-0.12-0.05-0.19c0.01-0.13,0.08-0.25,0.2-0.3c0.52-0.23,1.4-0.79,1.37-1.21
						c-0.37-0.22-1.29,0.4-1.68,0.73c-0.1,0.09-0.24,0.11-0.36,0.05c-0.06-0.03-0.12-0.07-0.15-0.13c-0.03-0.05-0.05-0.11-0.05-0.17
						c-0.05-1.6,2.28-5.29,3.99-5.82c0.62-0.19,1.16,0.01,1.51,0.56c0.02,0.03,0.03,0.05,0.05,0.08c0.58,0.07,1.62,0.32,2.18,1.2
						c0.56,0.88,0.34,1.93,0.16,2.48c0.02,0.03,0.04,0.05,0.05,0.08c0.35,0.56,0.3,1.13-0.14,1.61c-1.2,1.32-5.53,1.87-6.96,1.14
						C172.59,31,172.54,30.96,172.51,30.91z"/>
					<path class="st1" d="M169.19,20.31c1.04-0.05,1.84,0.67,2.23,1.11c0.7-0.07,1.07,0.26,1.25,0.55c0.98,1.53-0.94,6.06-2.33,6.96
						c-0.11,0.07-0.25,0.07-0.36,0c-0.04-0.03-0.08-0.06-0.11-0.11c-0.04-0.07-0.06-0.14-0.05-0.22c0.04-0.31,0.07-1.22-0.2-1.64
						c-0.05-0.08-0.11-0.13-0.16-0.15c-0.38,0.22-0.31,1.32-0.21,1.82c0.03,0.13-0.02,0.26-0.13,0.34c-0.1,0.08-0.24,0.09-0.36,0.03
						c-0.65-0.35-1.28-1.25-1.61-1.76c-0.76-1.21-2.01-3.82-1.25-5.05c0.17-0.28,0.5-0.59,1.16-0.58
						C167.41,21.14,168.15,20.36,169.19,20.31z"/>
					<path class="st1" d="M162.43,24.39c1.44-0.16,3.28,2.08,4.04,3.28c0.32,0.51,0.87,1.47,0.91,2.2c0.01,0.13-0.06,0.25-0.18,0.32
						c-0.12,0.06-0.26,0.05-0.36-0.03c-0.46-0.34-1.39-0.82-1.73-0.59c0,0.05,0.02,0.12,0.07,0.21c0.27,0.42,1.1,0.78,1.4,0.88
						c0.07,0.03,0.14,0.08,0.18,0.14c0.03,0.04,0.04,0.09,0.05,0.14c0.02,0.13-0.05,0.26-0.16,0.33c-0.12,0.07-0.27,0.14-0.43,0.2
						c-1.78,0.63-5.96,0.35-6.85-1.05c-0.19-0.3-0.32-0.76,0.03-1.37c-0.23-0.54-0.54-1.56-0.05-2.49c0.48-0.92,1.5-1.26,2.07-1.38
						C161.68,24.6,162.11,24.43,162.43,24.39z"/>
					<path class="st1" d="M166.84,33.04c0.04,0.06,0.06,0.12,0.05,0.19c-0.01,0.13-0.08,0.25-0.2,0.3c-0.52,0.23-1.4,0.79-1.37,1.21
						c0.38,0.22,1.29-0.4,1.68-0.73c0.1-0.09,0.24-0.11,0.36-0.05c0.06,0.03,0.12,0.07,0.15,0.13c0.03,0.05,0.05,0.11,0.05,0.17
						c0.05,1.6-2.28,5.29-3.99,5.82c-0.63,0.19-1.16,0-1.51-0.56c0,0-0.03-0.05-0.05-0.08c-0.58-0.07-1.62-0.32-2.18-1.2l0,0
						c-0.56-0.88-0.34-1.93-0.16-2.48c-0.02-0.03-0.04-0.05-0.05-0.08c-0.35-0.55-0.3-1.13,0.14-1.61c1.2-1.32,5.53-1.87,6.96-1.14
						C166.77,32.95,166.81,32.99,166.84,33.04z"/>
				</g>
				<g>
					<path class="st1" d="M146.2,39.38c0.09-0.09,0.23-0.11,0.34-0.06c0.05,0.02,0.09,0.05,0.12,0.08c0.05,0.06,0.08,0.12,0.09,0.2
						c0.02,0.28,0.14,1.17,0.47,1.53c0.06,0.07,0.12,0.1,0.17,0.12c0.32-0.27,0.07-1.31-0.11-1.77c-0.05-0.12-0.02-0.25,0.07-0.35
						c0.09-0.09,0.22-0.12,0.34-0.09c0.67,0.22,1.43,0.98,1.83,1.41c0.93,1.02,2.56,3.3,2.04,4.61c-0.11,0.29-0.38,0.64-1.01,0.75
						c-0.25,0.5-0.83,1.37-1.81,1.59c-0.98,0.22-1.87-0.33-2.31-0.68c-0.65,0.18-1.06-0.07-1.29-0.32
						C143.97,45.11,145.03,40.47,146.2,39.38z"/>
					<path class="st1" d="M154.51,42.38c-1.35,0.4-3.47-1.43-4.4-2.45c-0.39-0.43-1.08-1.26-1.24-1.95
						c-0.03-0.12,0.02-0.25,0.11-0.33c0.1-0.08,0.24-0.09,0.35-0.04c0.49,0.24,1.46,0.55,1.75,0.27c-0.01-0.05-0.04-0.11-0.1-0.18
						c-0.33-0.35-1.18-0.56-1.48-0.6c-0.07-0.01-0.14-0.05-0.19-0.1c-0.03-0.04-0.06-0.08-0.07-0.13c-0.04-0.12,0-0.25,0.1-0.34
						c1.19-1.07,5.9-1.71,7.09-0.41c0.23,0.25,0.44,0.67,0.2,1.31c0.31,0.47,0.77,1.4,0.47,2.36c-0.3,0.96-1.22,1.45-1.74,1.66
						C155.18,42.06,154.81,42.29,154.51,42.38z"/>
					<path class="st1" d="M147.89,35.49c0.49,0.86,0.18,1.96-0.68,2.45c-0.87,0.49-1.96,0.19-2.45-0.68
						c-0.49-0.86-0.19-1.96,0.68-2.45C146.3,34.32,147.4,34.62,147.89,35.49z"/>
					<path class="st1" d="M148.84,34.88c-0.04-0.05-0.07-0.11-0.08-0.17c-0.02-0.13,0.04-0.25,0.14-0.32
						c0.46-0.3,1.21-0.99,1.11-1.38c-0.39-0.14-1.17,0.59-1.47,0.98c-0.08,0.1-0.21,0.14-0.33,0.11c-0.07-0.01-0.12-0.05-0.17-0.1
						c-0.04-0.04-0.07-0.1-0.08-0.15c-0.32-1.52,1.29-5.43,2.82-6.22c0.56-0.29,1.11-0.19,1.54,0.28c0.02,0.02,0.04,0.05,0.06,0.07
						c0.56-0.03,1.6,0.03,2.28,0.78c0.68,0.75,0.65,1.78,0.57,2.34c0.02,0.02,0.04,0.04,0.06,0.07c0.43,0.47,0.48,1.02,0.14,1.56
						c-0.92,1.46-4.96,2.71-6.44,2.25C148.93,34.95,148.88,34.92,148.84,34.88z"/>
					<path class="st1" d="M143.9,25.34c0.98-0.22,1.87,0.33,2.31,0.68c0.65-0.18,1.06,0.07,1.29,0.32c1.19,1.3,0.12,5.93-1.05,7.02
						c-0.09,0.09-0.23,0.11-0.34,0.06c-0.05-0.02-0.09-0.05-0.12-0.08c-0.05-0.06-0.08-0.12-0.09-0.2c-0.02-0.3-0.14-1.18-0.47-1.53
						c-0.07-0.07-0.13-0.11-0.18-0.12c-0.32,0.27-0.07,1.31,0.11,1.77c0.05,0.12,0.02,0.25-0.07,0.35
						c-0.09,0.09-0.22,0.12-0.34,0.09c-0.67-0.22-1.43-0.98-1.83-1.41c-0.93-1.02-2.56-3.3-2.04-4.61c0.11-0.29,0.38-0.64,1.01-0.75
						C142.34,26.42,142.91,25.56,143.9,25.34z"/>
					<path class="st1" d="M138.14,30.36c1.35-0.4,3.47,1.43,4.4,2.45c0.39,0.43,1.08,1.26,1.24,1.95c0.03,0.12-0.02,0.25-0.12,0.33
						c-0.1,0.08-0.24,0.09-0.35,0.04c-0.49-0.24-1.46-0.55-1.75-0.27c0.01,0.05,0.04,0.11,0.1,0.18c0.33,0.35,1.18,0.56,1.48,0.6
						c0.07,0.01,0.14,0.05,0.19,0.1c0.03,0.03,0.06,0.08,0.07,0.13c0.04,0.12,0,0.25-0.1,0.34c-0.1,0.09-0.23,0.18-0.38,0.26
						c-1.59,0.9-5.62,1.34-6.71,0.15c-0.23-0.25-0.44-0.67-0.2-1.31c-0.31-0.47-0.77-1.4-0.47-2.36c0.3-0.96,1.22-1.45,1.74-1.66
						C137.46,30.68,137.84,30.45,138.14,30.36z"/>
					<path class="st1" d="M143.8,37.87c0.04,0.05,0.07,0.11,0.08,0.17c0.02,0.13-0.04,0.25-0.14,0.32c-0.46,0.3-1.21,0.99-1.11,1.38
						c0.4,0.14,1.17-0.59,1.47-0.98c0.08-0.1,0.21-0.14,0.33-0.11c0.07,0.01,0.12,0.05,0.17,0.1c0.04,0.04,0.07,0.09,0.08,0.15
						c0.32,1.52-1.29,5.43-2.82,6.21c-0.56,0.29-1.11,0.19-1.54-0.28c0,0-0.04-0.04-0.06-0.07c-0.56,0.03-1.6-0.03-2.28-0.78l0,0
						c-0.68-0.74-0.65-1.78-0.57-2.34c-0.02-0.02-0.04-0.05-0.06-0.07c-0.43-0.47-0.48-1.02-0.14-1.56
						c0.92-1.46,4.96-2.71,6.44-2.25C143.71,37.79,143.76,37.82,143.8,37.87z"/>
				</g>
				<g>
					<path class="st1" d="M161.03,63.69c-1.16,0.13-2.64-1.67-3.26-2.65c-0.26-0.41-0.7-1.19-0.73-1.78
						c-0.01-0.11,0.05-0.2,0.14-0.25c0.09-0.05,0.21-0.04,0.29,0.02c0.37,0.27,1.12,0.66,1.4,0.47c0-0.04-0.01-0.1-0.06-0.17
						c-0.22-0.34-0.89-0.63-1.13-0.71c-0.06-0.02-0.11-0.06-0.14-0.11c-0.02-0.03-0.04-0.07-0.04-0.11
						c-0.01-0.11,0.04-0.21,0.13-0.26c1.13-0.7,5.08-0.55,5.87,0.69c0.15,0.24,0.26,0.62-0.03,1.1c0.19,0.43,0.43,1.26,0.04,2
						c-0.39,0.74-1.21,1.02-1.67,1.11C161.63,63.52,161.29,63.66,161.03,63.69z"/>
					<path class="st1" d="M156.6,57.08c0.28,0.78-0.13,1.63-0.91,1.91c-0.78,0.28-1.63-0.13-1.91-0.91
						c-0.28-0.78,0.13-1.64,0.91-1.91C155.47,55.89,156.32,56.3,156.6,57.08z"/>
					<path class="st1" d="M157.47,56.71c-0.03-0.05-0.04-0.1-0.04-0.15c0-0.11,0.07-0.2,0.16-0.24c0.42-0.18,1.13-0.64,1.11-0.97
						c-0.3-0.18-1.04,0.32-1.35,0.59c-0.08,0.07-0.19,0.09-0.29,0.04c-0.05-0.02-0.09-0.06-0.12-0.1c-0.02-0.04-0.04-0.09-0.04-0.14
						c-0.04-1.29,1.84-4.26,3.21-4.69c0.5-0.16,0.94,0,1.22,0.45c0.01,0.02,0.03,0.04,0.04,0.07c0.47,0.06,1.31,0.26,1.76,0.96
						c0.45,0.71,0.27,1.55,0.13,2c0.02,0.02,0.03,0.04,0.04,0.06c0.28,0.45,0.25,0.91-0.11,1.3c-0.97,1.06-4.45,1.5-5.61,0.92
						C157.54,56.79,157.5,56.76,157.47,56.71z"/>
					<path class="st1" d="M154.79,48.18c0.84-0.04,1.48,0.54,1.79,0.89c0.56-0.05,0.86,0.21,1.01,0.45
						c0.79,1.24-0.76,4.88-1.88,5.61c-0.09,0.06-0.2,0.06-0.29,0c-0.04-0.02-0.07-0.05-0.09-0.08c-0.03-0.05-0.05-0.11-0.04-0.18
						c0.03-0.25,0.05-0.98-0.16-1.32c-0.04-0.07-0.09-0.1-0.13-0.12c-0.3,0.17-0.25,1.06-0.17,1.46c0.02,0.1-0.02,0.21-0.11,0.27
						c-0.08,0.06-0.2,0.07-0.29,0.02c-0.52-0.28-1.04-1.01-1.3-1.42c-0.62-0.97-1.62-3.07-1.01-4.07c0.14-0.22,0.41-0.47,0.93-0.47
						C153.36,48.84,153.95,48.21,154.79,48.18z"/>
					<path class="st1" d="M149.35,51.46c1.16-0.13,2.64,1.67,3.26,2.65c0.26,0.41,0.7,1.19,0.73,1.78c0,0.1-0.05,0.2-0.14,0.26
						c-0.09,0.05-0.21,0.04-0.29-0.02c-0.37-0.27-1.12-0.66-1.4-0.47c0,0.04,0.01,0.1,0.06,0.17c0.22,0.34,0.89,0.63,1.13,0.71
						c0.06,0.02,0.11,0.06,0.14,0.11c0.02,0.03,0.04,0.07,0.04,0.11c0.01,0.11-0.04,0.21-0.13,0.26c-0.1,0.06-0.21,0.11-0.35,0.16
						c-1.43,0.51-4.8,0.28-5.52-0.85c-0.15-0.24-0.26-0.62,0.03-1.1c-0.19-0.43-0.43-1.26-0.04-2c0.39-0.74,1.21-1.01,1.67-1.11
						C148.75,51.63,149.09,51.49,149.35,51.46z"/>
					<path class="st1" d="M152.91,58.44c0.03,0.05,0.04,0.1,0.04,0.15c0,0.11-0.07,0.2-0.16,0.24c-0.42,0.18-1.13,0.64-1.11,0.97
						c0.3,0.17,1.04-0.32,1.35-0.59c0.08-0.07,0.19-0.09,0.29-0.04c0.05,0.02,0.09,0.06,0.12,0.1c0.03,0.04,0.04,0.09,0.04,0.14
						c0.04,1.29-1.84,4.26-3.21,4.69c-0.5,0.16-0.94,0-1.22-0.45c0,0-0.03-0.04-0.04-0.07c-0.47-0.06-1.31-0.26-1.76-0.96l0,0
						c-0.45-0.71-0.27-1.55-0.13-2c-0.02-0.02-0.03-0.04-0.04-0.06c-0.28-0.45-0.24-0.91,0.11-1.3c0.97-1.06,4.46-1.5,5.61-0.92
						C152.84,58.36,152.88,58.4,152.91,58.44z"/>
				</g>
				<path class="st1" d="M229.27,74.4c-15.99-9.46-23.35-19.2-24.54-22.71s-4.73-12.16-0.58-23.6c7.27,5.58,8.94,7.44,11.74,13.31
					C218.61,47.13,218.54,61.9,229.27,74.4c-8.51-6.99-11.33-9.13-19.49-26.95C208.34,60.36,225.2,69.97,229.27,74.4z"/>
				<path class="st1" d="M191.87-8.8c-13.54,7.91-2.33,32.61-2.33,32.61l-1.18,3.29c0.01,0.45-0.04,0.9-0.19,1.33
					c-0.37-6.1-10-7.37-14.21-20.24S178.6-14.78,191.87-8.8z M179.97,14.14c1.56,2.69,4.64,5.69,6.6,8.57
					c-3.27-6.35-9.73-17.49-6.08-26.68C175.21-0.19,177.32,9.58,179.97,14.14z"/>
				<path class="st1" d="M215.94,13.02c8.13,2.14,10.35,8.63,10.17,13.25c-0.14,3.72-1.53,8.96-5.67,15.75
					c1.26-5.21,3.12-15.24,0.1-19.58c0.56,2.1-1.83,16.45-0.93,20.91c-0.1,0.16-0.21,0.32-0.31,0.49
					C210.35,29.04,216.3,19.56,215.94,13.02z"/>
				<path class="st1" d="M167.51-1.49c2.94,2.05,4.29,6.51,5.56,13.52c-11.99-5.75-15.68-11.01-19.38-14.49
					C159.4-5.62,163.73-4.13,167.51-1.49z M172.93,11.26c0,0-3.7-10.11-11.47-11.92C166.5,3.39,171.23,9.69,172.93,11.26z"/>
				<g>
					<path class="st1" d="M176.05,16.62l-0.73-0.58C175.56,16.24,175.81,16.43,176.05,16.62z"/>
					<path class="st1" d="M162.27,10.84c-0.09-0.04-0.17-0.08-0.25-0.12c3.27-0.01,6.4,0.9,9.3,2.59c1.4,0.81,2.72,1.75,4,2.74
						c0,0-10.22-6.86-15.45-0.56c7.55-3.92,16.19,1.14,16.19,1.14c-5.16-1.45-11.71-0.09-19.64,6.84
						C153.88,16.55,158.69,10.62,162.27,10.84z"/>
				</g>
				<path class="st1" d="M230.05,40.87c-6.31,2.89-7.69,11-3.59,22.73c-4.52-6.47-5.1-15.37-4.35-18.8
					c0.75-3.44,6.84-13.12,17.3-5.43c-7.66,2.53-14.4,13.32-12.95,24.23C226.47,63.6,221.89,46.28,230.05,40.87z"/>
				<path class="st1" d="M225.21-12.4c-12.03-3.91-21.42,7.82-21.42,7.82c18.82-28.16,45.49,0.33,22.94,7
					c5.69-12.77-11.34-14.54-21.05-8.37C210.12-9.73,216.85-13.53,225.21-12.4z"/>
				<path class="st1" d="M245.3,54.1c-10.61,5.91-6.63,15.65,7.32,20.06c-0.04,0.01-0.08,0.02-0.12,0.03
					c-4.03-0.81-16.68-4.13-17.36-13.9c0.4,11.67,12.68,13.5,17.07,13.96c-3.95,0.58-18.38-1.19-21.15-10.87
					C228.6,54.82,237.39,49.14,245.3,54.1z"/>
				<path class="st1" d="M190.14,27.09c2.84-5.97,11.27-12.41,18.2-3.4c-12.15,0.12-17.76,20.22-1.81,33.68
					c0,0-18.77-13.27-11.75-29.23c-9.57,18.22,11.75,29.23,11.75,29.23C193.1,51.73,185.18,37.49,190.14,27.09z"/>
			</g>
			<g>
				<path class="st1" d="M509.09,2.26c-2.1-0.56-3.36-2.72-2.79-4.83c0.19-0.7,0.56-1.31,1.04-1.78c-1.1-0.48-2.79-0.68-4.75-0.47
					c-4.67,0.51-10.88,3.4-14.32,10.65c0.74-4.16,7.4-11.22,14.87-12.7c3.1-0.61,6.33-0.27,9.34,1.65c1.36,1.33,1.96,2.74,1.44,4.69
					C513.35,1.57,511.19,2.82,509.09,2.26z"/>
				<path class="st1" d="M486.36,16.79l-2.07,1.3c0.16-5.44,2.87-9.75,6.16-12.04c0.82-0.89,4.79-1.72,7.23,0.05
					c1.41,1.02,2.16,2.61,2.18,4.23c0.01,1.1-0.31,2.21-1,3.16c-0.69,0.96-1.65,1.61-2.69,1.94c-1.54,0.49-3.29,0.27-4.7-0.76
					c-1.38-1-2.12-2.53-2.18-4.11C487.59,12.57,486.65,14.17,486.36,16.79z"/>
				<path class="st1" d="M481.58,7.41c-0.33,0.77,0.28,7.13,0.58,10.37c-1.82-3.97-2.46-11.55-2.45-11.54
					c-0.66-0.81-0.96-1.92-0.69-3.02c0.45-1.86,2.33-3.01,4.19-2.56c1.86,0.45,3.01,2.33,2.55,4.2
					C485.32,6.72,483.45,7.87,481.58,7.41z"/>
				<g>
					<path class="st1" d="M528.16,17.33c-0.52,2.29-2.8,3.72-5.08,3.2c-2.29-0.52-3.72-2.8-3.2-5.09c0.52-2.29,2.8-3.72,5.08-3.2
						C527.24,12.76,528.68,15.04,528.16,17.33z"/>
					<path class="st1" d="M533.21,17.14c-2.05-0.47-3.33-2.51-2.87-4.56c0.47-2.05,2.51-3.34,4.56-2.87
						c2.05,0.47,3.33,2.51,2.87,4.56C537.3,16.32,535.26,17.61,533.21,17.14z"/>
					<path class="st1" d="M540.72,14.33c0.38-1.66,2.03-2.69,3.68-2.32c1.66,0.38,2.69,2.03,2.32,3.68
						c-0.38,1.66-2.03,2.69-3.68,2.32C541.38,17.63,540.34,15.98,540.72,14.33z"/>
					<path class="st1" d="M549.95,23.58c-1.44-0.33-2.34-1.76-2.01-3.2c0.33-1.44,1.76-2.34,3.19-2.01c1.44,0.33,2.34,1.76,2.01,3.2
						C552.82,23,551.39,23.9,549.95,23.58z"/>
					<path class="st1" d="M555.67,28.31c-0.27,1.2-1.47,1.95-2.67,1.68c-1.2-0.27-1.95-1.47-1.68-2.67c0.27-1.2,1.47-1.95,2.67-1.68
						C555.19,25.91,555.94,27.11,555.67,28.31z"/>
					<path class="st1" d="M556.9,35.03c-0.24,1.04-1.27,1.7-2.32,1.46c-1.04-0.24-1.69-1.28-1.46-2.32c0.24-1.04,1.27-1.7,2.32-1.46
						C556.48,32.95,557.14,33.99,556.9,35.03z"/>
					<path class="st1" d="M555.95,41.04c-0.18,0.81-0.99,1.31-1.79,1.13c-0.81-0.18-1.31-0.99-1.13-1.79
						c0.18-0.81,0.99-1.31,1.79-1.13C555.63,39.43,556.13,40.23,555.95,41.04z"/>
					<path class="st1" d="M551.8,48.52c-0.12,0.53-0.65,0.86-1.17,0.74c-0.53-0.12-0.86-0.65-0.74-1.17
						c0.12-0.53,0.65-0.86,1.18-0.74C551.59,47.47,551.92,48,551.8,48.52z"/>
					<path class="st1" d="M554.2,45.07c-0.12,0.53-0.65,0.86-1.17,0.74c-0.53-0.12-0.86-0.65-0.74-1.18
						c0.12-0.53,0.65-0.86,1.18-0.74C553.98,44.02,554.32,44.54,554.2,45.07z"/>
				</g>
				<path class="st1" d="M418.34,21.79c-0.2-1.48,1.75-5.82,4.03-8.8c-2.93,0.89-3.56,1.7-5.08,4.78
					c-6.74-11.68,5.88-16.5,9.49-11.28c1.56-0.33,2.73-0.24,2.73-0.24L427.18,7c0.02,0.03,0.04,0.05,0.06,0.08
					c-0.03,0.24-0.07,0.46-0.11,0.68c2.54-1.78,5.65-2.85,9.19-3.04c-3.79-1.63-7.07-6.12-5.81-13.53
					c2.06,1.01,14.91,5.43,12.73,13.09c-0.03,0.02-0.06,0.04-0.09,0.06l2.1,1.61c0,0-1.22-0.34-2.69-1.25
					c-0.28,0.15-0.57,0.27-0.87,0.37c2.69-0.2,9.06,3.46,9.28,4.94c-0.09,0.01-0.18,0.01-0.28,0.02
					c-20.36-9.41-29.15,2.59-31.66,11.46c6.96,2.38,2.34,12,3.26,16.58C417.17,35.39,410.55,24.38,418.34,21.79z M442.13,3.78
					c0,0-7.44-5.97-8.36-7.53C435.81,0.77,438.98,2.97,442.13,3.78z M426.05,6.67c-0.28-0.68-7.48-0.51-9.02,5
					C418.03,7.98,426.05,6.67,426.05,6.67z M419.24,34.1c-1.8-3.86-1.61-8.79-0.82-11.63C416.56,26.52,416.61,30.22,419.24,34.1z"/>
				<path class="st1" d="M534.79,47.69c-3.99-4.44,0.73-8.92,3.68-7.23c0.17,4.97,8.68,5.73,9.46-2.17
					c1.42-14.23-13.86-17.13-18.05-14.65c4.97,0.28,5.33,5.94,3.41,7.76c-2.36-2.15-10.6-5.99-16.3,0.77
					c2.09-13.33,33.31-17.55,33.52,6.23C550.61,48.68,539.7,53.15,534.79,47.69z"/>
				<path class="st1" d="M489.3,55.64c-8.91-6.55-23.55-6.97-24.07-0.25c3.46,1.03,2.67,6.12,0.58,7.34
					c-3.05,1.78-6.6,0.56-7.74-1.29C450.25,48.68,474.46,37.68,489.3,55.64z"/>
				<path class="st1" d="M442.05,9.1c1.43-0.7,2.59-0.9,2.59-0.9l-2.08,1.29c0.02,0.02,0.05,0.04,0.08,0.07
					c0.81,9.04-9.81,8.43-12.91,10.89C431.08,7.75,436.92,6.13,442.05,9.1z M441.58,9.92c-2.97,0.46-6.09,2.2-8.38,6.17
					C434.19,14.74,441.58,9.92,441.58,9.92z"/>
				<path class="st1" d="M415.84,38.17c-0.23-0.81,0.36-4.71,0.36-4.71l0.5,4.68c0.02-0.02,0.03-0.05,0.05-0.07
					c8.77-0.83,5.16,10.81,9.5,13.19C414.13,50.38,411.04,40.14,415.84,38.17z M416.63,39.04c-0.15,3.72,3.34,8.42,5.95,9.52
					C421.35,48.16,417.05,41.73,416.63,39.04z"/>
				<g>
					<path class="st1" d="M459.08,35.02c0.11-0.07,0.25-0.07,0.36,0c0.04,0.03,0.08,0.06,0.11,0.11c0.04,0.07,0.06,0.14,0.05,0.22
						c-0.03,0.29-0.07,1.22,0.2,1.64c0.05,0.09,0.11,0.13,0.16,0.15c0.38-0.22,0.31-1.32,0.21-1.82c-0.03-0.13,0.02-0.26,0.13-0.34
						c0.1-0.08,0.24-0.09,0.36-0.03c0.65,0.34,1.28,1.25,1.61,1.76c0.76,1.21,2.01,3.82,1.25,5.06c-0.17,0.28-0.5,0.59-1.16,0.58
						c-0.35,0.47-1.09,1.25-2.13,1.29c-1.04,0.05-1.84-0.67-2.23-1.11c-0.7,0.06-1.06-0.26-1.25-0.55
						C455.78,40.44,457.7,35.92,459.08,35.02z"/>
					<path class="st1" d="M466.99,39.56c-1.45,0.16-3.28-2.08-4.04-3.28c-0.32-0.51-0.87-1.47-0.91-2.2
						c-0.01-0.13,0.06-0.25,0.18-0.32c0.12-0.06,0.26-0.05,0.36,0.03c0.46,0.34,1.39,0.82,1.73,0.59c0-0.05-0.02-0.12-0.07-0.21
						c-0.27-0.42-1.1-0.78-1.4-0.88c-0.07-0.03-0.14-0.08-0.18-0.14c-0.03-0.04-0.04-0.09-0.05-0.14c-0.02-0.13,0.05-0.26,0.16-0.33
						c1.4-0.87,6.31-0.68,7.28,0.85c0.19,0.3,0.32,0.76-0.03,1.37c0.23,0.54,0.54,1.56,0.05,2.49c-0.48,0.92-1.5,1.26-2.07,1.38
						C467.74,39.35,467.31,39.52,466.99,39.56z"/>
					<path class="st1" d="M461.49,31.36c0.34,0.97-0.16,2.03-1.13,2.37c-0.97,0.34-2.03-0.16-2.37-1.13
						c-0.34-0.97,0.16-2.03,1.13-2.37C460.09,29.88,461.15,30.39,461.49,31.36z"/>
					<path class="st1" d="M462.58,30.91c-0.04-0.06-0.05-0.12-0.05-0.19c0.01-0.13,0.08-0.25,0.2-0.3c0.52-0.23,1.4-0.79,1.37-1.21
						c-0.37-0.22-1.29,0.4-1.68,0.73c-0.1,0.09-0.24,0.11-0.36,0.05c-0.06-0.03-0.12-0.07-0.15-0.13c-0.03-0.05-0.05-0.11-0.05-0.17
						c-0.05-1.6,2.28-5.29,3.99-5.82c0.62-0.19,1.16,0.01,1.51,0.56c0.02,0.03,0.03,0.05,0.05,0.08c0.58,0.07,1.62,0.32,2.18,1.2
						c0.56,0.88,0.34,1.93,0.16,2.48c0.02,0.03,0.04,0.05,0.05,0.08c0.35,0.56,0.3,1.13-0.14,1.61c-1.2,1.32-5.53,1.87-6.96,1.14
						C462.65,31,462.61,30.96,462.58,30.91z"/>
					<path class="st1" d="M459.25,20.31c1.04-0.05,1.84,0.67,2.23,1.11c0.7-0.07,1.07,0.26,1.25,0.55c0.98,1.53-0.94,6.06-2.33,6.96
						c-0.11,0.07-0.25,0.07-0.36,0c-0.04-0.03-0.08-0.06-0.11-0.11c-0.04-0.07-0.06-0.14-0.05-0.22c0.04-0.31,0.07-1.22-0.2-1.64
						c-0.05-0.08-0.11-0.13-0.16-0.15c-0.38,0.22-0.31,1.32-0.21,1.82c0.03,0.13-0.02,0.26-0.13,0.34c-0.1,0.08-0.24,0.09-0.36,0.03
						c-0.65-0.35-1.28-1.25-1.61-1.76c-0.76-1.21-2.01-3.82-1.25-5.05c0.17-0.28,0.5-0.59,1.16-0.58
						C457.47,21.14,458.21,20.36,459.25,20.31z"/>
					<path class="st1" d="M452.49,24.39c1.44-0.16,3.28,2.08,4.04,3.28c0.32,0.51,0.87,1.47,0.91,2.2c0.01,0.13-0.06,0.25-0.18,0.32
						c-0.12,0.06-0.26,0.05-0.36-0.03c-0.46-0.34-1.39-0.82-1.73-0.59c0,0.05,0.02,0.12,0.07,0.21c0.27,0.42,1.1,0.78,1.4,0.88
						c0.07,0.03,0.14,0.08,0.18,0.14c0.03,0.04,0.04,0.09,0.05,0.14c0.02,0.13-0.05,0.26-0.16,0.33c-0.12,0.07-0.27,0.14-0.43,0.2
						c-1.78,0.63-5.96,0.35-6.85-1.05c-0.19-0.3-0.32-0.76,0.03-1.37c-0.23-0.54-0.54-1.56-0.05-2.49c0.48-0.92,1.5-1.26,2.07-1.38
						C451.75,24.6,452.17,24.43,452.49,24.39z"/>
					<path class="st1" d="M456.91,33.04c0.04,0.06,0.06,0.12,0.05,0.19c-0.01,0.13-0.08,0.25-0.2,0.3c-0.52,0.23-1.4,0.79-1.37,1.21
						c0.38,0.22,1.29-0.4,1.68-0.73c0.1-0.09,0.24-0.11,0.36-0.05c0.06,0.03,0.12,0.07,0.15,0.13c0.03,0.05,0.05,0.11,0.05,0.17
						c0.05,1.6-2.28,5.29-3.99,5.82c-0.63,0.19-1.16,0-1.51-0.56c0,0-0.03-0.05-0.05-0.08c-0.58-0.07-1.62-0.32-2.18-1.2l0,0
						c-0.56-0.88-0.34-1.93-0.16-2.48c-0.02-0.03-0.04-0.05-0.05-0.08c-0.35-0.55-0.3-1.13,0.14-1.61c1.2-1.32,5.53-1.87,6.96-1.14
						C456.83,32.95,456.88,32.99,456.91,33.04z"/>
				</g>
				<g>
					<path class="st1" d="M436.27,39.38c0.09-0.09,0.23-0.11,0.34-0.06c0.05,0.02,0.09,0.05,0.12,0.08c0.05,0.06,0.08,0.12,0.09,0.2
						c0.02,0.28,0.14,1.17,0.47,1.53c0.06,0.07,0.12,0.1,0.17,0.12c0.32-0.27,0.07-1.31-0.11-1.77c-0.05-0.12-0.02-0.25,0.07-0.35
						c0.09-0.09,0.22-0.12,0.34-0.09c0.67,0.22,1.43,0.98,1.83,1.41c0.93,1.02,2.56,3.3,2.04,4.61c-0.11,0.29-0.38,0.64-1.01,0.75
						c-0.25,0.5-0.83,1.37-1.81,1.59c-0.98,0.22-1.87-0.33-2.31-0.68c-0.65,0.18-1.06-0.07-1.29-0.32
						C434.03,45.11,435.1,40.47,436.27,39.38z"/>
					<path class="st1" d="M444.57,42.38c-1.35,0.4-3.47-1.43-4.4-2.45c-0.39-0.43-1.08-1.26-1.24-1.95
						c-0.03-0.12,0.02-0.25,0.11-0.33c0.1-0.08,0.24-0.09,0.35-0.04c0.49,0.24,1.46,0.55,1.75,0.27c-0.01-0.05-0.04-0.11-0.1-0.18
						c-0.33-0.35-1.18-0.56-1.48-0.6c-0.07-0.01-0.14-0.05-0.19-0.1c-0.03-0.04-0.06-0.08-0.07-0.13c-0.04-0.12,0-0.25,0.1-0.34
						c1.19-1.07,5.9-1.71,7.09-0.41c0.23,0.25,0.44,0.67,0.2,1.31c0.31,0.47,0.77,1.4,0.47,2.36c-0.3,0.96-1.22,1.45-1.74,1.66
						C445.25,42.06,444.87,42.29,444.57,42.38z"/>
					<path class="st1" d="M437.95,35.49c0.49,0.86,0.18,1.96-0.68,2.45c-0.87,0.49-1.96,0.19-2.45-0.68
						c-0.49-0.86-0.19-1.96,0.68-2.45C436.37,34.32,437.46,34.62,437.95,35.49z"/>
					<path class="st1" d="M438.91,34.88c-0.04-0.05-0.07-0.11-0.08-0.17c-0.02-0.13,0.04-0.25,0.14-0.32
						c0.46-0.3,1.21-0.99,1.11-1.38c-0.39-0.14-1.17,0.59-1.47,0.98c-0.08,0.1-0.21,0.14-0.33,0.11c-0.07-0.01-0.12-0.05-0.17-0.1
						c-0.04-0.04-0.07-0.1-0.08-0.15c-0.32-1.52,1.29-5.43,2.82-6.22c0.56-0.29,1.11-0.19,1.54,0.28c0.02,0.02,0.04,0.05,0.06,0.07
						c0.56-0.03,1.6,0.03,2.28,0.78c0.68,0.75,0.65,1.78,0.57,2.34c0.02,0.02,0.04,0.04,0.06,0.07c0.43,0.47,0.48,1.02,0.14,1.56
						c-0.92,1.46-4.96,2.71-6.44,2.25C439,34.95,438.95,34.92,438.91,34.88z"/>
					<path class="st1" d="M433.96,25.34c0.98-0.22,1.87,0.33,2.31,0.68c0.65-0.18,1.06,0.07,1.29,0.32c1.19,1.3,0.12,5.93-1.05,7.02
						c-0.09,0.09-0.23,0.11-0.34,0.06c-0.05-0.02-0.09-0.05-0.12-0.08c-0.05-0.06-0.08-0.12-0.09-0.2c-0.02-0.3-0.14-1.18-0.47-1.53
						c-0.07-0.07-0.13-0.11-0.18-0.12c-0.32,0.27-0.07,1.31,0.11,1.77c0.05,0.12,0.02,0.25-0.07,0.35
						c-0.09,0.09-0.22,0.12-0.34,0.09c-0.67-0.22-1.43-0.98-1.83-1.41c-0.93-1.02-2.56-3.3-2.04-4.61c0.11-0.29,0.38-0.64,1.01-0.75
						C432.4,26.42,432.97,25.56,433.96,25.34z"/>
					<path class="st1" d="M428.2,30.36c1.35-0.4,3.47,1.43,4.4,2.45c0.39,0.43,1.08,1.26,1.24,1.95c0.03,0.12-0.02,0.25-0.12,0.33
						c-0.1,0.08-0.24,0.09-0.35,0.04c-0.49-0.24-1.46-0.55-1.75-0.27c0.01,0.05,0.04,0.11,0.1,0.18c0.33,0.35,1.18,0.56,1.48,0.6
						c0.07,0.01,0.14,0.05,0.19,0.1c0.03,0.03,0.06,0.08,0.07,0.13c0.04,0.12,0,0.25-0.1,0.34c-0.1,0.09-0.23,0.18-0.38,0.26
						c-1.59,0.9-5.62,1.34-6.71,0.15c-0.23-0.25-0.44-0.67-0.2-1.31c-0.31-0.47-0.77-1.4-0.47-2.36c0.3-0.96,1.22-1.45,1.74-1.66
						C427.53,30.68,427.9,30.45,428.2,30.36z"/>
					<path class="st1" d="M433.87,37.87c0.04,0.05,0.07,0.11,0.08,0.17c0.02,0.13-0.04,0.25-0.14,0.32
						c-0.46,0.3-1.21,0.99-1.11,1.38c0.4,0.14,1.17-0.59,1.47-0.98c0.08-0.1,0.21-0.14,0.33-0.11c0.07,0.01,0.12,0.05,0.17,0.1
						c0.04,0.04,0.07,0.09,0.08,0.15c0.32,1.52-1.29,5.43-2.82,6.21c-0.56,0.29-1.11,0.19-1.54-0.28c0,0-0.04-0.04-0.06-0.07
						c-0.56,0.03-1.6-0.03-2.28-0.78l0,0c-0.68-0.74-0.65-1.78-0.57-2.34c-0.02-0.02-0.04-0.05-0.06-0.07
						c-0.43-0.47-0.48-1.02-0.14-1.56c0.92-1.46,4.96-2.71,6.44-2.25C433.78,37.79,433.83,37.82,433.87,37.87z"/>
				</g>
				<g>
					<path class="st1" d="M451.1,63.69c-1.16,0.13-2.64-1.67-3.26-2.65c-0.26-0.41-0.7-1.19-0.73-1.78
						c-0.01-0.11,0.05-0.2,0.14-0.25c0.09-0.05,0.21-0.04,0.29,0.02c0.37,0.27,1.12,0.66,1.4,0.47c0-0.04-0.01-0.1-0.06-0.17
						c-0.22-0.34-0.89-0.63-1.13-0.71c-0.06-0.02-0.11-0.06-0.14-0.11c-0.02-0.03-0.04-0.07-0.04-0.11
						c-0.01-0.11,0.04-0.21,0.13-0.26c1.13-0.7,5.08-0.55,5.87,0.69c0.15,0.24,0.26,0.62-0.03,1.1c0.19,0.43,0.43,1.26,0.04,2
						c-0.39,0.74-1.21,1.02-1.67,1.11C451.7,63.52,451.36,63.66,451.1,63.69z"/>
					<path class="st1" d="M446.67,57.08c0.28,0.78-0.13,1.63-0.91,1.91c-0.78,0.28-1.63-0.13-1.91-0.91
						c-0.28-0.78,0.13-1.64,0.91-1.91C445.53,55.89,446.39,56.3,446.67,57.08z"/>
					<path class="st1" d="M447.54,56.71c-0.03-0.05-0.04-0.1-0.04-0.15c0-0.11,0.07-0.2,0.16-0.24c0.42-0.18,1.13-0.64,1.11-0.97
						c-0.3-0.18-1.04,0.32-1.35,0.59c-0.08,0.07-0.19,0.09-0.29,0.04c-0.05-0.02-0.09-0.06-0.12-0.1c-0.02-0.04-0.04-0.09-0.04-0.14
						c-0.04-1.29,1.84-4.26,3.21-4.69c0.5-0.16,0.94,0,1.22,0.45c0.01,0.02,0.03,0.04,0.04,0.07c0.47,0.06,1.31,0.26,1.76,0.96
						c0.45,0.71,0.27,1.55,0.13,2c0.02,0.02,0.03,0.04,0.04,0.06c0.28,0.45,0.25,0.91-0.11,1.3c-0.97,1.06-4.45,1.5-5.61,0.92
						C447.6,56.79,447.56,56.76,447.54,56.71z"/>
					<path class="st1" d="M444.86,48.18c0.84-0.04,1.48,0.54,1.79,0.89c0.56-0.05,0.86,0.21,1.01,0.45
						c0.79,1.24-0.76,4.88-1.88,5.61c-0.09,0.06-0.2,0.06-0.29,0c-0.04-0.02-0.07-0.05-0.09-0.08c-0.03-0.05-0.05-0.11-0.04-0.18
						c0.03-0.25,0.05-0.98-0.16-1.32c-0.04-0.07-0.09-0.1-0.13-0.12c-0.3,0.17-0.25,1.06-0.17,1.46c0.02,0.1-0.02,0.21-0.11,0.27
						c-0.08,0.06-0.2,0.07-0.29,0.02c-0.52-0.28-1.04-1.01-1.3-1.42c-0.62-0.97-1.62-3.07-1.01-4.07c0.14-0.22,0.41-0.47,0.93-0.47
						C443.43,48.84,444.02,48.21,444.86,48.18z"/>
					<path class="st1" d="M439.41,51.46c1.16-0.13,2.64,1.67,3.26,2.65c0.26,0.41,0.7,1.19,0.73,1.78c0,0.1-0.05,0.2-0.14,0.26
						c-0.09,0.05-0.21,0.04-0.29-0.02c-0.37-0.27-1.12-0.66-1.4-0.47c0,0.04,0.01,0.1,0.06,0.17c0.22,0.34,0.89,0.63,1.13,0.71
						c0.06,0.02,0.11,0.06,0.14,0.11c0.02,0.03,0.04,0.07,0.04,0.11c0.01,0.11-0.04,0.21-0.13,0.26c-0.1,0.06-0.21,0.11-0.35,0.16
						c-1.43,0.51-4.8,0.28-5.52-0.85c-0.15-0.24-0.26-0.62,0.03-1.1c-0.19-0.43-0.43-1.26-0.04-2c0.39-0.74,1.21-1.01,1.67-1.11
						C438.81,51.63,439.15,51.49,439.41,51.46z"/>
					<path class="st1" d="M442.97,58.44c0.03,0.05,0.04,0.1,0.04,0.15c0,0.11-0.07,0.2-0.16,0.24c-0.42,0.18-1.13,0.64-1.11,0.97
						c0.3,0.17,1.04-0.32,1.35-0.59c0.08-0.07,0.19-0.09,0.29-0.04c0.05,0.02,0.09,0.06,0.12,0.1c0.03,0.04,0.04,0.09,0.04,0.14
						c0.04,1.29-1.84,4.26-3.21,4.69c-0.5,0.16-0.94,0-1.22-0.45c0,0-0.03-0.04-0.04-0.07c-0.47-0.06-1.31-0.26-1.76-0.96l0,0
						c-0.45-0.71-0.27-1.55-0.13-2c-0.02-0.02-0.03-0.04-0.04-0.06c-0.28-0.45-0.24-0.91,0.11-1.3c0.97-1.06,4.45-1.5,5.61-0.92
						C442.91,58.36,442.95,58.4,442.97,58.44z"/>
				</g>
				<path class="st1" d="M519.34,74.4c-15.99-9.46-23.35-19.2-24.54-22.71s-4.73-12.16-0.58-23.6c7.27,5.58,8.94,7.44,11.74,13.31
					C508.67,47.13,508.6,61.9,519.34,74.4c-8.51-6.99-11.33-9.13-19.49-26.95C498.4,60.36,515.26,69.97,519.34,74.4z"/>
				<path class="st1" d="M481.93-8.8c-13.54,7.91-2.33,32.61-2.33,32.61l-1.18,3.29c0.01,0.45-0.04,0.9-0.19,1.33
					c-0.37-6.1-10-7.37-14.21-20.24S468.66-14.78,481.93-8.8z M470.03,14.14c1.56,2.69,4.64,5.69,6.6,8.57
					c-3.27-6.35-9.73-17.49-6.08-26.68C465.28-0.19,467.38,9.58,470.03,14.14z"/>
				<path class="st1" d="M506,13.02c8.13,2.14,10.35,8.63,10.17,13.25c-0.14,3.72-1.53,8.96-5.67,15.75
					c1.26-5.21,3.12-15.24,0.1-19.58c0.56,2.1-1.83,16.45-0.93,20.91c-0.1,0.16-0.21,0.32-0.31,0.49
					C500.42,29.04,506.36,19.56,506,13.02z"/>
				<path class="st1" d="M457.58-1.49c2.94,2.05,4.29,6.51,5.56,13.52c-11.99-5.75-15.68-11.01-19.38-14.49
					C449.47-5.62,453.79-4.13,457.58-1.49z M463,11.26c0,0-3.7-10.11-11.47-11.92C456.57,3.39,461.3,9.69,463,11.26z"/>
				<g>
					<path class="st1" d="M466.12,16.62l-0.73-0.58C465.63,16.24,465.87,16.43,466.12,16.62z"/>
					<path class="st1" d="M452.33,10.84c-0.09-0.04-0.17-0.08-0.25-0.12c3.27-0.01,6.4,0.9,9.3,2.59c1.4,0.81,2.72,1.75,4,2.74
						c0,0-10.22-6.86-15.45-0.56c7.55-3.92,16.19,1.14,16.19,1.14c-5.16-1.45-11.71-0.09-19.64,6.84
						C443.95,16.55,448.75,10.62,452.33,10.84z"/>
				</g>
				<path class="st1" d="M520.12,40.87c-6.31,2.89-7.69,11-3.59,22.73c-4.52-6.47-5.1-15.37-4.35-18.8
					c0.75-3.44,6.84-13.12,17.3-5.43c-7.66,2.53-14.4,13.32-12.95,24.23C516.53,63.6,511.96,46.28,520.12,40.87z"/>
				<path class="st1" d="M515.27-12.4c-12.03-3.91-21.42,7.82-21.42,7.82c18.82-28.16,45.49,0.33,22.94,7
					c5.69-12.77-11.34-14.54-21.05-8.37C500.18-9.73,506.91-13.53,515.27-12.4z"/>
				<path class="st1" d="M535.36,54.1c-10.61,5.91-6.63,15.65,7.32,20.06c-0.04,0.01-0.08,0.02-0.12,0.03
					c-4.03-0.81-16.68-4.13-17.36-13.9c0.4,11.67,12.68,13.5,17.07,13.96c-3.95,0.58-18.38-1.19-21.15-10.87
					C518.66,54.82,527.46,49.14,535.36,54.1z"/>
				<path class="st1" d="M480.2,27.09c2.84-5.97,11.27-12.41,18.2-3.4c-12.15,0.12-17.76,20.22-1.81,33.68
					c0,0-18.77-13.27-11.75-29.23c-9.57,18.22,11.75,29.23,11.75,29.23C483.16,51.73,475.25,37.49,480.2,27.09z"/>
			</g>
		</g>
	</g>
</g>
</svg>
