<?xml version="1.0" encoding="utf-8"?>
<!-- Generator: Adobe Illustrator 22.1.0, SVG Export Plug-In . SVG Version: 6.00 Build 0)  -->
<svg version="1.0" id="Layer_1" xmlns="http://www.w3.org/2000/svg" xmlns:xlink="http://www.w3.org/1999/xlink" x="0px" y="0px"
	 viewBox="0 0 344.5 96.4" style="enable-background:new 0 0 344.5 96.4;" xml:space="preserve">
<style type="text/css">
	.st0{fill:#00B33C;}
</style>
<path class="st0" d="M52.9,73h-15c-23.4,0-6.4-49.7,13.3-49.7h23.7c3.8,0,10.5,0.7,13.8-8.7L93.8,0H61.3C43.7,0,30,6.2,20.1,16.6
	C3,34.4-2.8,62.2,1.3,75.5c3.9,12.3,14.5,20.4,31.1,20.6l12.9,0.1h15.9l3.9-11.7C68,76.2,61.5,73,52.9,73L52.9,73z M235.5,52.4
	l4.9-15.9h-52.3c-8.7,0-12.6,2.4-14.1,7.4l-4.9,15.9h52.3C230.1,59.8,234,57.4,235.5,52.4z M161.3,80.4l-4.9,15.9h52.3
	c8.6,0,12.6-2.4,14.1-7.4l4.9-15.9h-52.3C166.8,73,162.9,75.4,161.3,80.4z M247.7,16l4.9-15.9h-52.3c-8.7,0-12.6,2.4-14.1,7.4
	l-4.9,15.9h52.3C242.2,23.4,246.1,21,247.7,16L247.7,16z M168.7,19.2c-2.2-14.8-10.1-19.1-29.3-19.1h-35L84,59.8h12.9
	c7.7,0,11.6,0.1,15.7-10.9l8.5-25.6h13c11.1,0,8.6,13.9,3,27.4c-5,11.9-13.7,22.4-24.2,22.4H91.2c-8.7,0-12.7,2.4-14.3,7.4
	l-5.4,15.9h15.9l15.6-0.1c13.8-0.1,25.1-1.1,38.3-13C155.3,70.6,171.5,38,168.7,19.2L168.7,19.2z M344.5,0h-30.3l-28.5,30.3
	c-3.3,3.5-6.7,7-10,11.1h-0.3L289.6,0h-24.7l-33.3,96.3h24.7L266.9,66l11-9.3l8.7,27.4c2.7,8.5,5.5,12.2,11.5,12.2H317l-19.4-53.8
	L344.5,0L344.5,0z"/>
</svg>
