<svg width="27" height="27" viewBox="0 0 27 27" fill="none" xmlns="http://www.w3.org/2000/svg">
<path d="M15.4728 11.5274C14.4262 10.4812 13.007 9.89355 11.5272 9.89355C10.0474 9.89355 8.62813 10.4812 7.58153 11.5274L3.6346 15.4731C2.58798 16.5197 2 17.9392 2 19.4193C2 20.8995 2.58798 22.319 3.6346 23.3656C4.68122 24.4123 6.10075 25.0002 7.58089 25.0002C9.06103 25.0002 10.4806 24.4123 11.5272 23.3656L13.5 21.3928" stroke="#2D3344" stroke-width="3" stroke-linecap="round" stroke-linejoin="round"/>
<path d="M11.5273 15.4728C12.5739 16.519 13.9932 17.1067 15.473 17.1067C16.9528 17.1067 18.372 16.519 19.4186 15.4728L23.3656 11.5272C24.4122 10.4806 25.0002 9.06103 25.0002 7.58089C25.0002 6.10075 24.4122 4.68122 23.3656 3.6346C22.3189 2.58798 20.8994 2 19.4193 2C17.9391 2 16.5196 2.58798 15.473 3.6346L13.5002 5.60743" stroke="#2D3344" stroke-width="3" stroke-linecap="round" stroke-linejoin="round"/>
</svg>
