<?xml version="1.0" encoding="utf-8"?>
<!-- Generator: Adobe Illustrator 22.1.0, SVG Export Plug-In . SVG Version: 6.00 Build 0)  -->
<svg version="1.0" id="Layer_1" xmlns="http://www.w3.org/2000/svg" xmlns:xlink="http://www.w3.org/1999/xlink" x="0px" y="0px"
	 viewBox="0 0 465.4 70.7" style="enable-background:new 0 0 465.4 70.7;" xml:space="preserve">
<style type="text/css">
	.st0{fill:#FAAE00;}
</style>
<path d="M350.9,54.6V38.7H345v24.7h5l14.3-16.1v16.1h5.9V38.7h-5L350.9,54.6z M414.3,54.8V38.7h-5.9v24.7h5l14.3-16.2v16.2h5.9V38.7
	h-5.2L414.3,54.8z M395.8,48.3h-13v-9.6h-5.9v24.7h5.9v-9.7h13v9.7h5.9V38.7h-5.9V48.3z M323.7,38.7l-14.2,24.7h7l9.3-16.3l9.4,16.3
	h7.3l-14.2-24.7H323.7z M460.2,38.7l-14,16.1V38.7h-5.9v24.7h5l14.3-16.2v16.2h5.9V38.7H460.2z M316.4,38.7h-27.6v5.4h24.4
	L316.4,38.7z M288.9,48.3v5.4h18.9l3.2-5.4H288.9z M158.2,38.7h-27.6v5.4H155L158.2,38.7z M108.6,33.3h-4.8L89.6,58H86v12.7h5.6
	v-7.3h29v7.3h5.6V58h-3.6L108.6,33.3z M96.7,58l9.3-16.3l9.4,16.3H96.7z M199.3,38.1c-9.9,0-14.6,6.1-14.6,12.8
	c0,7.1,4.6,12.8,14.6,12.8c4.4,0,14.5-2,14.5-12.8C213.7,43.9,209.2,38.1,199.3,38.1z M199.2,58.3c-5.7,0-8.1-3.3-8.1-7.3
	c0-4.4,2.8-7.4,8.1-7.4c6.1,0,8.1,3,8.1,7.4C207.3,56.3,203.4,58.3,199.2,58.3z M165.5,38.7l-14.2,24.7h7l9.3-16.3l9.4,16.3h7.3
	l-14.2-24.7H165.5z M276.3,63.4h5.9V38.7h-5.9V63.4z M265.1,47.6h-9v-8.9h-5.9v24.7h4.6h1.3h8.9c4,0,8.2-2.2,8.2-8.1
	C273.3,47.7,267.9,47.6,265.1,47.6z M264.8,58.2h-8.7v-5.5h8.7c1,0,2.6,0.3,2.6,2.8C267.4,57.7,266.1,58.2,264.8,58.2z M130.6,48.3
	v5.4h18.9l3.2-5.4H130.6z M288.9,63.4h13.4l3.1-5.4h-16.5V63.4z M239.6,48.8c1.6-0.7,2.9-1.7,2.9-4.4c0-5.1-4.3-5.7-7.3-5.7h-16
	v24.7h16.3c7.5,0,9-4.1,9-7.9C244.4,51.3,242,49.6,239.6,48.8z M225,43.9h9.5c1.4,0,2,0.7,2,2.2c0,1.5-0.9,2.2-2,2.2H225V43.9z
	 M235.4,58.2H225v-5.3h10.4c1.7,0,2.9,0.4,2.9,2.6C238.3,57.3,237.6,58.2,235.4,58.2z M130.6,63.4H144l3.1-5.4h-16.5V63.4z"/>
<path class="st0" d="M46.1,44.8L21.5,26.5l-6,10.4l28.1,12.2L46.1,44.8z M49.8,38.3L28.8,13.9l-6,10.3l24.6,18.3L49.8,38.3z
	 M54.4,30.4L36.8,0l-6.6,11.5l21.1,24.3L54.4,30.4z M6.8,52L0.1,63.5h35.1l3.1-5.4L6.8,52z M38.3,63.5h9.3l8.2-14.2l8.2,14.2h9.3
	L55.9,33.1L38.3,63.5z M42.2,51.4L14.1,39.3l-6,10.3l31.6,6.1L42.2,51.4z"/>
</svg>
