<svg width="24" height="24" viewBox="0 0 24 24" fill="none" xmlns="http://www.w3.org/2000/svg">
<path d="M12 2C17.5 2 22 6.5 22 12C22 17.5 17.5 22 12 22C6.5 22 2 17.5 2 12C2 6.5 6.5 2 12 2ZM12 0C5.4 0 0 5.4 0 12C0 18.6 5.4 24 12 24C18.6 24 24 18.6 24 12C24 5.4 18.6 0 12 0Z" fill="#2E3346"/>
<path d="M9.39999 8.99989V9.69989L10.5 9.49989C10.5 9.49989 11.3 9.29989 11.1 9.99989C11 10.7999 9.59999 17.6999 9.59999 17.6999C9.59999 17.6999 8.99999 19.8999 10.9 19.6999C12.8 19.4999 13.3 19.3999 13.3 19.3999V18.4999C13.3 18.4999 11.6 18.8999 11.8 17.9999C12 16.9999 13.3 10.0999 13.3 10.0999C13.3 10.0999 13.7 8.29989 12.3 8.49989" fill="#2E3346"/>
<path d="M13.1 7.2998C13.9284 7.2998 14.6 6.62823 14.6 5.7998C14.6 4.97138 13.9284 4.2998 13.1 4.2998C12.2716 4.2998 11.6 4.97138 11.6 5.7998C11.6 6.62823 12.2716 7.2998 13.1 7.2998Z" fill="#2E3346"/>
</svg>
