<svg width="31" height="31" viewBox="0 0 31 31" fill="none" xmlns="http://www.w3.org/2000/svg">
<path d="M22.4266 0H8.57344C3.82656 0 0 3.82656 0 8.57344V22.475C0 27.1734 3.82656 31 8.57344 31H22.475C27.1734 31 31 27.1734 31 22.4266V8.57344C31 3.82656 27.1734 0 22.4266 0ZM28.2391 22.4266C28.2391 25.6234 25.6234 28.2391 22.4266 28.2391H8.57344C5.37656 28.2391 2.76094 25.6234 2.76094 22.4266V8.57344C2.76094 5.37656 5.37656 2.76094 8.57344 2.76094H22.475C25.6719 2.76094 28.2875 5.37656 28.2875 8.57344V22.4266H28.2391Z" fill="#DEE0E2"/>
<path d="M15.5 7.50781C11.0922 7.50781 7.50781 11.0922 7.50781 15.5C7.50781 19.9078 11.0922 23.4922 15.5 23.4922C19.9078 23.4922 23.4922 19.9078 23.4922 15.5C23.4922 11.0922 19.9078 7.50781 15.5 7.50781ZM15.5 20.7312C12.5937 20.7312 10.2687 18.4062 10.2687 15.5C10.2687 12.5937 12.6422 10.2687 15.5 10.2687C18.3578 10.2687 20.7312 12.5937 20.7312 15.5C20.7312 18.4062 18.4062 20.7312 15.5 20.7312Z" fill="#DEE0E2"/>
<path d="M23.8312 5.18284C23.2984 5.18284 22.7656 5.37659 22.4266 5.76409C22.0391 6.15159 21.8453 6.63597 21.8453 7.16878C21.8453 7.70159 22.0391 8.23441 22.4266 8.57347C22.8141 8.96097 23.2984 9.15472 23.8312 9.15472C24.3641 9.15472 24.8969 8.96097 25.2359 8.57347C25.6234 8.18597 25.8172 7.65316 25.8172 7.16878C25.8172 6.63597 25.6234 6.10316 25.2359 5.76409C24.8969 5.37659 24.3641 5.18284 23.8312 5.18284Z" fill="#DEE0E2"/>
</svg>
