<svg width="107" height="108" viewBox="0 0 107 108" fill="none" xmlns="http://www.w3.org/2000/svg">
<path d="M53.5002 97.8C77.4663 97.8 96.8946 78.19 96.8946 54C96.8946 29.8099 77.4663 10.2 53.5002 10.2C29.5341 10.2 10.1057 29.8099 10.1057 54C10.1057 78.19 29.5341 97.8 53.5002 97.8Z" fill="#4F8CC8"/>
<path opacity="0.9" d="M53.5 0C23.9264 0 0 24.15 0 54C0 83.85 23.9264 108 53.5 108C83.0736 108 107 83.85 107 54C107 24.15 83.0736 0 53.5 0ZM53.5 97.8C29.425 97.8 10.1056 78.3 10.1056 54C10.1056 29.7 29.425 10.05 53.5 10.05C77.575 10.05 96.8944 29.7 96.8944 54C96.8944 78.3 77.575 97.8 53.5 97.8Z" fill="white"/>
<path d="M38.936 75V33L76.8319 54" fill="white"/>
</svg>
