<svg width="303" height="46" viewBox="0 0 303 46" fill="none" xmlns="http://www.w3.org/2000/svg">
<path opacity="0.75" d="M0 0V46H45.9818L0 0Z" fill="#1565C0"/>
<path d="M45.9818 0H0V46L45.9818 0Z" fill="#1976D2"/>
<path d="M213.226 9.17914C206.344 9.17914 200.401 14.7075 200.401 21.5918V36.7166H205.927V31.2925H220.629V36.8209H226.155V21.5918C226.051 14.7075 220.108 9.17914 213.226 9.17914ZM220.525 25.7642H205.823V21.5918C205.823 17.8367 209.368 14.7075 213.122 14.7075C216.875 14.7075 220.525 17.8367 220.525 21.5918V25.7642Z" fill="#FF5722"/>
<path d="M289.55 9.17914C282.668 9.17914 276.725 14.7075 276.725 21.5918V36.7166H282.251V31.2925H296.953V36.8209H302.479V21.5918C302.374 14.7075 296.327 9.17914 289.55 9.17914ZM296.848 25.7642H282.147V21.5918C282.147 17.8367 285.692 14.7075 289.445 14.7075C293.199 14.7075 296.744 17.8367 296.744 21.5918V25.7642H296.848Z" fill="#FF5722"/>
<path d="M157.13 9.17914C149.519 9.17914 143.367 15.3333 143.367 22.9478C143.367 30.5624 149.519 36.7166 157.13 36.7166C164.742 36.7166 170.894 30.5624 170.894 22.9478C170.998 15.3333 164.742 9.17914 157.13 9.17914ZM157.13 31.2925C152.543 31.2925 148.893 27.5374 148.893 23.0522C148.893 18.4626 152.647 14.8118 157.13 14.8118C161.718 14.8118 165.368 18.5669 165.368 23.0522C165.472 27.5374 161.718 31.2925 157.13 31.2925Z" fill="#1976D2"/>
<path d="M137.528 21.4875C138.258 20.2358 138.571 18.8798 138.571 17.4195C138.571 12.8299 134.817 9.17914 130.334 9.17914H119.49V36.7166H133.045C137.633 36.7166 141.282 32.9614 141.282 28.4762C141.386 25.5556 139.822 23.0522 137.528 21.4875ZM125.016 14.7075H130.334C131.898 14.7075 133.045 15.9592 133.045 17.4195C133.045 18.8798 131.794 20.1315 130.334 20.1315H125.016V14.7075ZM133.045 31.2925H124.912V25.7642H133.045C134.609 25.7642 135.756 27.0159 135.756 28.4762C135.86 30.0408 134.609 31.2925 133.045 31.2925Z" fill="#1976D2"/>
<path d="M102.495 9.17914C94.883 9.17914 88.7313 15.3333 88.7313 22.9478C88.7313 30.5624 94.883 36.7166 102.495 36.7166C110.106 36.7166 116.258 30.5624 116.258 22.9478C116.258 15.3333 110.106 9.17914 102.495 9.17914ZM102.495 31.2925C97.9068 31.2925 94.2574 27.5374 94.2574 23.0522C94.2574 18.4626 98.011 14.8118 102.495 14.8118C107.082 14.8118 110.732 18.5669 110.732 23.0522C110.732 27.5374 107.082 31.2925 102.495 31.2925Z" fill="#1976D2"/>
<path d="M243.568 20.2358L237.208 20.1315C235.644 20.1315 234.497 18.8798 234.497 17.4195C234.497 15.9592 235.748 14.7075 237.208 14.7075H247.321L250.971 9.17914H237.208C232.62 9.17914 228.97 12.9342 228.97 17.4195C228.97 21.6961 232.203 25.2426 236.373 25.6599V25.7642H242.838C244.402 25.7642 245.549 27.0159 245.549 28.4762C245.549 30.0408 244.298 31.1882 242.838 31.1882H232.515L228.866 36.7166H242.629C247.217 36.7166 250.867 32.9614 250.867 28.4762C250.867 24.1995 247.634 20.7574 243.568 20.2358Z" fill="#FF5722"/>
<path d="M260.042 9.17914C255.454 9.17914 251.805 12.9342 251.805 17.4195C251.805 21.6961 255.037 25.2426 259.208 25.6599V25.7642H265.672C267.236 25.7642 268.383 27.0159 268.383 28.4762C268.383 30.0408 267.132 31.1882 265.672 31.1882H255.454L251.805 36.7166H265.568C270.156 36.7166 273.805 32.9614 273.805 28.4762C273.805 24.1995 270.573 20.6531 266.402 20.2358V20.1315H259.938C258.374 20.1315 257.227 18.8798 257.227 17.4195C257.227 15.9592 258.478 14.7075 259.938 14.7075H270.052L273.701 9.17914H260.042Z" fill="#FF5722"/>
<path d="M197.273 9.17914L186.012 21.1746L197.586 36.7166H191.121L182.363 25.034L180.173 27.746V36.7166H174.647V9.17914H180.173V20.0272L190.079 9.17914H197.273Z" fill="#FF5722"/>
<path d="M69.8589 36.8209H64.3328V9.17914H77.3661C79.66 9.17914 81.6411 10.0136 83.4136 11.5782C85.0819 13.1429 86.4374 15.542 86.5416 17.941C86.5416 20.0272 86.0203 21.8005 84.6648 23.4694C83.4136 25.034 82.0582 26.2857 80.0771 26.7029L86.9587 36.8209H80.4942L74.0296 27.2245C73.8211 26.9116 73.404 26.7029 72.8827 26.7029H69.8589V36.8209ZM69.8589 21.5918H77.1576C79.1387 21.5918 80.807 19.9229 80.807 17.941C80.807 15.9592 79.243 14.2902 77.1576 14.2902H69.8589V21.5918Z" fill="#1976D2"/>
</svg>
