<svg width="38" height="32" viewBox="0 0 38 32" fill="none" xmlns="http://www.w3.org/2000/svg">
<path d="M28.3219 6.07714C23.5962 -0.0132551 14.8379 -1.87766 7.90689 2.09974C0.345759 6.38787 -2.23763 15.9585 2.11002 23.4161C6.45767 30.8738 16.1611 33.4218 23.7222 29.1336C27.3768 27.0206 29.8972 23.6647 30.9683 19.9359L34.2448 25.7777L37.7733 22.111C37.8364 22.0489 30.4643 8.25228 28.3219 6.07714ZM20.5718 23.6647C16.0351 26.2127 10.2382 24.7212 7.65485 20.2466C5.07146 15.7721 6.58369 10.0545 11.1204 7.50652C15.657 4.9585 21.4539 6.45002 24.0373 10.9246C26.6207 15.337 25.0454 21.0545 20.5718 23.6647Z" fill="white"/>
</svg>
