<svg width="64" height="65" viewBox="0 0 64 65" fill="none" xmlns="http://www.w3.org/2000/svg">
<g clip-path="url(#clip0)">
<path d="M63.8 30H60.7V15.8C60.7 12.4 57.9 9.6 54.5 9.6H50.3L46 1.9C45.4 0.7 44.2 0 42.8 0C42.2 0 41.5 0.2 41 0.5L24.6 9.6H6.2C2.8 9.6 0 12.4 0 15.8V58.3C0 61.7 2.8 64.5 6.2 64.5H54.6C58 64.5 60.8 61.7 60.8 58.3V45.8H63.9V30H63.8ZM54.6 12.1C56.5 12.1 58.1 13.5 58.3 15.4H53.6L51.8 12.1H54.6ZM42.2 2.6C42.8 2.3 43.6 2.5 43.9 3.1L50.7 15.4H19.3L42.2 2.6ZM58.3 58.3C58.3 60.3 56.6 62 54.6 62H6.2C4.2 62 2.5 60.3 2.5 58.3V15.8C2.5 13.8 4.2 12.1 6.2 12.1H20.1L14.2 15.4H7C6.3 15.4 5.8 16 5.8 16.6C5.8 17.3 6.4 17.8 7 17.8H58.3V30H49.3C45.1 30 41.7 33.4 41.7 37.6V38.1C41.7 42.3 45.1 45.7 49.3 45.7H58.3V58.3ZM61.4 43.3H49.2C46.4 43.3 44.1 41 44.1 38.2V37.7C44.1 34.9 46.4 32.6 49.2 32.6H61.3V43.3H61.4ZM53 38C53 39.5 51.8 40.7 50.3 40.7C48.8 40.7 47.6 39.5 47.6 38C47.6 36.5 48.8 35.3 50.3 35.3C51.8 35.3 53 36.5 53 38Z" fill="#323743"/>
</g>
<defs>
<clipPath id="clip0">
<rect width="64" height="64.5" fill="white"/>
</clipPath>
</defs>
</svg>
