<svg width="72" height="67" viewBox="0 0 72 67" fill="none" xmlns="http://www.w3.org/2000/svg">
<path d="M35.9955 46.5388C33.9752 46.5388 32.3157 48.2705 32.3157 50.2908C32.3157 52.3111 33.9752 54.0428 35.9955 54.0428C37.9436 54.0428 39.6753 52.3111 39.6032 50.4351C39.7475 48.1983 38.0158 46.5388 35.9955 46.5388Z" fill="#333844"/>
<path d="M70.2683 59.7429C72.5772 55.7023 72.5772 50.868 70.2683 46.8996L47.1071 6.49379C44.7982 2.45321 40.6855 0 35.9955 0C31.3056 0 27.265 2.45321 24.9561 6.49379L1.72276 46.8996C-0.586141 50.9402 -0.586141 55.7744 1.79492 59.815C4.10382 63.7834 8.21655 66.1645 12.8344 66.1645H59.1567C63.7745 66.2366 67.9594 63.7834 70.2683 59.7429ZM65.2176 56.7846C63.9188 59.0213 61.6821 60.3201 59.0846 60.3201H12.8344C10.309 60.3201 8.07225 59.0213 6.77349 56.8567C5.47473 54.62 5.47473 52.0225 6.77349 49.7857L30.0068 9.37992C31.2334 7.14317 33.5423 5.84441 36.0677 5.84441C38.5931 5.84441 40.902 7.14317 42.1286 9.37992L65.3619 49.7857C66.5163 51.9503 66.5164 54.5478 65.2176 56.7846Z" fill="#333844"/>
<path d="M35.1295 20.4193C33.3979 20.9244 32.2434 22.5117 32.2434 24.4599C32.3156 25.6143 32.3877 26.8409 32.4599 27.9954C32.6763 32.4689 32.9649 36.8702 33.1814 41.3437C33.2536 42.8589 34.408 43.9412 35.9232 43.9412C37.4384 43.9412 38.5929 42.7868 38.665 41.1994C38.665 40.2614 38.665 39.3956 38.7372 38.4576C38.8815 35.5715 39.098 32.6853 39.2423 29.8714C39.3144 27.9954 39.4587 26.1194 39.603 24.3156C39.603 23.6662 39.5309 23.0168 39.2423 22.4396C38.5929 20.8522 36.8612 19.9864 35.1295 20.4193Z" fill="#333844"/>
</svg>
