<svg width="89" height="38" viewBox="0 0 89 38" fill="none" xmlns="http://www.w3.org/2000/svg">
<g clip-path="url(#clip0_5260_24899)">
<path d="M30.632 4.01303C27.4158 1.50619 23.3825 0 18.9896 0C8.50104 0 0 8.50662 0 19C0 29.4934 8.50104 38 18.9896 38C23.7921 38 28.1642 36.2026 31.5094 33.2588H17.7609L17.7193 29.2188C26.0021 22.0124 31.0811 17.1402 31.0811 12.4323C31.0811 10.6827 30.4158 8.47542 27.4179 8.47542C25.0457 8.47542 22.7568 9.85054 23.1726 15.5986H18.343C17.1351 8.93518 20.7568 3.6448 27.6653 3.6448C28.738 3.64688 29.7276 3.77587 30.632 4.01303ZM37.9771 19C37.9771 16.6617 37.5343 14.4336 36.763 12.3657C36.5593 19.1727 29.6445 24.4422 25.5863 27.9289H35.7464C37.1663 25.2661 37.9771 22.2287 37.9771 19Z" fill="#A7ADB8"/>
<path d="M68.7186 31.6089H64.1884V4.72017H68.7186V31.6089ZM68.7186 31.6089H64.1884V4.72017H68.7186V31.6089ZM88.9993 24.5398C89.1905 14.0153 77.1386 17.5103 77.2529 11.6332C77.2903 9.5591 78.6354 8.21518 80.8246 8.21518C83.1656 8.21518 84.5481 9.59863 84.5086 13.2101H88.9244C89.0408 9.94397 88.2716 4.37483 80.9785 4.37483C76.4483 4.37483 72.7248 6.6029 72.6479 11.5583C72.4566 21.6606 84.5876 18.357 84.3943 24.4649C84.3173 26.9614 82.5128 28.0744 80.4774 28.0744C78.097 28.0744 76.1781 26.6909 76.5627 22.5427H72.1094C71.6105 28.0369 74.0304 31.9543 80.44 31.9543C85.8517 31.9563 88.9223 28.9585 88.9993 24.5398ZM55.5897 13.1332H60.0803C60.2342 9.71513 59.0824 4.29785 51.6749 4.29785C46.2238 4.29785 42.2695 7.56403 42.2695 14.3627C42.2695 15.2843 42.307 20.0483 42.307 23.0066C42.307 30.3836 47.413 31.9959 51.7124 31.9959C54.2841 31.9959 58.0076 31.4196 59.7352 29.5369V17.7828H51.2903V22.0476H55.0533V27.2339C52.2113 28.195 47.0304 28.5778 47.0304 22.0476V14.3606C47.0304 9.79002 49.1427 8.21518 51.4837 8.21518C53.9015 8.21518 55.5897 9.44468 55.5897 13.1332Z" fill="#A7ADB8"/>
</g>
<defs>
<clipPath id="clip0_5260_24899">
<rect width="89" height="38" fill="white"/>
</clipPath>
</defs>
</svg>
