<svg width="193" height="183" viewBox="0 0 193 183" fill="none" xmlns="http://www.w3.org/2000/svg">
<path opacity="0.5" d="M153.344 146.348L109.247 171.856C107.251 173.016 104.29 173.145 102.616 172.114L5.85826 116.267C4.12011 115.301 4.37761 113.562 6.3089 112.402L50.4066 86.8944C52.4023 85.735 55.3636 85.6061 57.0374 86.6368L153.859 142.484C155.533 143.45 155.34 145.189 153.344 146.348Z" fill="#13247A"/>
<path d="M155.018 127.604L145.941 125.994L57.1018 74.7202C55.3636 73.754 52.4023 73.8828 50.471 74.9779L9.33461 98.7466L4.69952 97.9092V102.611C4.69952 103.256 5.08578 103.835 5.8583 104.286L102.551 160.133C104.29 161.099 107.251 160.97 109.182 159.875L153.28 134.368C154.374 133.723 154.954 132.95 154.889 132.177V127.604H155.018Z" fill="url(#paint10_linear)"/>
<path d="M153.344 129.794L109.247 155.238C107.251 156.397 104.29 156.526 102.616 155.495L5.85826 99.6484C4.12011 98.6822 4.37761 96.943 6.3089 95.7835L50.4066 70.2756C52.4023 69.1162 55.3636 68.9873 57.0374 70.018L153.859 125.929C155.533 126.895 155.34 128.635 153.344 129.794Z" fill="url(#paint200_linear)"/>
<path d="M153.344 129.15L109.246 154.658C107.251 155.817 104.29 155.946 102.616 154.916L5.85823 99.0686C5.21447 98.6822 4.82821 98.2313 4.76383 97.7159C4.63508 98.4245 5.02134 99.133 5.85823 99.6484L102.551 155.495C104.29 156.461 107.251 156.333 109.182 155.238L153.28 129.73C154.503 129.021 155.082 128.119 154.889 127.218C154.825 127.926 154.31 128.635 153.344 129.15Z" fill="white"/>
<path d="M153.409 125.672L102.165 155.302L54.237 127.604L6.3089 99.906L57.5524 70.2756L153.409 125.672Z" fill="#0F65B2"/>
<path d="M35.0208 81.8701L28.1969 85.7993C27.875 85.9926 27.4243 85.9926 27.1668 85.8638L27.1025 85.7993C26.845 85.6705 26.9093 85.4129 27.1668 85.2196L33.9907 81.2904C34.3126 81.0971 34.7632 81.0971 35.0208 81.226L35.0851 81.2904C35.3426 81.4192 35.3426 81.7413 35.0208 81.8701Z" fill="#0063AD"/>
<path opacity="0.4" d="M148.13 55.9113L78.6678 95.9767C77.2516 96.8141 75.1915 96.8785 73.9684 96.17L31.48 71.6283C30.2569 70.9197 30.45 69.6959 31.8019 68.9229L101.2 28.793C102.616 27.9556 104.676 27.8912 105.899 28.5998L148.387 53.1415C149.675 53.85 149.482 55.0739 148.13 55.9113Z" fill="white"/>
<path opacity="0.2" d="M140.855 56.6843L80.0841 91.7899C78.8609 92.4984 76.994 92.5628 75.964 91.9831L38.7545 70.4689C37.7245 69.8891 37.8532 68.7941 39.0764 68.0855L99.7832 32.9799C101.006 32.2714 102.873 32.207 103.903 32.7867L141.113 54.301C142.207 54.9451 142.078 55.9757 140.855 56.6843Z" fill="#041860"/>
<path d="M76.0284 96.8786C75.1915 96.8786 74.419 96.6853 73.8396 96.3633L31.3513 71.8215C30.7719 71.4995 30.3856 70.9842 30.3856 70.4044C30.3856 69.7603 30.8363 69.1161 31.6731 68.6652L101.071 28.5998C102.551 27.7624 104.74 27.698 106.028 28.4065L148.516 52.9482C149.095 53.2703 149.482 53.7856 149.482 54.3654C149.482 55.0095 149.031 55.6536 148.194 56.1045L78.7966 96.2344C78.024 96.6853 76.994 96.8786 76.0284 96.8786ZM103.903 28.4065C103.002 28.4065 102.101 28.5998 101.393 29.0507L31.9306 69.1161C31.2869 69.5026 30.9006 69.9535 30.9006 70.4688C30.9006 70.8553 31.1581 71.1774 31.6088 71.4351L74.0971 95.9768C75.2559 96.6209 77.2515 96.5565 78.5391 95.7835L147.937 55.6536C148.58 55.2672 148.967 54.8163 148.967 54.3009C148.967 53.9145 148.709 53.5924 148.259 53.3347L105.77 28.793C105.32 28.5354 104.611 28.4065 103.903 28.4065Z" fill="white"/>
<path d="M149.289 44.1879L148.516 44.7677C148.516 44.7677 148.516 44.7677 148.452 44.7677L105.963 20.2259C104.74 19.5174 102.616 19.6462 101.264 20.4192L31.8019 60.4847C31.6088 60.5491 31.48 60.6779 31.3513 60.8067L30.6431 60.2914V62.0306C30.6431 62.4815 30.9006 62.9324 31.48 63.2545L73.9683 87.7962C75.1915 88.5047 77.3159 88.3759 78.6678 87.6029L148.065 47.4731C148.838 47.0222 149.224 46.4424 149.224 45.9271V44.1879H149.289Z" fill="white"/>
<path d="M148.13 45.6695L78.7322 85.7994C77.316 86.6367 75.2559 86.7012 74.0328 85.9926L31.5444 61.4509C30.3213 60.7423 30.5144 59.5185 31.8663 58.7455L101.264 18.6156C102.68 17.7782 104.74 17.7138 105.963 18.4224L148.452 42.9641C149.675 43.6726 149.482 44.8965 148.13 45.6695Z" fill="url(#paint300_linear)"/>
<path d="M93.2812 37.811L87.2943 34.3326L88.7749 33.4952C89.0324 33.3664 89.2899 33.2376 89.5474 33.1087C89.8049 33.0443 90.0624 32.9799 90.3199 32.9155C90.5774 32.9155 90.8993 32.9155 91.1568 32.9799C91.4143 33.0443 91.7362 33.1732 91.9937 33.302C92.7018 33.7529 92.8306 34.1394 92.38 34.5258C92.8306 34.3326 93.2169 34.2682 93.6031 34.3326C93.9894 34.397 94.44 34.5258 94.8906 34.7835C95.47 35.1056 95.7275 35.4276 95.7275 35.7497C95.7275 36.0718 95.47 36.3938 94.8906 36.7159L93.2812 37.811ZM90.8349 35.1056L91.1568 34.9123C91.4787 34.7191 91.6075 34.5903 91.6075 34.397C91.6075 34.2682 91.4143 34.0749 91.0924 33.8817C90.8993 33.7529 90.7706 33.6885 90.6418 33.6885C90.5131 33.6241 90.3843 33.6241 90.1912 33.6885C90.0624 33.6885 89.9337 33.7529 89.8049 33.8173C89.6762 33.8817 89.483 33.9461 89.3543 34.0749L89.2255 34.1394L90.8349 35.1056ZM93.6031 36.7159L93.9894 36.4583C94.3112 36.265 94.44 36.0718 94.44 35.943C94.44 35.8141 94.2469 35.6209 93.8606 35.4276C93.4744 35.2344 93.1525 35.1056 92.895 35.1056C92.5731 35.1056 92.2512 35.17 91.9293 35.3632L91.6075 35.5565L93.6031 36.7159Z" fill="white"/>
<path d="M97.0795 35.6209L92.3156 31.4984L93.4744 30.8542L100.685 33.6241L99.6545 34.2038L98.0451 33.5596L97.0151 34.1394L98.1738 35.1056L97.0795 35.6209ZM96.3713 33.6241L97.1438 33.1732L94.3113 32.0137L96.3713 33.6241Z" fill="white"/>
<path d="M101.2 33.2376L95.2125 29.7592L95.985 29.3083L100.813 30.4034L97.4013 28.4709L98.3026 27.9556L104.29 31.434L103.581 31.8205L98.5601 30.5966L102.101 32.6578L101.2 33.2376Z" fill="white"/>
<path d="M105.255 30.9187L99.2682 27.4403L100.363 26.7962L102.938 28.2777L101.521 26.0876L102.551 25.5079L104.096 27.698L108.667 28.8574L107.573 29.5016L103.71 28.4709L103.903 28.793L106.35 30.2101L105.255 30.9187Z" fill="white"/>
<path d="M86.8436 71.0486L73.5177 78.7782L71.9727 77.8764L85.2985 70.2112L86.8436 71.0486Z" fill="white"/>
<path d="M103.195 61.6441L89.8693 69.3094L88.3242 68.4076L101.65 60.7423L103.195 61.6441Z" fill="white"/>
<path d="M119.547 52.1753L106.221 59.8405L104.676 58.9387L118.002 51.2735L119.547 52.1753Z" fill="white"/>
<path d="M135.898 42.7064L122.572 50.4361L121.027 49.5343L134.353 41.8046L135.898 42.7064Z" fill="white"/>
<path d="M146.649 96.0412L125.276 83.6093C121.027 81.1615 117.036 80.7751 114.01 82.5142C110.985 84.2534 109.311 87.925 109.311 92.8205V94.3664C109.44 94.4952 109.633 94.5596 109.762 94.6885V92.7561C109.762 88.0538 111.307 84.5111 114.204 82.9007C117.036 81.226 120.899 81.6124 124.954 83.9958L146.327 96.4276C146.456 96.4921 146.585 96.4277 146.649 96.3632C146.778 96.2344 146.778 96.1056 146.649 96.0412Z" fill="white"/>
<path d="M80.0197 81.226V33.0443C80.0197 23.3823 73.2602 11.6589 64.8913 6.82787C60.8356 4.44456 56.973 4.12249 54.0761 5.79725C51.1792 7.47201 49.5698 11.0148 49.5698 15.717V19.0665C49.6985 19.1953 49.8916 19.3886 50.0204 19.5174V15.717C50.0204 11.1436 51.5654 7.79408 54.2692 6.18373C57.0374 4.57339 60.7069 4.95987 64.6338 7.21436C72.874 11.981 79.5047 23.5111 79.5047 33.0443V81.226C79.5047 89.2133 84.2042 98.6821 90.5774 104.351C90.5774 104.157 90.5774 103.9 90.5774 103.706C84.5261 98.1024 80.0197 88.9556 80.0197 81.226Z" fill="white"/>
<path d="M90.7062 104.157C90.7062 104.157 85.2986 98.6177 83.1742 94.0443C81.0498 89.4709 79.9554 85.2196 79.9554 81.4836C79.891 77.6832 79.891 45.283 79.891 45.283C79.891 45.283 80.1485 31.8205 79.5691 29.6948C78.9897 27.5692 77.7022 16.2323 66.5651 8.11614C55.428 -1.22098e-05 49.956 8.76028 50.0204 13.3337C50.0848 17.9071 50.0204 20.8701 50.0204 20.8701C50.0204 20.8701 56.0718 25.7656 58.3893 32.7867C60.7069 39.8078 60.9 38.5839 60.9644 45.6051C61.0287 52.5618 61.0287 88.0538 61.0287 88.0538C61.0287 88.0538 60.5137 94.302 62.0588 99.0686C63.6038 103.835 66.372 109.246 69.7195 112.724C73.0027 116.203 77.8953 120.325 82.4017 119.939C86.908 119.552 89.9337 117.877 90.8349 110.728V104.157H90.7062Z" fill="white"/>
<path d="M54.0761 5.79724L35.407 16.5544L49.956 20.8701L54.0761 5.79724Z" fill="white"/>
<path d="M109.375 94.3664V96.5565C108.345 95.7835 103.453 92.434 98.8176 92.6272C93.6031 92.8205 91.865 97.5871 91.865 97.5871C91.865 97.5871 90.6418 101.13 90.7062 102.805C90.7062 103.062 90.7062 103.449 90.7706 103.771L90.7062 103.706C90.7062 103.9 90.7062 104.157 90.7062 104.351C90.7706 104.351 90.7706 104.415 90.8349 104.415C90.8993 106.025 90.8993 107.829 90.8993 107.829C90.8993 107.829 90.9637 110.985 90.5131 113.111C89.6762 116.911 86.5217 119.037 86.2642 119.359L105.448 108.344H105.513L105.577 108.28L105.706 108.215C108.474 106.476 110.019 103.062 110.019 98.4889V94.6885C109.697 94.5597 109.504 94.4308 109.375 94.3664Z" fill="url(#paint3_linear)"/>
<path d="M94.44 93.8511L114.075 82.5142C114.075 82.5142 117.422 80.7751 121.478 82.2566C125.534 83.7381 146.714 96.4276 146.714 96.4276L127.787 107.314C127.787 107.314 105.77 93.6578 103.195 93.0137C97.8519 91.5966 94.44 93.8511 94.44 93.8511Z" fill="white"/>
<path d="M49.5697 20.548C48.7972 19.8395 45.1921 16.6188 39.9133 15.8458C33.9263 14.8796 31.48 21.9007 31.48 21.9007C31.48 21.9007 30.7719 25.5079 30.8362 27.698C30.8362 29.8236 31.0294 37.6177 31.0294 37.6177L49.8916 26.7318C49.956 26.6674 50.0203 26.6029 50.0203 26.5385V20.9989C49.8272 20.8057 49.6985 20.6769 49.5697 20.548Z" fill="url(#paint4_linear)"/>
<path d="M82.466 120.196C80.406 120.196 78.0884 119.488 75.7065 118.135C67.402 113.369 60.7068 101.645 60.7068 92.1119V43.9303C60.7068 34.4614 54.0117 22.8669 45.8359 18.1003C41.8446 15.8458 38.1751 15.4593 35.407 17.0697C32.6388 18.68 31.1581 22.0296 31.1581 26.6029V37.3601C31.1581 37.4889 31.0294 37.6177 30.9006 37.6177C30.7719 37.6177 30.6431 37.4889 30.6431 37.3601V26.6029C30.6431 21.9007 32.2525 18.358 35.1495 16.6832C38.0464 15.0084 41.909 15.3949 46.0291 17.7138C54.3336 22.5449 61.1575 34.3326 61.1575 43.9303V92.1119C61.1575 101.516 67.7882 113.046 75.964 117.749C79.891 120.003 83.496 120.39 86.2642 118.779C89.0324 117.169 90.513 113.819 90.513 109.31V103.642C90.513 98.7466 92.1868 95.075 95.2125 93.3358C98.2382 91.5966 102.23 91.9831 106.478 94.4308L127.851 106.863C127.98 106.927 127.98 107.056 127.916 107.185C127.851 107.314 127.723 107.314 127.594 107.249L106.221 94.8173C102.165 92.434 98.3026 92.0475 95.47 93.7223C92.6375 95.397 91.028 98.8754 91.028 103.578V109.246C91.028 113.948 89.4186 117.427 86.5217 119.101C85.2986 119.874 83.9467 120.196 82.466 120.196Z" fill="url(#paint5_linear)"/>
<path d="M65.7281 54.4942V52.8194L67.7238 51.66V53.3991L65.7281 54.4942Z" fill="#DDE1ED"/>
<path d="M71.3289 48.1172V46.378L75.1271 44.2524V45.9271L71.3289 48.1172Z" fill="#DDE1ED"/>
<path d="M65.9219 47.7307V46.056L75.1277 40.774V42.4488L65.9219 47.7307Z" fill="#DDE1ED"/>
<path d="M69.1401 52.5618V50.887L76.8009 46.4424V48.1172L69.1401 52.5618Z" fill="#DDE1ED"/>
<path d="M65.9213 51.2091V49.5343L69.7195 47.3443V49.019L65.9213 51.2091Z" fill="#DDE1ED"/>
<path d="M68.1745 71.0486V72.7877L65.8569 74.076V72.4012L68.1745 71.0486Z" fill="#DDE1ED"/>
<path d="M72.4233 68.6008V70.34L70.0414 71.6283V69.9535L72.4233 68.6008Z" fill="#DDE1ED"/>
<path d="M74.934 63.963V65.7022L65.9213 70.8553V69.1806L74.934 63.963Z" fill="#DDE1ED"/>
<path d="M70.4276 58.6167V56.8775L74.934 54.3009V55.9757L70.4276 58.6167Z" fill="#DDE1ED"/>
<path d="M65.8569 61.2576V59.5829L68.1745 58.2302V59.905L65.8569 61.2576Z" fill="#DDE1ED"/>
<path d="M65.8569 64.4139V62.7392L70.2345 60.1626V61.9018L65.8569 64.4139Z" fill="#DDE1ED"/>
<path d="M72.037 60.8712V59.132L74.934 57.4572V59.1964L72.037 60.8712Z" fill="#DDE1ED"/>
<path d="M70.4276 78.3918V76.717L74.934 74.076V75.8152L70.4276 78.3918Z" fill="#DDE1ED"/>
<path d="M65.8569 81.0327V79.3579L68.1745 78.0052V79.68L65.8569 81.0327Z" fill="#DDE1ED"/>
<path d="M65.8569 84.2534V82.5143L70.2345 80.0021V81.6769L65.8569 84.2534Z" fill="#DDE1ED"/>
<path d="M72.037 80.6462V78.9715L74.934 77.2967V78.9715L72.037 80.6462Z" fill="#DDE1ED"/>
<path d="M119.096 96.5565L117.615 95.6547L119.611 94.5596L121.092 95.397L119.096 96.5565Z" fill="#DDE1ED"/>
<path d="M121.929 91.7254L120.448 90.8236L124.246 88.698L125.727 89.5353L121.929 91.7254Z" fill="#DDE1ED"/>
<path d="M113.56 93.0781L112.079 92.2407L121.22 86.9588L122.701 87.7962L113.56 93.0781Z" fill="#DDE1ED"/>
<path d="M122.508 94.5597L121.027 93.7223L128.688 89.2777L130.169 90.1795L122.508 94.5597Z" fill="#DDE1ED"/>
<path d="M116.521 94.8173L115.105 93.9799L118.839 91.7898L120.319 92.6272L116.521 94.8173Z" fill="#DDE1ED"/>
<path d="M18.7979 100.421L17.8966 100.872L15.9009 99.7128L16.7378 99.1975L18.7979 100.421Z" fill="white"/>
<path d="M20.3429 99.4551L19.506 99.9704L17.446 98.811L18.2829 98.2957L20.3429 99.4551Z" fill="white"/>
<path d="M21.9523 98.5533L21.051 99.0687L19.0554 97.9092L19.8922 97.3939L21.9523 98.5533Z" fill="white"/>
<path d="M23.4973 97.6516L22.6604 98.1669L20.6004 96.943L21.5017 96.4921L23.4973 97.6516Z" fill="white"/>
<path d="M135.319 127.024L120.19 118.264C119.804 118.071 119.354 117.942 118.903 117.877C118.903 117.877 118.903 117.877 118.839 117.877C118.774 117.877 118.645 117.877 118.581 117.877C118.517 117.877 118.517 117.877 118.452 117.877C118.388 117.877 118.259 117.877 118.195 117.942C118.13 117.942 118.13 117.942 118.066 117.942C118.002 117.942 117.873 118.006 117.809 118.006C117.744 118.006 117.744 118.006 117.68 118.006C117.551 118.071 117.487 118.071 117.358 118.135L106.028 124.705L95.2769 130.954L94.2468 131.082V132.049V132.177C94.3112 132.435 94.5043 132.693 94.8906 132.95L110.083 141.711C110.47 141.904 110.92 142.033 111.371 142.097C111.371 142.097 111.371 142.097 111.435 142.097C111.5 142.097 111.628 142.097 111.693 142.097C111.757 142.097 111.757 142.097 111.822 142.097C111.886 142.097 112.015 142.097 112.079 142.033C112.143 142.033 112.143 142.033 112.208 142.033C112.272 142.033 112.401 141.968 112.465 141.968C112.53 141.968 112.53 141.968 112.594 141.968C112.723 141.904 112.787 141.904 112.916 141.839L135.512 128.763C135.898 128.57 136.027 128.313 136.027 127.99V127.089L135.319 127.024Z" fill="white"/>
<path d="M94.7618 130.374L106.092 123.804L123.602 133.981L112.787 140.809C112.015 141.26 110.792 141.195 110.019 140.744L94.8262 131.984C94.0537 131.533 93.9893 130.825 94.7618 130.374Z" fill="url(#paint6_linear)"/>
<path d="M117.358 117.298L106.028 123.868L123.474 133.917L135.383 127.733C136.156 127.282 136.091 126.573 135.254 126.122L120.062 117.362C119.354 116.911 118.066 116.847 117.358 117.298Z" fill="url(#paint7_linear)"/>
<path d="M135.898 126.831C135.963 127.153 135.769 127.475 135.383 127.668L112.787 140.744C112.401 141.002 111.822 141.067 111.307 141.067L112.787 127.668L135.898 126.831Z" fill="url(#paint8_linear)"/>
<path d="M94.2474 131.277C94.1831 130.955 94.3762 130.633 94.7624 130.44L117.359 117.364C117.745 117.106 118.324 117.042 118.839 117.042L117.359 130.44L94.2474 131.277Z" fill="url(#paint9_linear)"/>
<path d="M111.5 135.398C111.435 135.398 111.435 135.398 111.371 135.398H111.113C110.663 135.334 110.277 135.205 109.955 135.012L94.7618 126.251C94.44 126.058 94.1824 125.8 94.1181 125.543H94.0537L93.9893 125.285V125.221C93.9893 125.156 93.9893 125.092 93.9893 125.027C93.9893 124.963 93.9893 124.963 93.9893 124.963C93.9893 124.899 94.0537 124.834 94.0537 124.77C94.0537 124.705 94.0537 124.705 94.1181 124.705C94.1824 124.641 94.2468 124.577 94.2468 124.512L94.3112 124.448C94.3756 124.383 94.5043 124.319 94.6331 124.254L117.229 111.178C117.358 111.114 117.487 111.05 117.615 110.985H117.68C117.809 110.921 117.873 110.921 118.002 110.921H118.066C118.195 110.921 118.324 110.856 118.388 110.856H118.452C118.581 110.856 118.71 110.856 118.774 110.856H119.032C119.482 110.921 119.869 111.05 120.19 111.243L135.383 120.003C135.705 120.196 135.963 120.454 136.027 120.712H136.091L136.156 120.969V121.034C136.156 121.098 136.156 121.163 136.156 121.227C136.156 121.291 136.156 121.291 136.156 121.291C136.156 121.356 136.091 121.42 136.091 121.485C136.091 121.549 136.091 121.549 136.027 121.549C135.963 121.613 135.898 121.678 135.898 121.742H135.834C135.77 121.807 135.641 121.871 135.512 121.936L112.916 135.012C112.787 135.076 112.658 135.14 112.53 135.205H112.465C112.337 135.269 112.272 135.269 112.143 135.269H112.079C111.95 135.269 111.822 135.334 111.757 135.334H111.693C111.628 135.398 111.564 135.398 111.5 135.398ZM111.95 134.883L112.079 135.076L112.015 134.818C112.079 134.818 112.143 134.754 112.272 134.754L112.465 134.947L112.401 134.69C112.53 134.625 112.594 134.625 112.658 134.561L135.255 121.485C135.319 121.42 135.383 121.42 135.448 121.356L135.641 121.485L135.448 121.291C135.512 121.227 135.512 121.227 135.512 121.163C135.576 121.098 135.576 121.034 135.576 121.034C135.576 120.969 135.576 120.905 135.576 120.905C135.512 120.712 135.383 120.518 135.061 120.325L119.869 111.565C119.547 111.372 119.16 111.243 118.71 111.243H118.581C118.517 111.243 118.452 111.243 118.388 111.243H118.259C118.195 111.243 118.13 111.243 118.002 111.243L117.873 111.05L117.937 111.307C117.873 111.307 117.809 111.372 117.68 111.372L117.487 111.178L117.551 111.436C117.422 111.501 117.358 111.501 117.294 111.565L94.6975 124.641C94.6331 124.705 94.5687 124.705 94.5043 124.77C94.44 124.834 94.3756 124.899 94.3756 124.899C94.3112 124.963 94.3112 125.027 94.3112 125.027C94.3112 125.092 94.3112 125.156 94.3112 125.156C94.3756 125.35 94.5043 125.543 94.8262 125.736L110.019 134.496C110.341 134.69 110.727 134.818 111.178 134.818H111.242C111.307 134.818 111.371 134.818 111.435 134.818H111.564C111.822 134.883 111.886 134.883 111.95 134.883Z" fill="white"/>
<path opacity="0.4" d="M135.705 121.549C135.77 121.485 135.769 121.42 135.834 121.42V121.356C135.834 121.291 135.898 121.227 135.898 121.227V121.163C135.898 121.098 135.898 121.034 135.898 121.034C135.834 120.776 135.641 120.518 135.254 120.261L120.062 111.501C119.675 111.307 119.225 111.178 118.774 111.114C118.774 111.114 118.774 111.114 118.71 111.114C118.645 111.114 118.517 111.114 118.452 111.114C118.388 111.114 118.388 111.114 118.324 111.114C118.259 111.114 118.13 111.114 118.066 111.178C118.002 111.178 118.002 111.178 117.937 111.178C117.873 111.178 117.744 111.243 117.68 111.243C117.615 111.243 117.615 111.243 117.551 111.243C117.422 111.307 117.358 111.307 117.229 111.372L109.697 115.752L105.899 117.942L94.5687 124.512C94.44 124.577 94.3756 124.641 94.3112 124.705C94.3112 124.705 94.3112 124.77 94.2468 124.77C94.1825 124.834 94.1825 124.899 94.1181 124.899V124.963C94.1181 125.027 94.0537 125.092 94.0537 125.092V125.156C94.0537 125.221 94.0537 125.285 94.0537 125.285C94.1181 125.543 94.3112 125.8 94.6975 126.058L109.89 134.818C110.277 135.012 110.727 135.14 111.178 135.205C111.178 135.205 111.178 135.205 111.242 135.205C111.307 135.205 111.435 135.205 111.5 135.205C111.564 135.205 111.564 135.205 111.628 135.205C111.693 135.205 111.822 135.205 111.886 135.14C111.95 135.14 111.95 135.14 112.015 135.14C112.079 135.14 112.208 135.076 112.272 135.076C112.337 135.076 112.337 135.076 112.401 135.076C112.53 135.012 112.594 135.012 112.723 134.947L135.319 121.871C135.512 121.678 135.576 121.613 135.705 121.549Z" fill="white"/>
<defs>
<linearGradient id="paint10_linear" x1="14.9189" y1="83.2319" x2="142.442" y2="150.385" gradientUnits="userSpaceOnUse">
<stop offset="100%" stop-color="#3A9BD5"/>
<stop offset="0.3053" stop-color="#3A9BD5"/>
<stop offset="0.3555" stop-color="#3A9BD5"/>
<stop offset="0.5988" stop-color="#3999D4"/>
<stop offset="0.6883" stop-color="#3592CF"/>
<stop offset="0.7522" stop-color="#2F86C7"/>
<stop offset="0.8039" stop-color="#2676BC"/>
<stop offset="0.8102" stop-color="#2573BA"/>
</linearGradient>
<linearGradient id="paint200_linear" x1="18.4097" y1="126.048" x2="131.713" y2="78.3024" gradientUnits="userSpaceOnUse">
<stop offset="100%" stop-color="#59BDEF"/>
<stop offset="1" stop-color="#7BDAFF"/>
</linearGradient>
<linearGradient id="paint300_linear" x1="161.018" y1="19.3115" x2="79.1144" y2="124.731" gradientUnits="userSpaceOnUse">
<stop offset="100%" stop-color="#59BDEF"/>
<stop offset="1" stop-color="#7BDAFF"/>
</linearGradient>
<linearGradient id="paint3_linear" x1="106.744" y1="97.8177" x2="85.3196" y2="109.34" gradientUnits="userSpaceOnUse">
<stop offset="100%" stop-color="#59BDEF"/>
<stop offset="1" stop-color="#7BDAFF"/>
</linearGradient>
<linearGradient id="paint4_linear" x1="40.8037" y1="24.4954" x2="16.1917" y2="32.7614" gradientUnits="userSpaceOnUse">
<stop offset="100%" stop-color="#59BDEF"/>
<stop offset="1" stop-color="#7BDAFF"/>
</linearGradient>
<linearGradient id="paint5_linear" x1="30.6442" y1="67.916" x2="127.86" y2="67.916" gradientUnits="userSpaceOnUse">
<stop offset="100%" stop-color="#59BDEF"/>
<stop offset="1" stop-color="#7BDAFF"/>
</linearGradient>
<linearGradient id="paint6_linear" x1="111.234" y1="149.514" x2="111.192" y2="130.73" gradientUnits="userSpaceOnUse">
<stop offset="0.7677" stop-color="#59BDEF"/>
<stop offset="0.8452" stop-color="#55B8EB"/>
<stop offset="0.9318" stop-color="#49ABE1"/>
<stop offset="1" stop-color="#3A9BD5"/>
</linearGradient>
<linearGradient id="paint7_linear" x1="150.438" y1="126.76" x2="117.962" y2="126.661" gradientUnits="userSpaceOnUse">
<stop offset="0.7677" stop-color="#59BDEF"/>
<stop offset="0.8452" stop-color="#55B8EB"/>
<stop offset="0.9318" stop-color="#49ABE1"/>
<stop offset="1" stop-color="#3A9BD5"/>
</linearGradient>
<linearGradient id="paint8_linear" x1="142.045" y1="144.617" x2="128.696" y2="121.581" gradientUnits="userSpaceOnUse">
<stop offset="0.7677" stop-color="#3A9BD5"/>
<stop offset="0.8386" stop-color="#3896D2"/>
<stop offset="0.9179" stop-color="#3189C9"/>
<stop offset="1" stop-color="#2573BA"/>
</linearGradient>
<linearGradient id="paint9_linear" x1="112.092" y1="117.251" x2="108.003" y2="138.069" gradientUnits="userSpaceOnUse">
<stop offset="100%" stop-color="#7BDAFF"/>
<stop offset="1" stop-color="#59BDEF"/>
</linearGradient>
</defs>
</svg>
