<svg width="180" height="106" viewBox="0 0 180 106" fill="none" xmlns="http://www.w3.org/2000/svg">
<g clip-path="url(#clip0)">
<path d="M91.5 0.730286V33.9303C92.2 33.4303 96.5 33.4303 97.3 34.0303V6.53029H126.2V99.9303H97.3V45.0303C96.5 45.6303 92.3 45.6303 91.5 45.1303V105.73H131.9V0.730286L91.5 0.730286Z" fill="#EA8744"/>
<path d="M174.2 6.53029V99.9303H145.3V6.53029H174.2ZM180 0.730286H139.6V105.63H180V0.730286Z" fill="#EA8744"/>
<path d="M49.3001 89.7303C42.2001 89.7303 33.5001 89.4303 25.3001 88.2303C13.8001 86.6303 3.90007 75.3303 0.900073 60.3303C-1.69993 47.4303 1.10007 30.2303 16.9001 20.7303C25.5001 15.5303 37.4001 15.1303 55.2001 16.1303C62.5001 16.5303 65.6001 20.7303 65.4001 24.7303C65.3001 26.4303 64.7001 28.0303 63.5001 29.5303H99.9001C105.6 29.5303 111.3 32.6303 111.3 39.5303C111.3 46.1303 105.1 48.2303 101.8 48.4303H84.5001C85.7001 50.9303 85.5001 53.7303 84.0001 56.1303C83.3001 57.3303 81.9001 58.8303 79.6001 60.0303C80.8001 61.4303 81.6001 63.2303 81.8001 65.7303C82.0001 68.4303 81.2001 70.8303 79.5001 72.6303C78.8001 73.4303 77.9001 73.9303 77.0001 74.4303C78.6001 77.0303 78.6001 80.2303 77.0001 83.0303C74.9001 86.8303 70.5001 89.1303 64.9001 89.2303C64.6001 89.2303 58.1001 89.7303 49.3001 89.7303ZM42.0001 21.3303C32.2001 21.3303 25.0001 22.4303 19.8001 25.5303C8.50007 32.3303 3.50007 44.9303 6.40007 59.1303C9.00007 71.7303 17.1001 81.3303 26.2001 82.6303C43.8001 85.1303 64.6001 83.5303 64.8001 83.5303C68.4001 83.4303 71.2001 82.2303 72.2001 80.2303C72.8001 79.2303 72.8001 78.1303 72.3001 77.2303C71.8001 76.3303 70.7001 75.8303 69.2001 75.7303H69.1001C68.9001 75.7303 68.6001 75.7303 68.4001 75.7303C64.0001 75.8303 61.8001 75.8303 61.8001 75.8303C60.2001 75.8303 59.0001 74.5303 59.0001 73.0303C59.0001 71.4303 60.3001 70.2303 61.8001 70.2303C61.8001 70.2303 64.0001 70.2303 68.3001 70.1303H69.4001H69.5001C72.1001 70.3303 74.5001 69.7303 75.6001 68.6303C76.0001 68.2303 76.4001 67.6303 76.3001 66.2303C76.0001 62.3303 72.5001 61.7303 64.8001 61.8303C63.6001 61.8303 62.5001 61.8303 61.6001 61.8303C60.0001 61.7303 58.8001 60.4303 58.9001 58.9303C59.0001 57.3303 60.3001 56.1303 61.8001 56.2303H64.7001H69.0001H69.3001C75.2001 56.5303 78.4001 54.8303 79.4001 53.2303C80.0001 52.2303 79.8001 51.3303 79.5001 50.7303C78.7001 49.3303 76.8001 48.4303 74.3001 48.4303C67.9001 48.4303 60.4001 48.4303 60.4001 48.4303V42.7303H74.3001H75.0001H101.9C102.4 42.7303 105.8 42.3303 105.8 39.5303C105.8 35.7303 102.2 35.1303 100 35.1303H49.7001C48.8001 35.1303 47.8001 35.1303 46.8001 35.1303C46.5001 35.1303 46.2001 35.0303 45.9001 34.9303C45.5001 34.7303 45.1001 34.5303 44.8001 34.2303C44.5001 33.9303 44.3001 33.6303 44.2001 33.2303C44.1001 32.9303 44.0001 32.6303 44.1001 32.2303C44.1001 31.9303 44.2001 31.6303 44.3001 31.3303C44.4001 30.9303 44.7001 30.5303 45.0001 30.3303C45.3001 30.0303 45.7001 29.8303 46.1001 29.7303C46.4001 29.6303 46.7001 29.6303 47.0001 29.6303H49.7001C56.7001 29.3303 59.8001 26.3303 59.9001 24.5303C60.0001 23.1303 58.0001 22.0303 55.0001 21.9303C50.1001 21.5303 45.9001 21.3303 42.0001 21.3303Z" fill="#333844"/>
</g>
<defs>
<clipPath id="clip0">
<rect width="180" height="105" fill="white" transform="translate(0 0.730286)"/>
</clipPath>
</defs>
</svg>
