<svg width="180" height="117" viewBox="0 0 180 117" fill="none" xmlns="http://www.w3.org/2000/svg">
<g>
<path d="M91.5 15.0224V47.1724C92.2 46.6882 96.5 46.6882 97.3 47.2692V20.639H126.2V111.085H97.3V57.9213C96.5 58.5023 92.3 58.5023 91.5 58.0181V116.701H131.9V15.0224H91.5Z" fill="#5597C4"/>
<path d="M174.2 20.639V111.085H145.3V20.639H174.2ZM180 15.0224H139.6V116.605H180V15.0224Z" fill="#5597C4"/>
<path d="M49.3001 101.208C42.2001 101.208 33.5001 100.917 25.3001 99.755C13.8001 98.2056 3.90007 87.263 0.900072 72.7374C-1.69993 60.2454 1.10007 43.5894 16.9001 34.3899C25.5001 29.3543 37.4001 28.967 55.2001 29.9354C62.5001 30.3227 65.6001 34.3899 65.4001 38.2634C65.3001 39.9096 64.7001 41.459 63.5001 42.9115H99.9001C105.6 42.9115 111.3 45.9135 111.3 52.5953C111.3 58.9865 105.1 61.0201 101.8 61.2138H84.5001C85.7001 63.6347 85.5001 66.3462 84.0001 68.6702C83.3001 69.8323 81.9001 71.2849 79.6001 72.4469C80.8001 73.8026 81.6001 75.5457 81.8001 77.9666C82.0001 80.5812 81.2001 82.9053 79.5001 84.6484C78.8001 85.4231 77.9001 85.9073 77.0001 86.3915C78.6001 88.9092 78.6001 92.008 77.0001 94.7195C74.9001 98.3993 70.5001 100.627 64.9001 100.723C64.6001 100.723 58.1001 101.208 49.3001 101.208V101.208ZM42.0001 34.9709C32.2001 34.9709 25.0001 36.0361 19.8001 39.0381C8.50007 45.623 3.50007 57.8245 6.40007 71.5754C9.00007 83.7769 17.1001 93.0732 26.2001 94.3321C43.8001 96.753 64.6001 95.2037 64.8001 95.2037C68.4001 95.1068 71.2001 93.9448 72.2001 92.008C72.8001 91.0396 72.8001 89.9744 72.3001 89.1029C71.8001 88.2314 70.7001 87.7472 69.2001 87.6503H69.1001C68.9001 87.6503 68.6001 87.6503 68.4001 87.6503C64.0001 87.7472 61.8001 87.7472 61.8001 87.7472C60.2001 87.7472 59.0001 86.4883 59.0001 85.0357C59.0001 83.4863 60.3001 82.3243 61.8001 82.3243C61.8001 82.3243 64.0001 82.3243 68.3001 82.2275H69.4001H69.5001C72.1001 82.4211 74.5001 81.8401 75.6001 80.7749C76.0001 80.3876 76.4001 79.8065 76.3001 78.4508C76.0001 74.6742 72.5001 74.0931 64.8001 74.19C63.6001 74.19 62.5001 74.19 61.6001 74.19C60.0001 74.0931 58.8001 72.8342 58.9001 71.3817C59.0001 69.8323 60.3001 68.6702 61.8001 68.7671H64.7001H69.0001H69.3001C75.2001 69.0576 78.4001 67.4114 79.4001 65.862C80.0001 64.8936 79.8001 64.0221 79.5001 63.441C78.7001 62.0853 76.8001 61.2138 74.3001 61.2138C67.9001 61.2138 60.4001 61.2138 60.4001 61.2138V55.6941H74.3001H75.0001H101.9C102.4 55.6941 105.8 55.3067 105.8 52.5953C105.8 48.9155 102.2 48.3344 100 48.3344H49.7001C48.8001 48.3344 47.8001 48.3344 46.8001 48.3344C46.5001 48.3344 46.2001 48.2376 45.9001 48.1408C45.5001 47.9471 45.1001 47.7534 44.8001 47.4629C44.5001 47.1724 44.3001 46.8819 44.2001 46.4945C44.1001 46.204 44.0001 45.9135 44.1001 45.5261C44.1001 45.2356 44.2001 44.9451 44.3001 44.6546C44.4001 44.2673 44.7001 43.8799 45.0001 43.6862C45.3001 43.3957 45.7001 43.2021 46.1001 43.1052C46.4001 43.0084 46.7001 43.0084 47.0001 43.0084H49.7001C56.7001 42.7179 59.8001 39.8128 59.9001 38.0697C60.0001 36.714 58.0001 35.6488 55.0001 35.5519C50.1001 35.1646 45.9001 34.9709 42.0001 34.9709V34.9709Z" fill="#333844"/>
<path d="M160 3.40198C160 5.72607 158.3 6.40393 156.1 6.40393H154.6V9.30905H152.6V0.496864H156C158.3 0.400027 160 1.17473 160 3.40198ZM156.2 2.1431H154.6V4.7577H156.2C157.2 4.7577 158 4.46719 158 3.49882C158 2.33677 157.2 2.1431 156.2 2.1431V2.1431Z" fill="#333844"/>
<path d="M161.3 0.400024H165C166.8 0.400024 168.6 1.07788 168.6 3.30514C168.6 4.85454 167.7 5.62923 166.6 5.91974L169.3 9.21221H167.1L164.6 6.11342H163.2V9.21221H161.2V0.400024H161.3ZM165.2 4.56402C166 4.56402 166.7 4.17668 166.7 3.30514C166.7 2.43361 166 2.04626 165.2 2.04626H163.3V4.56402H165.2Z" fill="#333844"/>
<path d="M174.7 0.303162C177.9 0.303162 179.5 2.53042 179.5 4.85451C179.5 7.27544 177.9 9.40586 174.7 9.40586C171.5 9.40586 169.9 7.1786 169.9 4.85451C169.9 2.43358 171.5 0.303162 174.7 0.303162V0.303162ZM174.7 2.04623C172.8 2.04623 171.9 3.30512 171.9 4.85451C171.9 6.40391 172.8 7.66279 174.7 7.66279C176.6 7.66279 177.5 6.40391 177.5 4.85451C177.5 3.30512 176.6 2.04623 174.7 2.04623Z" fill="#333844"/>
</g>
<defs>
</defs>
</svg>
