<svg width="180" height="102" viewBox="0 0 180 102" fill="none" xmlns="http://www.w3.org/2000/svg">
<g clip-path="url(#clip1)">
<path d="M90.7001 0.0223999V30.9135C91.4001 30.4293 95.6001 30.5261 96.4001 31.204V5.54212H174.7V96.1818H96.4001V42.5339C95.6001 43.3086 91.4001 43.5992 90.7001 43.3086V101.701H180V0.0223999L90.7001 0.0223999Z" fill="#95C453"/>
<path d="M48.9 85.4328C41.8 85.4328 33.2 85.1423 25.1 83.9803C13.7 82.4309 3.90002 71.6819 0.900021 57.1563C-1.69998 44.7612 1.10002 28.2989 16.8 19.1962C25.3 14.2575 37.2 13.8701 54.8 14.7416C62.1 15.129 65.1 19.1962 64.9 22.9728C64.8 24.619 64.2 26.1684 63 27.621H99C104.6 27.621 110.3 30.6229 110.3 37.3047C110.3 43.696 104.2 45.6327 100.9 45.8264H83.8C85 48.2473 84.8 50.9588 83.3 53.186C82.6 54.2512 81.3 55.8006 78.9 56.9627C80.1 58.3184 80.9 60.0615 81.1 62.3856C81.3 65.0002 80.5 67.3243 78.8 68.9705C78.1 69.7452 77.2 70.2294 76.3 70.7136C77.8 73.2313 77.9 76.2333 76.3 78.9447C74.2 82.6245 69.8 84.755 64.3 84.9486C64.1 84.9486 57.6 85.4328 48.9 85.4328ZM41.7 19.874C32 19.874 24.9 20.8424 19.7 23.9412C8.40002 30.4293 3.50002 42.4371 6.40002 56.0911C8.90002 68.099 17 77.3953 26 78.5574C43.5 80.9783 64 79.4289 64.2 79.4289C67.8 79.3321 70.5 78.17 71.6 76.3301C72.2 75.3617 72.2 74.2965 71.7 73.5218C71.2 72.6503 70.1 72.1661 68.6 72.0693H68.5C68.3 72.0693 68 72.0693 67.8 72.0693C63.4 72.1661 61.3 72.1661 61.2 72.1661C59.6 72.1661 58.4 70.9072 58.4 69.4547C58.4 68.0021 59.7 66.7432 61.2 66.7432C61.2 66.7432 63.3 66.7432 67.6 66.6464H68.7H68.8C71.4 66.8401 73.8 66.259 74.9 65.1938C75.3 64.8065 75.7 64.2255 75.6 62.8697C75.3 59.0931 71.8 58.6089 64.2 58.7057C63 58.7057 62 58.7057 61 58.7057C59.5 58.6089 58.2 57.35 58.3 55.8975C58.4 54.4449 59.7 53.186 61.2 53.2829H64.1H68.3H68.6C74.5 53.5734 77.6 51.9271 78.6 50.3777C79.2 49.4094 79 48.5378 78.7 47.9568C77.9 46.6011 76 45.8264 73.6 45.7296C67.2 45.7296 59.9 45.7296 59.9 45.7296V40.3067H73.7H74.4H101C101.5 40.3067 104.9 39.9193 104.9 37.2079C104.9 33.5281 101.3 33.0439 99.2 33.0439H49.2C48.3 33.0439 47.3 33.0439 46.3 33.0439C46 33.0439 45.7 32.947 45.4 32.8502C45 32.6565 44.6 32.4629 44.3 32.1723C44 31.8818 43.8 31.5913 43.7 31.204C43.6 30.9135 43.5 30.6229 43.6 30.2356C43.6 29.9451 43.7 29.6546 43.8 29.3641C43.9 28.9767 44.2 28.6862 44.5 28.3957C44.8 28.1052 45.2 27.9115 45.5 27.8147C45.8 27.7178 46.1 27.7178 46.4 27.7178H49.1C56 27.4273 59.1 24.5222 59.2 22.876C59.3 21.5202 57.3 20.455 54.4 20.3582C49.7 19.9708 45.5 19.874 41.7 19.874Z" fill="#333844"/>
</g>
<defs>
<clipPath id="clip1">
<rect width="180" height="101.679" fill="white" transform="translate(0 0.0223999)"/>
</clipPath>
</defs>
</svg>
