<svg width="180" height="102" viewBox="0 0 180 102" fill="none" xmlns="http://www.w3.org/2000/svg">
<g clip-path="url(#clip2)">
<path d="M150.1 98.0533H144.1V75.4902H174.9V81.3005H150.1V98.0533Z" fill="#2E3346"/>
<path d="M87.8 0.0540161V31.7198C89.8 31.7198 91.8 31.7198 93.8 31.7198V5.86425H171.9V78.2985L146.2 95.9229H93.8V41.4035C91.8 41.4035 89.8 41.4035 87.8 41.4035V101.733H148.1L177.9 81.3004V0.0540161H87.8Z" fill="#2E3346"/>
<path d="M48.9 85.4644C41.8 85.4644 33.2 85.1739 25.1 84.0118C13.7 82.4625 3.90002 71.7135 0.900021 57.188C-1.69998 44.7928 1.10002 28.3305 16.8 19.2278C25.3 14.2891 37.2 13.9017 54.8 14.7733C62.1 15.1606 65.1 19.2278 64.9 23.0044C64.8 24.6507 64.2 26.2 63 27.6526H99C104.6 27.6526 110.3 30.6546 110.3 37.3363C110.3 43.7276 104.2 45.6643 100.9 45.858H83.8C85 48.2789 84.8 50.9904 83.3 53.2176C82.6 54.2828 81.3 55.8322 78.9 56.9943C80.1 58.35 80.9 60.0931 81.1 62.4172C81.3 65.0318 80.5 67.3559 78.8 69.0021C78.1 69.7768 77.2 70.261 76.3 70.7452C77.8 73.2629 77.9 76.2649 76.3 78.9763C74.2 82.6561 69.8 84.7866 64.3 84.9802C64.1 84.9802 57.6 85.4644 48.9 85.4644ZM41.7 19.9056C32 19.9056 24.9 20.874 19.7 23.9728C8.40002 30.4609 3.50002 42.4687 6.40002 56.1227C8.90002 68.1306 17 77.4269 26 78.589C43.5 81.0099 64 79.4605 64.2 79.4605C67.8 79.3637 70.5 78.2016 71.6 76.3617C72.2 75.3933 72.2 74.3281 71.7 73.5534C71.2 72.6819 70.1 72.1977 68.6 72.1009H68.5C68.3 72.1009 68 72.1009 67.8 72.1009C63.4 72.1977 61.3 72.1977 61.2 72.1977C59.6 72.1977 58.4 70.9388 58.4 69.4863C58.4 68.0337 59.7 66.7748 61.2 66.7748C61.2 66.7748 63.3 66.7748 67.6 66.678H68.7H68.8C71.4 66.8717 73.8 66.2906 74.9 65.2254C75.3 64.8381 75.7 64.2571 75.6 62.9013C75.3 59.1247 71.8 58.6405 64.2 58.7373C63 58.7373 62 58.7373 61 58.7373C59.5 58.6405 58.2 57.3816 58.3 55.9291C58.4 54.4765 59.7 53.2176 61.2 53.3145H64.1H68.3H68.6C74.5 53.605 77.6 51.9587 78.6 50.4093C79.2 49.441 79 48.5694 78.7 47.9884C77.9 46.6327 76 45.858 73.6 45.7612C67.2 45.7612 59.9 45.7612 59.9 45.7612V40.3383H73.7H74.4H101C101.5 40.3383 104.9 39.9509 104.9 37.2395C104.9 33.5597 101.3 33.0755 99.2 33.0755H49.2C48.3 33.0755 47.3 33.0755 46.3 33.0755C46 33.0755 45.7 32.9787 45.4 32.8818C45 32.6881 44.6 32.4945 44.3 32.204C44 31.9134 43.8 31.6229 43.7 31.2356C43.6 30.9451 43.5 30.6546 43.6 30.2672C43.6 29.9767 43.7 29.6862 43.8 29.3957C43.9 29.0083 44.2 28.7178 44.5 28.4273C44.8 28.1368 45.2 27.9431 45.5 27.8463C45.8 27.7494 46.1 27.7494 46.4 27.7494H49.1C56 27.4589 59.1 24.5538 59.2 22.9076C59.3 21.5519 57.3 20.4866 54.4 20.3898C49.7 20.0025 45.5 19.9056 41.7 19.9056Z" fill="#333844"/>
</g>
<defs>
<clipPath id="clip2">
<rect width="180" height="101.679" fill="white" transform="translate(0 0.0540161)"/>
</clipPath>
</defs>
</svg>
