<svg width="195" height="105" viewBox="0 0 195 105" fill="none" xmlns="http://www.w3.org/2000/svg">
<g>
<path d="M179.6 14.9C169.7 5 156.5 -0.5 142.5 -0.5C128.5 -0.5 115.3 5 105.4 14.9C100.1 20.2 96.1 26.5 93.5 33.3C95.6 33.3 97.7 33.3 99.7 33.3C102 28 105.3 23.2 109.5 19C118.3 10.2 130.1 5.3 142.6 5.3C155.1 5.3 166.8 10.2 175.7 19C184.2 27.5 189.1 38.8 189.4 50.8L137.1 98.5C126 97.2 115.8 92 108.2 83.7C100.1 75 95.8 63.7 95.8 52C95.8 49 96.1 46.1 96.6 43.3C94.7 43.3 92.7 43.3 90.8 43.3C90.3 46.1 90 49.1 90 52C90 65.2 94.9 77.8 103.8 87.5C112.6 97.1 124.7 103.1 137.6 104.3L138.9 104.4L195 53.3V52C195 38 189.5 24.8 179.6 14.9Z" fill="#D95858"/>
<path d="M137.9 104.3C136.4 104.3 135.2 103.2 135 101.7C135 101.5 134.5 95.6 135.8 87.8C137.6 77.4 141.9 68.5 148.3 62.1C158.3 52 173.1 47.7 192.3 49.2C193.9 49.3 195.1 50.7 194.9 52.3C194.7 53.9 193.4 55.1 191.8 54.9C174.4 53.5 161.1 57.3 152.4 66.1C145.4 73.1 142.6 82.2 141.5 88.6C140.2 95.7 140.7 101.1 140.7 101.2C140.8 102.8 139.7 104.2 138.1 104.3C138.1 104.3 138 104.3 137.9 104.3Z" fill="#D95858"/>
<path d="M49.3001 89C42.2001 89 33.5001 88.7 25.3001 87.5C13.8001 85.9 3.90007 74.6 0.900073 59.6C-1.69993 46.7 1.10007 29.5 16.9001 20C25.5001 14.8 37.4001 14.4 55.2001 15.4C62.5001 15.8 65.6001 20 65.4001 24C65.3001 25.7 64.7001 27.3 63.5001 28.8H99.9001C105.6 28.8 111.3 31.9 111.3 38.8C111.3 45.4 105.1 47.5 101.8 47.7H84.5001C85.7001 50.2 85.5001 53 84.0001 55.4C83.3001 56.6 81.9001 58.1 79.6001 59.3C80.8001 60.7 81.6001 62.5 81.8001 65C82.0001 67.7 81.2001 70.1 79.5001 71.9C78.8001 72.7 77.9001 73.2 77.0001 73.7C78.6001 76.3 78.6001 79.5 77.0001 82.3C74.9001 86.1 70.5001 88.4 64.9001 88.5C64.6001 88.5 58.1001 89 49.3001 89ZM42.0001 20.6C32.2001 20.6 25.0001 21.7 19.8001 24.8C8.50007 31.6 3.50007 44.2 6.40007 58.4C9.00007 71 17.1001 80.6 26.2001 81.9C43.8001 84.4 64.6001 82.8 64.8001 82.8C68.4001 82.7 71.2001 81.5 72.2001 79.5C72.8001 78.5 72.8001 77.4 72.3001 76.5C71.8001 75.6 70.7001 75.1 69.2001 75H69.1001C68.9001 75 68.6001 75 68.4001 75C64.0001 75.1 61.8001 75.1 61.8001 75.1C60.2001 75.1 59.0001 73.8 59.0001 72.3C59.0001 70.7 60.3001 69.5 61.8001 69.5C61.8001 69.5 64.0001 69.5 68.3001 69.4H69.4001H69.5001C72.1001 69.6 74.5001 69 75.6001 67.9C76.0001 67.5 76.4001 66.9 76.3001 65.5C76.0001 61.6 72.5001 61 64.8001 61.1C63.6001 61.1 62.5001 61.1 61.6001 61.1C60.0001 61 58.8001 59.7 58.9001 58.2C59.0001 56.6 60.3001 55.4 61.8001 55.5H64.7001H69.0001H69.3001C75.2001 55.8 78.4001 54.1 79.4001 52.5C80.0001 51.5 79.8001 50.6 79.5001 50C78.7001 48.6 76.8001 47.7 74.3001 47.7C67.9001 47.7 60.4001 47.7 60.4001 47.7V42H74.3001H75.0001H101.9C102.4 42 105.8 41.6 105.8 38.8C105.8 35 102.2 34.4 100 34.4H49.7001C48.8001 34.4 47.8001 34.4 46.8001 34.4C46.5001 34.4 46.2001 34.3 45.9001 34.2C45.5001 34 45.1001 33.8 44.8001 33.5C44.5001 33.2 44.3001 32.9 44.2001 32.5C44.1001 32.2 44.0001 31.9 44.1001 31.5C44.1001 31.2 44.2001 30.9 44.3001 30.6C44.4001 30.2 44.7001 29.8 45.0001 29.6C45.3001 29.3 45.7001 29.1 46.1001 29C46.4001 28.9 46.7001 28.9 47.0001 28.9H49.7001C56.7001 28.6 59.8001 25.6 59.9001 23.8C60.0001 22.4 58.0001 21.3 55.0001 21.2C50.1001 20.8 45.9001 20.6 42.0001 20.6Z" fill="#333844"/>
</g>
</svg>
