<svg width="135" height="45" viewBox="0 0 135 45" fill="none" xmlns="http://www.w3.org/2000/svg">
<g clip-path="url(#clip0_5260_24902)">
<path d="M57.4824 27.2937C57.4824 28.4279 58.298 28.9927 59.6526 28.9927C61.3113 28.9927 62.2051 27.8585 62.2051 26.3892V25.5029H59.8599C58.5099 25.5029 57.4824 26.1917 57.4824 27.2937Z" fill="#A7ADB8"/>
<path d="M103.876 20.6631C101.697 20.6631 100.775 22.4401 100.775 24.5202C100.775 26.6325 101.697 28.4692 103.876 28.4692C106.148 28.4692 106.977 26.6325 106.977 24.5202C106.977 22.4401 106.148 20.6631 103.876 20.6631Z" fill="#A7ADB8"/>
<path d="M105.779 32.6619C103.923 32.6619 102.098 32.1293 101.075 30.5864V38.2456H95.7902V16.8385H100.905V18.9415C101.927 17.0084 103.876 16.4068 105.77 16.4068C109.792 16.4068 112.225 19.8048 112.225 24.5206C112.225 29.3283 109.742 32.6619 105.779 32.6619ZM93.7445 32.2992H88.4597V23.8181C88.4597 22.041 88.1188 20.9711 86.5844 20.9711C84.9257 20.9711 84.3682 22.2568 84.3682 23.9099V32.2992H79.0834V23.8181C79.0834 22.041 78.6411 20.9711 77.1068 20.9711C75.4159 20.9711 74.8215 22.4405 74.8215 24.1533V32.2992H69.5367V16.8385H74.651V19.1482C75.6739 16.9579 77.5676 16.4068 79.2862 16.4068C81.2397 16.4068 82.6773 17.1966 83.5435 19.1023C84.6124 17.2058 86.1513 16.4344 88.1372 16.4344C91.9752 16.4344 93.7445 18.8818 93.7445 22.739V32.2992ZM67.3205 32.2992H62.5471V30.6783C61.6947 32.2441 59.6858 32.7721 57.7322 32.7721C54.3826 32.7721 52.4566 30.3385 52.4566 27.6155C52.4566 25.2599 54.2674 22.4451 58.8749 22.4451H62.2015V22.2247C62.2015 20.4477 61.5196 19.7818 60.1051 19.7818C58.8472 19.7818 58.0409 20.4063 57.9488 21.5956H53.1247C53.309 18.7074 55.7003 16.5676 60.1558 16.54C64.3025 16.5079 67.3112 18.5237 67.3112 22.716V32.2992H67.3205ZM50.6136 32.2992H44.9879V11.4017H50.6136V32.2992ZM43.1126 16.6686H32.7135V20.5762H40.7259V25.5033H32.7135V32.4691H27.2582V16.4987H25.2908C24.3693 16.4987 23.3879 17.0451 23.3879 18.2068C23.3879 19.0655 23.973 19.667 24.678 19.9747L23.2957 24.7043C20.3792 23.9099 18.1676 21.5818 18.1676 18.1517C18.1676 13.9273 21.6094 11.5716 25.3875 11.5716H43.1172V16.6686H43.1126ZM-0.0136719 45.0415H135V0.188477H-0.0136719V45.0415Z" fill="#A7ADB8"/>
</g>
<defs>
<clipPath id="clip0_5260_24902">
<rect width="135" height="45" fill="white"/>
</clipPath>
</defs>
</svg>
