<svg width="78" height="18" viewBox="0 0 78 18" fill="none" xmlns="http://www.w3.org/2000/svg">
<path d="M29.0658 10.6021H29.0419L27.5605 4.69446H25.7753L24.2694 10.5299H24.2452L22.873 4.69446H20.9668L23.2617 13.2676H25.1926L26.6373 7.43198H26.6616L28.1309 13.2676H30.0254L32.3569 4.69446H30.4869L29.0658 10.6021ZM38.173 7.59395C38.0031 7.37375 37.7703 7.20193 37.4752 7.07752C37.1794 6.95418 36.8008 6.89211 36.3398 6.89211C36.0158 6.89211 35.6841 6.97395 35.3436 7.13834C35.0037 7.30202 34.7244 7.56444 34.5059 7.92489H34.4695V4.69446H32.7452V13.2676H34.4695V10.0136C34.4695 9.38134 34.5747 8.92725 34.7853 8.6507C34.9956 8.37486 35.3356 8.23659 35.8054 8.23659C36.2181 8.23659 36.5055 8.36261 36.6675 8.6151C36.8294 8.86697 36.9103 9.24942 36.9103 9.76147V13.2676H38.6348V9.44932C38.6348 9.06526 38.6 8.71528 38.5315 8.39839C38.4625 8.08284 38.3431 7.81443 38.173 7.59395ZM45.2766 11.8867V8.65705C45.2766 8.28023 45.192 7.97837 45.0214 7.75057C44.8518 7.52222 44.6332 7.34432 44.3663 7.21616C44.0988 7.08808 43.8031 7.00195 43.4794 6.95803C43.1558 6.91402 42.8358 6.89202 42.5204 6.89202C42.1725 6.89202 41.826 6.92583 41.4824 6.99398C41.1375 7.06196 40.8285 7.17627 40.5531 7.33601C40.2779 7.49602 40.0505 7.70844 39.8734 7.97229C39.6947 8.23641 39.5937 8.56877 39.5695 8.96902H41.2936C41.326 8.63272 41.4398 8.3923 41.6342 8.24839C41.8284 8.10421 42.0952 8.03257 42.4356 8.03257C42.5892 8.03257 42.7327 8.04259 42.8666 8.06245C42.9998 8.08266 43.1175 8.12201 43.2188 8.18239C43.32 8.2424 43.4009 8.3263 43.4615 8.43461C43.5222 8.54256 43.5525 8.68898 43.5525 8.8726C43.5605 9.04925 43.5077 9.18252 43.3949 9.27473C43.2812 9.3673 43.1277 9.43751 42.9333 9.48491C42.7389 9.53339 42.5162 9.56953 42.2652 9.59278C42.0141 9.61729 41.7593 9.64993 41.5005 9.68938C41.2411 9.72954 40.984 9.78356 40.7295 9.85153C40.4746 9.91924 40.2472 10.0217 40.0491 10.1572C39.8506 10.294 39.6889 10.4758 39.5631 10.7041C39.4379 10.9323 39.3752 11.2228 39.3752 11.5746C39.3752 11.8946 39.4298 12.1708 39.5392 12.4027C39.6484 12.6356 39.8001 12.827 39.9947 12.9792C40.189 13.1313 40.4156 13.2436 40.6745 13.3158C40.9332 13.3877 41.2128 13.4238 41.5125 13.4238C41.9012 13.4238 42.2817 13.3675 42.6535 13.256C43.0261 13.1431 43.3503 12.9477 43.6255 12.6671C43.6336 12.7712 43.6477 12.8736 43.6677 12.9734C43.6878 13.0731 43.7144 13.1717 43.7467 13.2674H45.4955C45.4146 13.14 45.3575 12.9477 45.3255 12.6911C45.2928 12.4353 45.2766 12.1676 45.2766 11.8867ZM43.5524 10.8657C43.5524 10.9625 43.5426 11.0906 43.522 11.2504C43.502 11.4109 43.4472 11.5684 43.3582 11.7246C43.2691 11.8806 43.131 12.0152 42.9454 12.1268C42.7593 12.2392 42.4962 12.2952 42.1559 12.2952C42.0186 12.2952 41.8848 12.2833 41.7553 12.2587C41.6256 12.235 41.5125 12.1926 41.4153 12.1328C41.3183 12.0728 41.2411 11.9908 41.1845 11.8866C41.1281 11.7826 41.0995 11.6549 41.0995 11.5029C41.0995 11.3429 41.1282 11.21 41.1845 11.1064C41.2412 11.0028 41.3162 10.9164 41.4095 10.8482C41.5021 10.7802 41.6116 10.7262 41.7371 10.6858C41.8625 10.6459 41.9898 10.614 42.1198 10.59C42.257 10.5663 42.395 10.5458 42.5322 10.5299C42.6704 10.5142 42.8018 10.4936 42.927 10.47C43.0529 10.446 43.1699 10.4156 43.2794 10.3796C43.3887 10.3435 43.4795 10.2942 43.5525 10.2298V10.8657H43.5524ZM48.4946 5.1989H46.77V7.05972H45.7262V8.20027H46.77V11.8627C46.77 12.1753 46.8232 12.4272 46.9281 12.6192C47.0335 12.811 47.177 12.96 47.3589 13.0638C47.5412 13.1678 47.7518 13.2377 47.9907 13.2736C48.2288 13.3094 48.4829 13.3277 48.7494 13.3277C48.9201 13.3277 49.0936 13.3233 49.272 13.316C49.4497 13.3079 49.6115 13.2922 49.7576 13.2676V11.9466C49.6763 11.9629 49.5914 11.9754 49.5021 11.9826C49.4134 11.9908 49.3202 11.9951 49.223 11.9951C48.9318 11.9951 48.7373 11.9466 48.64 11.8506C48.5433 11.7547 48.4947 11.5625 48.4947 11.2742V8.20027H49.7576V7.05972H48.4947V5.1989H48.4946ZM55.6221 10.5481C55.5089 10.352 55.359 10.1879 55.173 10.0555C54.9869 9.9238 54.7739 9.81746 54.5356 9.73696C54.2964 9.65736 54.0516 9.58992 53.8005 9.53357C53.5579 9.47731 53.3194 9.42526 53.0846 9.37714C52.8498 9.32893 52.6409 9.27491 52.4587 9.21534C52.2768 9.15506 52.1296 9.07751 52.0161 8.98074C51.9024 8.88486 51.8463 8.76107 51.8463 8.60875C51.8463 8.48067 51.8778 8.37871 51.943 8.30251C52.008 8.22684 52.0869 8.16861 52.18 8.12819C52.2732 8.08847 52.3757 8.06263 52.4894 8.05019C52.6027 8.03839 52.7083 8.03275 52.8051 8.03275C53.1129 8.03275 53.3801 8.09053 53.6072 8.20662C53.8331 8.32263 53.959 8.54489 53.9828 8.87287H55.6221C55.5898 8.48881 55.4908 8.17085 55.3247 7.918C55.1591 7.66613 54.9502 7.464 54.6995 7.31213C54.449 7.15999 54.1634 7.05212 53.8432 6.9879C53.5235 6.92377 53.1939 6.89202 52.8544 6.89202C52.5137 6.89202 52.1817 6.92207 51.8587 6.98146C51.5341 7.04184 51.2429 7.1463 50.9841 7.29406C50.7247 7.44208 50.5167 7.64386 50.3584 7.90029C50.2004 8.15636 50.1215 8.48497 50.1215 8.88477C50.1215 9.15702 50.1786 9.3876 50.292 9.57543C50.4043 9.76379 50.555 9.91933 50.7404 10.0436C50.9272 10.1675 51.1398 10.268 51.3785 10.3435C51.6173 10.4204 51.8622 10.4859 52.1127 10.5421C52.7286 10.6704 53.2084 10.798 53.5522 10.9265C53.8963 11.0543 54.0683 11.2464 54.0683 11.5028C54.0683 11.6548 54.0322 11.7802 53.959 11.8804C53.886 11.981 53.7951 12.0606 53.686 12.1206C53.576 12.181 53.4545 12.2252 53.3216 12.2527C53.188 12.2809 53.0601 12.2951 52.9388 12.2951C52.7688 12.2951 52.6048 12.2748 52.4474 12.235C52.2892 12.1949 52.1496 12.1327 52.0282 12.0486C51.9069 11.9647 51.8072 11.8568 51.7305 11.7244C51.6541 11.5922 51.6148 11.4347 51.6148 11.2502H49.9758C49.9923 11.6665 50.0871 12.0129 50.2617 12.2889C50.435 12.5651 50.6575 12.787 50.9292 12.9554C51.2003 13.1232 51.5103 13.2436 51.8588 13.3158C52.2062 13.3877 52.5625 13.4238 52.9263 13.4238C53.2826 13.4238 53.6329 13.3895 53.9772 13.322C54.3212 13.2538 54.6269 13.1356 54.8941 12.9672C55.1618 12.7994 55.3774 12.5773 55.5439 12.301C55.7094 12.0245 55.7922 11.6823 55.7922 11.274C55.792 10.9856 55.7354 10.7442 55.6221 10.5481ZM59.0465 4.69446L55.7682 13.2676H57.6868L58.3665 11.3583H61.6091L62.2641 13.2676H64.2439L61.002 4.69446H59.0465ZM58.8646 9.95376L59.9939 6.80768H60.0181L61.1112 9.95376H58.8646ZM70.2059 7.90038C69.9714 7.59637 69.6756 7.35193 69.3193 7.16813C68.9629 6.9837 68.5384 6.89202 68.0448 6.89202C67.6557 6.89202 67.2998 6.96769 66.9762 7.11983C66.6516 7.27215 66.3851 7.51632 66.1748 7.85253H66.15V7.05972H64.5102V15.4412H66.2356V12.4994H66.259C66.4692 12.8039 66.7392 13.0338 67.0672 13.1893C67.3943 13.3454 67.7528 13.4239 68.1415 13.4239C68.6032 13.4239 69.0056 13.3352 69.3496 13.1595C69.6937 12.9837 69.9811 12.7472 70.2118 12.4509C70.4429 12.1546 70.6141 11.8148 70.7283 11.4305C70.8407 11.0461 70.8981 10.6459 70.8981 10.2298C70.8981 9.78955 70.8407 9.36748 70.7283 8.96285C70.6143 8.55911 70.4406 8.20466 70.2059 7.90038ZM69.1015 10.9142C69.0523 11.1545 68.9692 11.3642 68.8521 11.5444C68.7348 11.7246 68.5808 11.8713 68.3899 11.9826C68.2003 12.0949 67.9631 12.1512 67.68 12.1512C67.4044 12.1512 67.1706 12.0948 66.9763 11.9826C66.7818 11.8713 66.626 11.7246 66.5085 11.5444C66.3911 11.3642 66.3063 11.1545 66.2535 10.9142C66.2006 10.6744 66.1749 10.4299 66.1749 10.1825C66.1749 9.92541 66.1984 9.67739 66.247 9.43778C66.2962 9.19754 66.3787 8.98557 66.4965 8.80051C66.6131 8.61689 66.7674 8.46681 66.9582 8.35098C67.148 8.23498 67.3842 8.17621 67.6681 8.17621C67.943 8.17621 68.1766 8.23498 68.3662 8.35098C68.5564 8.46681 68.7127 8.61841 68.8338 8.80686C68.955 8.99505 69.0419 9.20953 69.0948 9.44932C69.1478 9.68956 69.1733 9.934 69.1733 10.1824C69.1733 10.4299 69.1497 10.6744 69.1015 10.9142ZM77.6009 8.96285C77.4874 8.55902 77.3135 8.20457 77.0785 7.90038C76.8437 7.59637 76.5488 7.35193 76.1925 7.16813C75.836 6.9837 75.4106 6.89202 74.9168 6.89202C74.5287 6.89202 74.1722 6.96769 73.8487 7.11983C73.5248 7.27215 73.2576 7.51632 73.0471 7.85253H73.0234V7.05972H71.3837V15.4412H73.1078V12.4994H73.1321C73.3426 12.8039 73.6123 13.0338 73.9398 13.1893C74.2674 13.3454 74.6261 13.4239 75.0148 13.4239C75.4758 13.4239 75.8784 13.3352 76.223 13.1595C76.5665 12.9837 76.8545 12.7472 77.0848 12.4509C77.3161 12.1546 77.4874 11.8148 77.601 11.4305C77.7148 11.0461 77.7712 10.6459 77.7712 10.2298C77.7711 9.78964 77.7148 9.36757 77.6009 8.96285ZM75.9736 10.9142C75.9254 11.1545 75.8423 11.3642 75.7251 11.5444C75.6073 11.7246 75.4534 11.8713 75.2632 11.9826C75.0734 12.0949 74.8364 12.1512 74.553 12.1512C74.2776 12.1512 74.0428 12.0948 73.8487 11.9826C73.6541 11.8713 73.4987 11.7246 73.3809 11.5444C73.2641 11.3642 73.1786 11.1545 73.1259 10.9142C73.0733 10.6744 73.0472 10.4299 73.0472 10.1825C73.0472 9.92541 73.072 9.67739 73.1202 9.43778C73.1687 9.19754 73.2519 8.98557 73.3691 8.80051C73.4863 8.61689 73.6404 8.46681 73.8306 8.35098C74.0203 8.23498 74.2572 8.17621 74.5409 8.17621C74.8161 8.17621 75.0486 8.23498 75.2386 8.35098C75.4294 8.46681 75.5848 8.61841 75.7064 8.80686C75.8283 8.99505 75.9154 9.20953 75.9678 9.44932C76.021 9.68956 76.0467 9.934 76.0467 10.1824C76.0467 10.4299 76.0222 10.6744 75.9736 10.9142Z" fill="#455A64"/>
<path d="M0 18L1.27111 13.3778C0.487033 12.0254 0.0744884 10.4909 0.0751235 8.9188C0.0771196 4.00111 4.09641 0 9.03487 0C11.4317 0.00117417 13.6813 0.930031 15.3728 2.61587C17.0645 4.3017 17.9955 6.54283 17.9945 8.92585C17.9925 13.8438 13.9729 17.8451 9.03496 17.8451C9.03469 17.8451 9.03523 17.8451 9.03496 17.8451H9.03133C7.53177 17.8446 6.05833 17.4701 4.74975 16.7596L0 18ZM4.96967 15.1449L5.24159 15.3054C6.38495 15.9808 7.69562 16.3384 9.03179 16.3388H9.03487C13.1394 16.3388 16.4801 13.0131 16.4817 8.9254C16.4824 6.94457 15.7086 5.08189 14.3026 3.68066C12.8966 2.27933 11.0268 1.50718 9.03778 1.50655C4.93012 1.50655 1.58939 4.83197 1.58776 8.91943C1.58721 10.3201 1.98088 11.6844 2.72631 12.8648L2.90341 13.1453L2.15109 15.8809L4.96967 15.1449Z" fill="#25D366"/>
<path fill-rule="evenodd" clip-rule="evenodd" d="M13.5484 11.0469C13.4925 10.9541 13.3432 10.8983 13.1193 10.7866C12.8954 10.6752 11.7947 10.136 11.5895 10.0616C11.3844 9.98728 11.235 9.95007 11.0858 10.1731C10.9365 10.3963 10.5076 10.8983 10.3769 11.0468C10.2464 11.1958 10.1157 11.2144 9.89188 11.1028C9.66806 10.9912 8.94667 10.7558 8.09155 9.99649C7.42605 9.40562 6.97677 8.67574 6.84612 8.45255C6.71547 8.22955 6.83214 8.10897 6.94428 7.99779C7.04499 7.89798 7.16811 7.73739 7.28007 7.60742C7.39194 7.47709 7.42932 7.38424 7.50399 7.23539C7.57857 7.08681 7.54128 6.95648 7.4853 6.84503C7.42932 6.73348 6.98157 5.63644 6.79504 5.19035C6.61331 4.75582 6.42876 4.81453 6.2914 4.80784C6.16102 4.80116 6.01159 4.7998 5.86234 4.7998C5.71309 4.7998 5.47048 4.8558 5.26535 5.07881C5.06012 5.3019 4.48181 5.84111 4.48181 6.93797C4.48181 8.03491 5.28404 9.09464 5.396 9.24358C5.50786 9.39216 6.97459 11.6434 9.2204 12.6087C9.75452 12.8383 10.1715 12.9754 10.4966 13.0781C11.0329 13.2477 11.5209 13.2238 11.9067 13.1665C12.3368 13.1024 13.2313 12.6273 13.4178 12.1067C13.6043 11.5861 13.6043 11.14 13.5484 11.0469Z" fill="#25D366"/>
</svg>
