<svg width="70" height="18" viewBox="0 0 70 18" fill="none" xmlns="http://www.w3.org/2000/svg">
<path d="M28.4626 6.043H25.8551V13.2816H24.4623V6.043H21.8607V4.92383H28.4626V6.043Z" fill="#4D4D4D"/>
<path d="M31.5317 13.3963C30.6378 13.3963 29.934 13.113 29.4203 12.5468C28.9066 11.9805 28.6492 11.2379 28.6492 10.3194V10.0897C28.6492 9.16729 28.9043 8.41373 29.4144 7.82828C29.9246 7.24284 30.5768 6.95207 31.3713 6.9556C32.2273 6.9556 32.8728 7.20522 33.3083 7.70485C33.7437 8.20369 33.9616 8.88828 33.9616 9.75666V10.5776H30.0533C30.0916 11.0941 30.2415 11.5075 30.5032 11.8175C30.7649 12.1275 31.1362 12.2826 31.6178 12.2826C32 12.2826 32.322 12.238 32.5837 12.1478C32.8454 12.0577 33.1021 11.9268 33.3544 11.7544L33.7613 12.7074C33.5281 12.9104 33.2265 13.0758 32.856 13.2043C32.4847 13.3321 32.0438 13.3963 31.5317 13.3963ZM31.3713 8.07516C31.0235 8.07516 30.7391 8.21035 30.5173 8.47957C30.2959 8.74956 30.1503 9.10812 30.0819 9.55602H32.5806V9.4126C32.5806 9.01094 32.4824 8.68726 32.2856 8.44234C32.0888 8.19742 31.7837 8.07516 31.3713 8.07516Z" fill="#4D4D4D"/>
<path d="M36.4517 13.2815H35.059V4.32654H36.4517V13.2815Z" fill="#4D4D4D"/>
<path d="M40.5525 13.3963C39.6586 13.3963 38.9544 13.113 38.4407 12.5468C37.927 11.9805 37.67 11.2379 37.67 10.3194V10.0897C37.67 9.16729 37.9247 8.41373 38.4348 7.82828C38.945 7.24284 39.5976 6.95207 40.3921 6.9556C41.2481 6.9556 41.8936 7.20522 42.3291 7.70485C42.7645 8.20369 42.9824 8.88828 42.9824 9.75666V10.5776H39.0741C39.1124 11.0941 39.2619 11.5075 39.5236 11.8175C39.7853 12.1275 40.157 12.2826 40.6386 12.2826C41.0208 12.2826 41.3424 12.238 41.6041 12.1478C41.8659 12.0577 42.1229 11.9268 42.3752 11.7544L42.7821 12.7074C42.5489 12.9104 42.2473 13.0758 41.8768 13.2043C41.5055 13.3321 41.0642 13.3963 40.5525 13.3963ZM40.3917 8.07516C40.0439 8.07516 39.7595 8.21035 39.5377 8.47957C39.3163 8.74956 39.1707 9.10812 39.1023 9.55602H41.601V9.4126C41.601 9.01094 41.5024 8.68726 41.3056 8.44234C41.1088 8.19742 40.8045 8.07516 40.3917 8.07516Z" fill="#4D4D4D"/>
<path d="M43.7355 10.2621C43.7355 9.25582 43.9475 8.45328 44.3716 7.85412C44.7957 7.25495 45.3994 6.95557 46.1826 6.95557C46.557 6.95557 46.8809 7.03198 47.1544 7.1852C47.4271 7.33842 47.6634 7.56218 47.8621 7.85686L47.9767 7.07038H49.1688V13.1494C49.1688 13.9759 48.9243 14.6217 48.4353 15.0868C47.9462 15.5516 47.251 15.7839 46.3493 15.7839C46.0241 15.7839 45.6873 15.7412 45.3376 15.6546C44.9878 15.5688 44.6619 15.4454 44.3603 15.2847L44.6584 14.2745C44.9143 14.4006 45.1791 14.5002 45.4522 14.5731C45.7253 14.6459 46.0069 14.682 46.2972 14.682C46.8015 14.682 47.1743 14.5472 47.4149 14.2772C47.6555 14.0076 47.7757 13.6298 47.7757 13.1435V12.667L47.7588 12.6611C47.5679 12.9061 47.3426 13.0898 47.0824 13.2121C46.8222 13.3344 46.5187 13.3959 46.1709 13.3959C45.3955 13.3959 44.7953 13.1235 44.3712 12.5777C43.9471 12.0326 43.7351 11.3006 43.7351 10.382V10.2621H43.7355ZM45.1282 10.3828C45.1282 10.9644 45.239 11.4228 45.4608 11.7579C45.6826 12.0929 46.0378 12.2599 46.5269 12.2599C46.8324 12.2599 47.0863 12.1995 47.2862 12.0792C47.4873 11.9581 47.6501 11.7794 47.776 11.5424V8.82164C47.6462 8.58808 47.4811 8.40939 47.2808 8.28478C47.0797 8.16095 46.8324 8.09825 46.5382 8.09825C46.0492 8.09825 45.692 8.29614 45.4667 8.69271C45.2413 9.0885 45.1286 9.61203 45.1286 10.2625V10.3828H45.1282Z" fill="#4D4D4D"/>
<path d="M53.6702 8.34476L53.011 8.32164C52.736 8.32164 52.5087 8.37728 52.3291 8.48818C52.1495 8.59908 52.0102 8.75975 51.9109 8.97018V13.2811H50.5181V7.07002H51.7904L51.8765 7.9427H51.8937C52.0502 7.63274 52.2489 7.39096 52.4895 7.21618C52.7301 7.04259 53.013 6.9552 53.3377 6.9552C53.4292 6.9552 53.5211 6.96225 53.6127 6.97518C53.7042 6.9889 53.779 7.00497 53.8361 7.02417L53.6702 8.34476Z" fill="#4D4D4D"/>
<path d="M58.2006 13.2815C58.1587 13.1514 58.1231 13.0213 58.0945 12.8912C58.0656 12.7611 58.0437 12.6271 58.0284 12.4895C57.8183 12.7575 57.564 12.9754 57.2663 13.1439C56.9686 13.3124 56.6321 13.3967 56.2577 13.3967C55.6197 13.3967 55.1295 13.2329 54.7875 12.9061C54.4456 12.5785 54.2746 12.1204 54.2746 11.531C54.2746 10.9189 54.5078 10.4479 54.9738 10.1187C55.4397 9.78955 56.1103 9.62496 56.9854 9.62496H57.9999V9.07948C57.9999 8.75032 57.9044 8.49521 57.7135 8.31338C57.5226 8.13156 57.2436 8.04064 56.8767 8.04064C56.5406 8.04064 56.2769 8.11628 56.086 8.26754C55.8951 8.4188 55.7996 8.61669 55.7996 8.86161H54.4069C54.4069 8.34121 54.6408 7.8933 55.1087 7.51829C55.5766 7.14327 56.1948 6.95557 56.9627 6.95557C57.7002 6.95557 58.2897 7.13622 58.7307 7.4983C59.1723 7.8596 59.3926 8.39058 59.3926 9.09085V11.8519C59.3926 12.1161 59.4086 12.3629 59.4411 12.5926C59.4736 12.8222 59.5303 13.0518 59.6105 13.2815H58.2006ZM56.5613 12.2771C56.8821 12.2771 57.1697 12.2081 57.4236 12.0706C57.6775 11.9331 57.87 11.7606 57.9999 11.5541V10.498H56.9627C56.5465 10.498 56.2264 10.5968 56.0027 10.7939C55.7797 10.991 55.6678 11.2289 55.6678 11.5083C55.6678 11.7493 55.7421 11.9382 55.8912 12.0733C56.0398 12.2093 56.2636 12.2771 56.5613 12.2771Z" fill="#4D4D4D"/>
<path d="M62.0087 7.07038L62.0831 7.85686H62.0944C62.2931 7.56609 62.5424 7.34273 62.842 7.18834C63.1421 7.03316 63.4965 6.95557 63.9054 6.95557C64.3181 6.95557 64.6663 7.0453 64.9511 7.22517C65.2359 7.40504 65.4527 7.68248 65.6017 8.0575C65.7965 7.70913 66.0477 7.43874 66.3556 7.24555C66.6627 7.05236 67.0308 6.95557 67.4584 6.95557C68.0965 6.95557 68.5918 7.16522 68.9459 7.58412C69.2988 8.00342 69.4756 8.6547 69.4756 9.53875V13.2815H68.0828V9.53326C68.0828 8.99366 67.9932 8.61982 67.8137 8.41096C67.6341 8.20288 67.361 8.09825 66.9941 8.09825C66.6885 8.09825 66.4354 8.17662 66.2347 8.33376C66.0344 8.49051 65.8861 8.70878 65.7907 8.98818C65.7907 9.04539 65.7926 9.09516 65.7965 9.13748C65.8004 9.1798 65.8024 9.21977 65.8024 9.25817V13.2823H64.4096V9.53405C64.4096 9.01757 64.3181 8.64921 64.1346 8.42938C63.9511 8.20954 63.6781 8.09903 63.315 8.09903C63.0286 8.09903 62.7876 8.15272 62.5928 8.2597C62.398 8.36668 62.2431 8.52186 62.1284 8.72484V13.2826H60.7357V7.07156H62.0087V7.07038Z" fill="#4D4D4D"/>
<path d="M8.9852 18C13.9476 18 17.9704 13.9706 17.9704 9C17.9704 4.02944 13.9476 0 8.9852 0C4.02281 0 0 4.02944 0 9C0 13.9706 4.02281 18 8.9852 18Z" fill="url(#paint023_linear)"/>
<path d="M6.08194 9.6576L7.14802 12.6131C7.14802 12.6131 7.28143 12.8897 7.42422 12.8897C7.56702 12.8897 9.6894 10.678 9.6894 10.678L12.05 6.11121L6.12028 8.89503L6.08194 9.6576Z" fill="#C8DAEA"/>
<path d="M7.49543 10.4158L7.29082 12.5942C7.29082 12.5942 7.20514 13.2615 7.87139 12.5942C8.53764 11.9268 9.17533 11.4119 9.17533 11.4119" fill="#A9C6D8"/>
<path d="M6.1015 9.76335L3.90909 9.0478C3.90909 9.0478 3.64736 8.94122 3.73147 8.69983C3.74869 8.65006 3.7839 8.60774 3.88835 8.53446C4.37425 8.1951 12.8814 5.13266 12.8814 5.13266C12.8814 5.13266 13.1216 5.05155 13.2636 5.10563C13.3285 5.13031 13.37 5.15814 13.4048 5.25963C13.4174 5.29646 13.4248 5.37523 13.424 5.4536C13.4232 5.51003 13.4166 5.56215 13.4115 5.64444C13.3598 6.48186 11.8094 12.7313 11.8094 12.7313C11.8094 12.7313 11.7167 13.097 11.3842 13.1095C11.2629 13.1142 11.1158 13.0895 10.9401 12.9379C10.288 12.3759 8.03335 10.8582 7.53533 10.5247C7.50716 10.5059 7.49933 10.4816 7.49464 10.4577C7.4876 10.4225 7.52594 10.379 7.52594 10.379C7.52594 10.379 11.4515 6.88392 11.5559 6.51713C11.5641 6.48852 11.5336 6.47481 11.4925 6.48696C11.2316 6.58296 6.7122 9.44163 6.21339 9.75747C6.18326 9.77511 6.1015 9.76335 6.1015 9.76335Z" fill="white"/>
<defs>
<linearGradient id="paint023_linear" x1="8.98504" y1="17.9997" x2="8.98504" y2="2.14573e-06" gradientUnits="userSpaceOnUse">
<stop offset="1" stop-color="#1D93D2"/>
<stop offset="1" stop-color="#38B0E3"/>
</linearGradient>
</defs>
</svg>
