<svg width="139" height="47" viewBox="0 0 139 47" fill="none" xmlns="http://www.w3.org/2000/svg">
<path d="M59.1519 24.1031C59.1519 30.6269 54.0468 35.4341 47.7815 35.4341C41.5163 35.4341 36.4111 30.6269 36.4111 24.1031C36.4111 17.5333 41.5163 12.772 47.7815 12.772C54.0468 12.772 59.1519 17.5333 59.1519 24.1031ZM54.1745 24.1031C54.1745 20.0263 51.2157 17.237 47.7815 17.237C44.3474 17.237 41.3886 20.0263 41.3886 24.1031C41.3886 28.1389 44.3474 30.9691 47.7815 30.9691C51.2157 30.9691 54.1745 28.1338 54.1745 24.1031Z" fill="#A7ADB8"/>
<path d="M83.6812 24.1031C83.6812 30.6269 78.5761 35.4341 72.3108 35.4341C66.0456 35.4341 60.9404 30.6269 60.9404 24.1031C60.9404 17.5384 66.0456 12.772 72.3108 12.772C78.5761 12.772 83.6812 17.5333 83.6812 24.1031ZM78.7038 24.1031C78.7038 20.0263 75.745 17.237 72.3108 17.237C68.8767 17.237 65.9179 20.0263 65.9179 24.1031C65.9179 28.1389 68.8767 30.9691 72.3108 30.9691C75.745 30.9691 78.7038 28.1338 78.7038 24.1031Z" fill="#A7ADB8"/>
<path d="M107.188 13.4565V33.7994C107.188 42.1674 102.251 45.5851 96.4155 45.5851C90.9219 45.5851 87.6155 41.912 86.3686 38.9081L90.7022 37.1047C91.4738 38.9489 93.3646 41.1252 96.4103 41.1252C100.146 41.1252 102.461 38.8212 102.461 34.4839V32.8543H102.287C101.173 34.2285 99.0268 35.429 96.3184 35.429C90.651 35.429 85.459 30.494 85.459 24.1439C85.459 17.7478 90.651 12.772 96.3184 12.772C99.0217 12.772 101.168 13.9725 102.287 15.3059H102.461V13.4616H107.188V13.4565ZM102.814 24.1439C102.814 20.154 100.151 17.237 96.763 17.237C93.3288 17.237 90.4517 20.154 90.4517 24.1439C90.4517 28.0929 93.3288 30.9691 96.763 30.9691C100.151 30.9691 102.814 28.0929 102.814 24.1439Z" fill="#A7ADB8"/>
<path d="M114.982 1.53271V34.7392H110.127V1.53271H114.982Z" fill="#A7ADB8"/>
<path d="M133.899 27.8321L137.763 30.4069C136.516 32.2512 133.511 35.4288 128.319 35.4288C121.88 35.4288 117.071 30.4529 117.071 24.0977C117.071 17.3593 121.921 12.7666 127.762 12.7666C133.644 12.7666 136.521 17.4462 137.461 19.975L137.978 21.2624L122.825 27.5358C123.986 29.8092 125.789 30.9689 128.319 30.9689C130.854 30.9689 132.612 29.7224 133.899 27.8321ZM122.008 23.7554L132.136 19.5509C131.579 18.1358 129.903 17.1499 127.931 17.1499C125.401 17.1499 121.88 19.3824 122.008 23.7554Z" fill="#A7ADB8"/>
<path d="M18.0338 21.1552V16.348H34.2386C34.397 17.1858 34.4788 18.1769 34.4788 19.2497C34.4788 22.8564 33.4925 27.3163 30.3139 30.4939C27.2222 33.7124 23.2719 35.4289 18.039 35.4289C8.33962 35.4289 0.183594 27.5309 0.183594 17.8346C0.183594 8.13828 8.33962 0.240234 18.039 0.240234C23.4048 0.240234 27.2273 2.34502 30.0993 5.08839L26.706 8.48056C24.6466 6.54947 21.8563 5.04752 18.0338 5.04752C10.951 5.04752 5.41142 10.7539 5.41142 17.8346C5.41142 24.9152 10.951 30.6216 18.0338 30.6216C22.628 30.6216 25.2445 28.7774 26.9207 27.1018C28.28 25.7428 29.1743 23.8015 29.5269 21.1501L18.0338 21.1552Z" fill="#A7ADB8"/>
</svg>
