<svg width="91" height="32" viewBox="0 0 91 32" fill="none" xmlns="http://www.w3.org/2000/svg">
<path fill-rule="evenodd" clip-rule="evenodd" d="M85.3142 12.5388C85.3142 11.5859 86.0666 10.7834 87.0195 10.7834C87.9725 10.7834 88.7248 11.5859 88.7248 12.5388C88.7248 13.4918 87.9725 14.2943 87.0195 14.2943C86.0666 14.3444 85.3142 13.5419 85.3142 12.5388ZM86.9694 13.9432C87.6715 13.9432 88.2734 13.3413 88.2734 12.589C88.2734 11.8366 87.6715 11.2348 86.9694 11.2348C86.2672 11.2348 85.6653 11.8366 85.6653 12.589C85.6653 13.3413 86.2672 13.9432 86.9694 13.9432ZM86.7687 13.3413H86.4176V11.7865H87.0697C87.2201 11.7865 87.3706 11.7865 87.4709 11.8868C87.6214 11.9871 87.6715 12.1376 87.6715 12.288C87.6715 12.4887 87.5712 12.6391 87.4207 12.6893L87.7217 13.3915H87.2201L86.9694 12.7896H86.7186V13.3413H86.7687ZM86.7687 12.4385H86.9694C87.0697 12.4385 87.1198 12.4385 87.17 12.3884C87.2201 12.3382 87.2703 12.288 87.2703 12.1877C87.2703 12.1376 87.2201 12.0373 87.17 12.0373C87.1198 11.9871 87.0195 11.9871 86.9694 11.9871H86.7687V12.4385Z" fill="#A7ADB8"/>
<path fill-rule="evenodd" clip-rule="evenodd" d="M60.9889 0.652019L60.5375 3.71149C59.5344 3.15979 58.7821 2.95916 57.9796 2.95916C55.8731 2.95916 54.3684 5.11584 54.3684 8.17532C54.3684 10.2818 55.3715 11.5859 57.0266 11.5859C57.7288 11.5859 58.4811 11.3351 59.4341 10.8837L58.9325 14.0936C57.8793 14.3946 57.2272 14.4949 56.4248 14.4949C53.3653 14.4949 51.4594 12.1877 51.4594 8.47625C51.4594 3.46072 54.0675 0 57.8793 0C58.3808 0 58.7821 0.050155 59.1833 0.150466L60.387 0.451398C60.6378 0.551709 60.7381 0.551708 60.9889 0.652019Z" fill="#A7ADB8"/>
<path fill-rule="evenodd" clip-rule="evenodd" d="M51.5095 2.75853C51.4092 2.70837 51.3089 2.70837 51.2086 2.70837C50.3058 2.70837 49.7541 3.20993 48.8513 4.56412L49.1021 2.85884H46.5943L44.8389 14.1939H47.6977C48.751 7.22236 49.0018 6.06878 50.356 6.06878C50.4563 6.06878 50.4563 6.06878 50.5566 6.06878C50.8074 4.71459 51.1584 3.71148 51.66 2.75853H51.5095Z" fill="#A7ADB8"/>
<path fill-rule="evenodd" clip-rule="evenodd" d="M34.5069 14.0435C33.7545 14.2943 33.1025 14.4448 32.4505 14.4448C30.996 14.4448 30.1935 13.5921 30.1935 11.937C30.1935 11.6361 30.2437 11.285 30.2938 10.8838L30.4944 9.78034L30.6449 8.87755L31.8988 1.15363H34.7075L34.3564 2.80875H35.8109L35.4097 5.5673H33.9552L33.2028 10.2819C33.1527 10.4825 33.1527 10.633 33.1527 10.7333C33.1527 11.3352 33.4536 11.5859 34.1056 11.5859C34.4567 11.5859 34.6573 11.5358 34.858 11.4856L34.5069 14.0435Z" fill="#A7ADB8"/>
<path fill-rule="evenodd" clip-rule="evenodd" d="M23.3222 6.4199C23.3222 7.8744 23.9742 8.82735 25.4789 9.57968C26.6325 10.1314 26.8331 10.332 26.8331 10.8336C26.8331 11.5357 26.3315 11.8868 25.2281 11.8868C24.3755 11.8868 23.6232 11.7364 22.6702 11.4354L22.269 14.0435L22.4194 14.0937L22.921 14.194C23.1216 14.2441 23.3222 14.2943 23.6733 14.2943C24.3253 14.3444 24.877 14.3946 25.2281 14.3946C28.2375 14.3946 29.5916 13.1909 29.5916 10.6329C29.5916 9.07813 29.0399 8.17533 27.5854 7.47316C26.3817 6.92145 26.2814 6.77098 26.2814 6.21927C26.2814 5.61741 26.7328 5.31648 27.6857 5.31648C28.2375 5.31648 28.9898 5.41679 29.7421 5.5171L30.1434 2.90902C29.391 2.75855 28.2876 2.65824 27.6356 2.65824C24.3755 2.60809 23.2721 4.31337 23.3222 6.4199Z" fill="#A7ADB8"/>
<path fill-rule="evenodd" clip-rule="evenodd" d="M83.6591 14.194H80.9507L81.1012 13.0905C80.3488 13.9432 79.4962 14.3444 78.4931 14.3444C76.3866 14.3444 75.0324 12.4887 75.0324 9.62983C75.0324 5.86818 77.1389 2.65823 79.6467 2.65823C80.7501 2.65823 81.5526 3.15979 82.3551 4.21305L82.9569 0.200623H85.7656L83.6591 14.194ZM79.4461 11.5357C80.8002 11.5357 81.703 9.98091 81.703 7.72392C81.703 6.26942 81.1513 5.46693 80.1984 5.46693C78.8943 5.46693 77.9915 7.0719 77.9915 9.27874C77.9915 10.7332 78.4931 11.5357 79.4461 11.5357Z" fill="#A7ADB8"/>
<path fill-rule="evenodd" clip-rule="evenodd" d="M43.5348 13.9432C42.5819 14.2441 41.6289 14.3946 40.6258 14.3946C37.466 14.3946 35.8109 12.6391 35.8109 9.27872C35.8109 5.3666 37.9174 2.50775 40.7763 2.50775C43.1336 2.50775 44.5881 4.11272 44.5881 6.67064C44.5881 7.47313 44.4878 8.32577 44.237 9.47934H38.5193C38.4691 9.67996 38.4691 9.73012 38.4691 9.83043C38.4691 11.1846 39.3218 11.8366 40.9769 11.8366C41.98 11.8366 42.8828 11.5859 43.9361 11.1345L43.5348 13.9432ZM41.9299 7.1722C41.98 6.92142 41.98 6.7208 41.98 6.62049C41.98 5.71769 41.4785 5.16598 40.6258 5.16598C39.723 5.16598 39.071 5.86816 38.8202 7.22235H41.9299V7.1722Z" fill="#A7ADB8"/>
<path fill-rule="evenodd" clip-rule="evenodd" d="M11.8868 14.194H9.07812L10.6831 3.46073L7.02175 14.194H5.11585L4.86507 3.51089L3.15979 14.194H0.501556L2.70839 0.250793H6.77097L6.92144 8.87751L9.67998 0.250793H14.0937L11.8868 14.194Z" fill="#A7ADB8"/>
<path fill-rule="evenodd" clip-rule="evenodd" d="M19.2095 9.12823C18.9086 9.07807 18.7581 9.07807 18.5575 9.07807C16.9525 9.07807 16.15 9.67993 16.15 10.7834C16.15 11.4855 16.5513 11.9369 17.2033 11.9369C18.3067 11.9871 19.1593 10.7834 19.2095 9.12823ZM21.2659 14.1939H18.9086L18.9587 12.9902C18.2565 13.9431 17.3036 14.3444 15.9494 14.3444C14.3946 14.3444 13.3413 13.0905 13.3413 11.2348C13.3413 8.47621 15.1971 6.87124 18.3568 6.87124C18.7079 6.87124 19.1092 6.92139 19.5104 6.97155C19.6107 6.5703 19.6107 6.41984 19.6107 6.21922C19.6107 5.46689 19.1092 5.16596 17.8051 5.16596C17.0027 5.16596 16.0999 5.31642 15.4478 5.51704L15.0968 5.66751L14.846 5.76782L15.2472 3.2099C16.6516 2.7585 17.6045 2.60803 18.6578 2.60803C21.1154 2.60803 22.3693 3.76161 22.3693 5.91829C22.3693 6.46999 22.3191 6.87124 22.1185 8.17528L21.5166 12.1877L21.4163 12.8899L21.3662 13.4917L21.316 13.893L21.2659 14.1939Z" fill="#A7ADB8"/>
<path fill-rule="evenodd" clip-rule="evenodd" d="M65.9041 9.12827C65.6032 9.07812 65.4527 9.07812 65.2521 9.07812C63.6471 9.07812 62.7945 9.67998 62.7945 10.7834C62.7945 11.4856 63.1957 11.937 63.8478 11.937C65.0013 11.9871 65.854 10.7834 65.9041 9.12827ZM67.9605 14.194H65.6032L65.6533 12.9902C64.9512 13.9432 63.9982 14.3444 62.644 14.3444C61.0892 14.3444 60.0359 13.0905 60.0359 11.2348C60.0359 8.47625 61.8917 6.87128 65.0515 6.87128C65.3524 6.87128 65.8038 6.92144 66.2051 6.97159C66.3054 6.57035 66.3054 6.41988 66.3054 6.21926C66.3054 5.46693 65.8038 5.166 64.4998 5.166C63.6973 5.166 62.7945 5.31646 62.1425 5.51709L61.7412 5.6174L61.4905 5.71771L61.8917 3.15979C63.296 2.70839 64.249 2.55792 65.3023 2.55792C67.7599 2.55792 69.0138 3.71149 69.0138 5.86817C69.0138 6.41988 68.9636 6.82113 68.763 8.12516L68.1611 12.1376L68.0608 12.8398L67.9605 13.3915L67.9103 13.7927L67.9605 14.194Z" fill="#A7ADB8"/>
<path fill-rule="evenodd" clip-rule="evenodd" d="M75.885 2.75853C75.7847 2.70837 75.6844 2.70837 75.5841 2.70837C74.6813 2.70837 74.1296 3.20993 73.2268 4.56412L73.4776 2.85884H70.9197L69.1642 14.1939H72.0231C73.0763 7.22236 73.3271 6.06878 74.6813 6.06878C74.7816 6.06878 74.7816 6.06878 74.8819 6.06878C75.1327 4.71459 75.4838 3.71148 75.9853 2.75853H75.885Z" fill="#A7ADB8"/>
<path fill-rule="evenodd" clip-rule="evenodd" d="M63.9481 25.2281C63.9481 27.7861 63.1456 29.3409 61.8917 29.3409C60.9889 29.391 60.4372 28.3378 60.4372 26.8331C60.4372 25.0275 61.2397 22.9712 62.5437 22.9712C63.597 22.921 63.9481 24.0244 63.9481 25.2281ZM66.7568 25.2281C66.7568 22.3693 65.3524 20.1123 62.6942 20.1123C59.6347 20.1123 57.6285 22.8207 57.6285 26.783C57.6285 29.6418 58.8322 31.9991 61.6911 31.9991C64.6502 32.0493 66.7568 29.9929 66.7568 25.2281Z" fill="#A7ADB8"/>
<path fill-rule="evenodd" clip-rule="evenodd" d="M58.5814 18.1562L58.13 21.2157C57.1771 20.664 56.5251 20.4634 55.7727 20.4634C53.8167 20.4634 52.4123 22.6201 52.4123 25.6795C52.4123 27.7861 53.3151 29.0901 54.8699 29.0901C55.522 29.0901 56.2743 28.8393 57.1269 28.3879L56.6755 31.5979C55.7226 31.8988 55.0706 31.9991 54.3182 31.9991C51.4594 31.9991 49.6538 29.692 49.6538 25.9805C49.6538 20.9649 52.1114 17.5042 55.6724 17.5042C56.1238 17.5042 56.5251 17.5544 56.8761 17.6547L57.9796 17.9556C58.2303 18.0058 58.3306 18.0559 58.5814 18.1562Z" fill="#A7ADB8"/>
<path fill-rule="evenodd" clip-rule="evenodd" d="M40.9769 20.2126C40.8766 20.1624 40.7763 20.1624 40.676 20.1624C39.8233 20.1624 39.3218 20.664 38.4691 22.0182L38.7199 20.3129H36.3125L34.7075 31.648H37.3657C38.3187 24.6764 38.5694 23.5228 39.8233 23.5228C39.9236 23.5228 39.9236 23.5228 40.024 23.573C40.2747 22.2188 40.5757 21.2157 41.0271 20.2627L40.9769 20.2126Z" fill="#A7ADB8"/>
<path fill-rule="evenodd" clip-rule="evenodd" d="M75.6844 31.5477H73.1766L73.3271 30.4443C72.6249 31.2969 71.8224 31.6982 70.8695 31.6982C68.9636 31.6982 67.6595 29.8424 67.6595 26.9836C67.6595 23.2219 69.6658 20.012 71.9729 20.012C73.0262 20.012 73.7785 20.5135 74.5308 21.5668L75.1327 17.5544H77.7408L75.6844 31.5477ZM71.7221 28.8895C72.976 28.8895 73.8287 27.3347 73.8287 25.0777C73.8287 23.6232 73.3271 22.8708 72.4243 22.8708C71.2206 22.8708 70.3679 24.4257 70.3679 26.6827C70.3679 28.1372 70.8193 28.8895 71.7221 28.8895Z" fill="#A7ADB8"/>
<path fill-rule="evenodd" clip-rule="evenodd" d="M16.0999 31.4976C15.1971 31.7985 14.3444 31.949 13.3915 31.949C10.4323 31.949 8.87749 30.1935 8.87749 26.8331C8.87749 22.9711 10.8336 20.0621 13.4918 20.0621C15.6986 20.0621 17.0528 21.6671 17.0528 24.225C17.0528 25.0275 16.9525 25.8802 16.7017 27.0337H11.4354C11.3853 27.2343 11.3853 27.2845 11.3853 27.3848C11.3853 28.6889 12.1877 29.3409 13.7426 29.3409C14.6955 29.3409 15.5482 29.0901 16.5011 28.6387L16.0999 31.4976ZM14.5952 24.7767C14.5952 24.526 14.6454 24.3253 14.6454 24.225C14.6454 23.3222 14.194 22.7705 13.3915 22.7705C12.5388 22.7705 11.937 23.4727 11.6862 24.8269H14.5952V24.7767Z" fill="#A7ADB8"/>
<path fill-rule="evenodd" clip-rule="evenodd" d="M47.6977 31.4976C46.7949 31.7985 45.9423 31.949 44.9893 31.949C41.98 31.949 40.4754 30.1935 40.4754 26.8331C40.4754 22.9711 42.4314 20.0621 45.0896 20.0621C47.2965 20.0621 48.7008 21.6671 48.7008 24.225C48.7008 25.0275 48.6005 25.8802 48.3497 27.0337H43.0834C43.0333 27.2343 43.0333 27.2845 43.0333 27.3848C43.0333 28.6889 43.8358 29.3409 45.3906 29.3409C46.3435 29.3409 47.1962 29.0901 48.1491 28.6387L47.6977 31.4976ZM46.1931 24.7767C46.2432 24.526 46.2432 24.3253 46.2432 24.225C46.2432 23.3222 45.7918 22.7705 44.9893 22.7705C44.1367 22.7705 43.5348 23.4727 43.2841 24.8269H46.1931V24.7767Z" fill="#A7ADB8"/>
<path fill-rule="evenodd" clip-rule="evenodd" d="M84.7124 31.4976C83.8096 31.7985 82.9068 31.949 82.004 31.949C79.0448 31.949 77.49 30.1935 77.49 26.8331C77.49 22.9711 79.4962 20.0621 82.1544 20.0621C84.3613 20.0621 85.7155 21.6671 85.7155 24.225C85.7155 25.0275 85.6152 25.8802 85.3644 27.0337H80.0981C80.0479 27.2343 80.0479 27.2845 80.0479 27.3848C80.0479 28.6889 80.8504 29.3409 82.4052 29.3409C83.3582 29.3409 84.2108 29.0901 85.1638 28.6387L84.7124 31.4976ZM83.2077 24.7767C83.2077 24.526 83.2579 24.3253 83.2579 24.225C83.2579 23.3222 82.8065 22.7705 82.004 22.7705C81.1513 22.7705 80.5495 23.4727 80.2987 24.8269H83.2077V24.7767Z" fill="#A7ADB8"/>
<path fill-rule="evenodd" clip-rule="evenodd" d="M8.22548 20.7142C7.72392 20.3631 6.97159 20.0622 6.01864 20.0622C4.91522 20.0622 4.11274 20.3129 4.11274 21.4164C4.11274 23.4226 8.02485 22.6702 8.02485 26.9836C8.02485 30.8957 5.46693 31.949 3.10963 31.949C2.05637 31.949 0.852641 31.5979 0 31.1966L0.652019 28.3378C1.20373 28.8393 2.25699 29.1403 3.15979 29.1403C4.01243 29.1403 5.31647 28.8895 5.31647 27.435C5.31647 25.1279 1.40435 25.9805 1.40435 21.9681C1.40435 18.3067 3.7115 17.2033 5.91833 17.2033C7.17221 17.2033 8.32578 17.4039 9.02796 17.8553L8.22548 20.7142Z" fill="#A7ADB8"/>
<path fill-rule="evenodd" clip-rule="evenodd" d="M23.8739 31.4975C23.3222 31.7483 22.5699 31.9489 21.5166 31.9489C19.2095 31.9489 17.755 29.6418 17.755 26.7829C17.755 23.0714 19.8615 20.1624 22.921 20.1624C23.573 20.1624 24.6263 20.4633 25.4288 20.9147L24.8269 23.6231C24.225 23.2219 23.6232 23.0213 23.0213 23.0213C21.617 23.0213 20.5637 24.3253 20.5637 26.6325C20.5637 27.9866 21.316 29.0901 22.4696 29.0901C23.1718 29.0901 23.6733 28.9396 24.225 28.5885L23.8739 31.4975Z" fill="#A7ADB8"/>
<path fill-rule="evenodd" clip-rule="evenodd" d="M33.8047 28.6387C33.6542 29.5917 33.5539 30.5446 33.4536 31.5477H30.8957L31.0963 29.7421H31.0462C30.2437 30.996 29.4412 31.8487 27.9365 31.8487C26.3316 31.8487 25.4789 30.1434 25.4789 27.9867C25.4789 27.2344 25.5291 26.783 25.6795 25.6294L26.3817 20.3631H29.2406L28.5384 25.6294C28.4381 26.1811 28.3378 26.783 28.3378 27.3347C28.3378 27.9867 28.6387 28.6889 29.4412 28.6387C30.5948 28.6387 31.2969 27.2344 31.4976 25.5291L32.3 20.3129H35.0586L33.8047 28.6387Z" fill="#A7ADB8"/>
<path fill-rule="evenodd" clip-rule="evenodd" d="M87.3706 31.4474H86.9192V29.5916H86.3173V29.1904H87.9724V29.5916H87.3706V31.4474Z" fill="#A7ADB8"/>
<path fill-rule="evenodd" clip-rule="evenodd" d="M90.2294 31.4474H89.8282V29.5415L89.427 31.4474H89.0257L88.6245 29.5415V31.4474H88.2232V29.1904H88.8753L89.2263 30.996H89.2765L89.6276 29.1904H90.2294V31.4474Z" fill="#A7ADB8"/>
</svg>
