<svg width="34" height="32" viewBox="0 0 34 32" fill="none" xmlns="http://www.w3.org/2000/svg">
<ellipse cx="17.1497" cy="16" rx="16.3966" ry="16" fill="#70AF60"/>
<path d="M14.8726 14.5245C14.2896 15.0815 13.5366 15.36 12.6135 15.36C11.7026 15.36 10.9496 15.0815 10.3545 14.5245C9.77147 13.9556 9.47998 13.2326 9.47998 12.3556C9.47998 11.4785 9.77147 10.7615 10.3545 10.2045C10.9496 9.63556 11.7087 9.35112 12.6318 9.35112C13.0933 9.35112 13.5184 9.42816 13.9071 9.58223C14.2957 9.72445 14.6236 9.93186 14.8908 10.2045C15.1702 10.4652 15.3827 10.7852 15.5285 11.1645C15.6864 11.5319 15.7653 11.9289 15.7653 12.3556C15.7653 13.2326 15.4678 13.9556 14.8726 14.5245ZM11.3383 22.2933L19.0811 9.76001H21.8503L14.1075 22.2933H11.3383ZM12.6318 13.3689C12.9354 13.3689 13.1844 13.2741 13.3787 13.0845C13.573 12.8948 13.6702 12.6519 13.6702 12.3556C13.6702 12.0593 13.573 11.8163 13.3787 11.6267C13.1844 11.437 12.9354 11.3422 12.6318 11.3422C12.3281 11.3422 12.0791 11.437 11.8848 11.6267C11.6905 11.8163 11.5933 12.0593 11.5933 12.3556C11.5933 12.6519 11.6905 12.8948 11.8848 13.0845C12.0913 13.2741 12.3403 13.3689 12.6318 13.3689ZM23.1073 21.4578C22.5243 22.0148 21.7713 22.2933 20.8483 22.2933C19.9373 22.2933 19.1843 22.0148 18.5892 21.4578C18.0062 20.9007 17.7147 20.1837 17.7147 19.3067C17.7147 18.4296 18.0062 17.7126 18.5892 17.1556C19.1843 16.5867 19.9373 16.3022 20.8483 16.3022C21.7713 16.3022 22.5243 16.5867 23.1073 17.1556C23.7025 17.7126 24 18.4296 24 19.3067C24 20.1837 23.7025 20.9007 23.1073 21.4578ZM20.8483 20.32C20.994 20.32 21.1337 20.2963 21.2673 20.2489C21.4009 20.1896 21.5102 20.1185 21.5952 20.0356C21.6924 19.9407 21.7652 19.8341 21.8138 19.7156C21.8624 19.5852 21.8867 19.4489 21.8867 19.3067C21.8867 18.9985 21.7895 18.7556 21.5952 18.5778C21.4009 18.3882 21.1519 18.2933 20.8483 18.2933C20.5446 18.2933 20.2956 18.3882 20.1013 18.5778C19.907 18.7674 19.8098 19.0104 19.8098 19.3067C19.8098 19.5911 19.907 19.8341 20.1013 20.0356C20.3078 20.2252 20.5568 20.32 20.8483 20.32Z" fill="white"/>
</svg>
