<svg width="65" height="64" viewBox="0 0 65 64" fill="none" xmlns="http://www.w3.org/2000/svg">
<path d="M62.8292 0H1.2768C0.571621 0 0 0.571611 0 1.27679V62.7232C0 63.4284 0.571621 64 1.2768 64H62.8292C63.5343 64 64.106 63.4284 64.106 62.7232V1.27768C64.106 0.572508 63.5343 0 62.8292 0ZM61.5515 61.4464H2.5527V2.55448H61.5515V61.4464Z" fill="#2E3346"/>
<path d="M9.43793 55.8951H54.6163C55.3215 55.8951 55.8931 55.3235 55.8931 54.6183V9.43987C55.8931 8.7347 55.3215 8.16309 54.6163 8.16309H9.43793C8.73275 8.16309 8.16113 8.7347 8.16113 9.43987V54.6183C8.16113 55.3235 8.73275 55.8951 9.43793 55.8951ZM19.6051 10.7167L53.3396 44.4502V51.5349L12.5213 10.7167H19.6051ZM41.0016 10.7167L53.3396 23.0546V30.312L39.3393 16.3118C38.8407 15.8132 38.0323 15.8132 37.5336 16.3118C37.035 16.8104 37.035 17.6188 37.5336 18.1174L53.3404 33.9242V40.8389L23.2182 10.7167H41.0016ZM51.5339 53.3406H44.5177C44.5044 53.3255 44.4919 53.3103 44.4777 53.2961L10.7156 19.534V12.5223L51.5339 53.3406ZM40.9099 53.3406H34.006C33.9891 53.3219 33.973 53.3023 33.9552 53.2845L10.7272 30.0565C10.7236 30.0529 10.7192 30.0493 10.7156 30.0458V23.1463L40.9099 53.3406ZM23.0215 53.3406L10.7147 41.0339V33.6562L30.3991 53.3406H23.0215ZM10.7147 44.6461L19.4092 53.3406H10.7147V44.6461ZM53.3396 19.4423L44.6139 10.7167H53.3396V19.4423Z" fill="#2E3346"/>
<path d="M34.3354 14.9199L34.8527 15.4372C35.102 15.6865 35.4288 15.8111 35.7555 15.8111C36.0823 15.8111 36.4091 15.6865 36.6584 15.4372C37.157 14.9386 37.157 14.1301 36.6584 13.6315L36.1411 13.1142C35.6424 12.6156 34.834 12.6156 34.3354 13.1142C33.8368 13.6128 33.8368 14.4213 34.3354 14.9199Z" fill="#2E3346"/>
</svg>
