<svg width="36" height="27" viewBox="0 0 36 27" fill="none" xmlns="http://www.w3.org/2000/svg">
<path d="M36 20.9L0 27V6.1L36 0V20.9Z" fill="#70AF60"/>
<path d="M12.7 10.7L12.6 17.8L10.7 18.1V15.4L8.10001 16V18.7L6.20001 19L6.30001 11.9L8.20001 11.6V14.3L10.8 13.8V11.1L12.7 10.7Z" fill="white"/>
<path d="M13.9 17.6L14 10.5L15.9 10.2V12.4L16.8 12.2C18.6 11.9 19.9 12.2 19.9 14.1C19.9 16 18.5 16.8 16.8 17.1L13.9 17.6ZM15.8 15.6L16.8 15.4C17.4 15.3 17.9 15 17.9 14.4C17.9 13.8 17.4 13.7 16.8 13.8L15.8 14V15.6Z" fill="white"/>
<path d="M27.2 15.3C25 15.7 23.8 14.6 23.6 13.1L22.6 13.3V16L20.7 16.3L20.8 9.19999L22.7 8.89999V11.6L23.7 11.4C24 9.79999 25.2 8.29999 27.4 7.89999C29.9 7.39999 31.2 8.89999 31.2 10.9C31.2 12.9 29.8 14.8 27.2 15.3ZM27.2 13.6C28.4 13.4 29.1 12.4 29.1 11.3C29.1 10.2 28.5 9.39999 27.2 9.69999C26 9.89999 25.3 10.9 25.3 12C25.4 13.1 26 13.8 27.2 13.6Z" fill="white"/>
</svg>
