<svg width="24" height="24" viewBox="0 0 24 24" fill="none" xmlns="http://www.w3.org/2000/svg">
<path d="M12 2C17.5 2 22 6.5 22 12C22 17.5 17.5 22 12 22C6.5 22 2 17.5 2 12C2 6.5 6.5 2 12 2ZM12 0C5.4 0 0 5.4 0 12C0 18.6 5.4 24 12 24C18.6 24 24 18.6 24 12C24 5.4 18.6 0 12 0Z" fill="white"/>
<path d="M7.6 7.9C8 7.5 8.5 7.3 9.1 7.3C9.7 7.3 10.2 7.5 10.6 7.9C11 8.3 11.2 8.8 11.2 9.3C11.2 9.9 11 10.4 10.6 10.8C10.2 11.2 9.7 11.4 9.1 11.4C8.5 11.4 8 11.2 7.6 10.8C7.2 10.4 7 10 7 9.4C7 8.8 7.2 8.3 7.6 7.9ZM7.4 16.7L14.5 7.5H16L8.9 16.7H7.4ZM9.1 8.5C8.6 8.5 8.2 8.9 8.2 9.4C8.2 9.9 8.6 10.3 9.1 10.3C9.6 10.3 10 9.9 10 9.4C10 8.9 9.6 8.5 9.1 8.5ZM15.7 13.4C16.1 13.8 16.3 14.3 16.3 14.8C16.3 15.4 16.1 15.8 15.7 16.2C15.3 16.6 14.8 16.8 14.2 16.8C13.6 16.8 13.1 16.6 12.7 16.2C12.3 15.8 12.1 15.3 12.1 14.8C12.1 14.2 12.3 13.8 12.7 13.4C13.1 13 13.6 12.8 14.2 12.8C14.8 12.8 15.3 13 15.7 13.4ZM14.2 15.7C14.7 15.7 15.1 15.3 15.1 14.8C15.1 14.3 14.7 13.9 14.2 13.9C13.7 13.9 13.3 14.3 13.3 14.8C13.3 15.3 13.7 15.7 14.2 15.7Z" fill="white"/>
</svg>
