<svg width="13" height="16" viewBox="0 0 13 16" fill="none" xmlns="http://www.w3.org/2000/svg">
<g clip-path="url(#clip0_5997_23431)">
<path d="M6.6038 0C6.92975 0.0523161 7.26019 0.0893733 7.5839 0.159128C9.97345 0.673569 11.8685 2.63324 12.2798 4.97439C12.5001 6.22343 12.2776 7.40708 11.8078 8.56458C11.2683 9.89646 10.5017 11.1019 9.63626 12.255C8.67414 13.5368 7.60413 14.7313 6.44419 15.8496C6.23289 16.0545 6.13173 16.0545 5.92042 15.8496C4.29517 14.2714 2.82502 12.5733 1.63586 10.6572C0.97497 9.59346 0.428722 8.47956 0.143234 7.25668C-0.434485 4.76076 0.774904 2.09482 3.0588 0.823978C3.86581 0.374932 4.72902 0.0980926 5.65742 0.0239782C5.69563 0.0217984 5.72935 0.00871935 5.76532 0C6.04631 0 6.32505 0 6.6038 0ZM9.02033 6.00109C9.01583 4.48392 7.74799 3.25014 6.19917 3.25014C4.61213 3.25232 3.34654 4.48174 3.35104 6.02071C3.35553 7.52916 4.64135 8.75422 6.21266 8.74768C7.75474 8.74114 9.02482 7.49864 9.02033 6.00109Z" fill="white"/>
</g>
<defs>
<clipPath id="clip0_5997_23431">
<rect width="12.3636" height="16" fill="white"/>
</clipPath>
</defs>
</svg>
