<svg width="18" height="16" viewBox="0 0 18 16" fill="none" xmlns="http://www.w3.org/2000/svg">
<path d="M17.1042 14.4876L11.8803 9.55224C12.5543 8.59702 12.9756 7.40299 12.9756 6.12935C13.0599 2.78607 10.1109 0 6.48781 0C2.86474 0 0 2.78607 0 6.12935C0 9.47264 2.949 12.2587 6.48781 12.2587C7.83592 12.2587 9.09978 11.8607 10.1951 11.1443L15.4191 16L17.1042 14.4876ZM6.48781 10.5871C3.87583 10.5871 1.85366 8.59702 1.85366 6.20896C1.85366 3.8209 3.96009 1.83085 6.48781 1.83085C9.01552 1.83085 11.122 3.8209 11.122 6.20896C11.122 8.59702 9.09978 10.5871 6.48781 10.5871Z" fill="white"/>
</svg>
