<svg width="21" height="20" viewBox="0 0 21 20" fill="none" xmlns="http://www.w3.org/2000/svg">
<path d="M20.3 18.1095L14.1 11.9403C14.9 10.7463 15.4 9.25373 15.4 7.66169C15.5 3.48259 12 0 7.7 0C3.4 0 0 3.48259 0 7.66169C0 11.8408 3.5 15.3234 7.7 15.3234C9.3 15.3234 10.8 14.8259 12.1 13.9303L18.3 20L20.3 18.1095ZM7.7 13.2338C4.6 13.2338 2.2 10.7463 2.2 7.76119C2.2 4.77612 4.7 2.28856 7.7 2.28856C10.7 2.28856 13.2 4.77612 13.2 7.76119C13.2 10.7463 10.8 13.2338 7.7 13.2338Z" fill="white"/>
</svg>
