<svg width="31" height="25" viewBox="0 0 31 25" fill="none" xmlns="http://www.w3.org/2000/svg">
<path fill-rule="evenodd" clip-rule="evenodd" d="M2.08318 10.7623C10.2176 7.23426 15.6418 4.90834 18.3558 3.78456C26.1048 0.575968 27.715 0.0186008 28.7645 0.000196234C28.9953 -0.00385165 29.5115 0.0530967 29.8458 0.32315C30.1281 0.551178 30.2057 0.859211 30.2429 1.07541C30.2801 1.2916 30.3263 1.7841 30.2896 2.16893C29.8696 6.56125 28.0526 17.2203 27.1282 22.1397C26.7371 24.2214 25.9669 24.9193 25.2213 24.9876C23.6009 25.1361 22.3705 23.9216 20.801 22.8974C18.3452 21.2948 16.9578 20.2972 14.5739 18.7333C11.819 16.926 13.6049 15.9327 15.1749 14.3094C15.5858 13.8845 22.7253 7.41981 22.8635 6.83335C22.8808 6.76001 22.8968 6.48661 22.7337 6.34225C22.5705 6.19788 22.3297 6.24725 22.1559 6.28651C21.9096 6.34216 17.9864 8.92363 10.3862 14.0309C9.27255 14.7921 8.26388 15.1631 7.36015 15.1436C6.36386 15.1222 4.44739 14.5828 3.02269 14.1218C1.27524 13.5563 -0.113595 13.2574 0.00734119 12.297C0.0703324 11.7968 0.762277 11.2853 2.08318 10.7623Z" fill="white"/>
</svg>
