<svg width="102" height="80" viewBox="0 0 102 80" fill="none" xmlns="http://www.w3.org/2000/svg">
<path d="M50.3552 72.1765H3.57587V1.64706H50.4138V72.1765H50.3552ZM5.92069 69.8235H48.069V4.00001H5.92069V69.8235Z" fill="#2D3245"/>
<path d="M28.1379 2.82355H25.7931V71H28.1379V2.82355Z" fill="#2D3245"/>
<path d="M34.7621 34.7647H32.4172V42.2941H34.7621V34.7647Z" fill="#2D3245"/>
<path d="M47.9517 71.9412H45.0207V75.7059H47.9517V71.9412Z" fill="#2D3245"/>
<path d="M8.91034 71.9412H5.97931V75.7059H8.91034V71.9412Z" fill="#2D3245"/>
<path d="M21.5138 34.7647H19.169V42.2941H21.5138V34.7647Z" fill="#2D3245"/>
<path d="M63.3103 54.7647H60.9655V41H76.031V43.3529H63.3103V54.7647Z" fill="#4F8CC8"/>
<path d="M91.0379 54.7647H88.6931V43.3529H76.031V41H91.0379V54.7647Z" fill="#4F8CC8"/>
<path d="M76.0992 72.8614H56.9302V53.8614H67.0716V62.8614H76.0992V65.2143H64.7268V56.2143H59.2751V70.5085H76.0992V72.8614Z" fill="#4F8CC8"/>
<path d="M65.9483 71.4117H63.0172V75.7647H65.9483V71.4117Z" fill="#2D3245"/>
<path d="M95.1414 72.8614H76.031V70.5085H92.7965V56.2143H87.3448V65.2143H76.031V62.8614H85V53.8614H95.1414V72.8614Z" fill="#4F8CC8"/>
<path d="M88.9862 71.4117H86.0552V75.7647H88.9862V71.4117Z" fill="#2D3245"/>
</svg>
