<svg width="70" height="31" viewBox="0 0 70 31" fill="none" xmlns="http://www.w3.org/2000/svg">
<path d="M28.2966 16.4647L24.7692 25.9242L24.3816 23.9858C23.49 21.6209 21.6294 19.1397 19.42 18.1705L22.6373 30.305H26.436L32.0953 16.4647H28.2966ZM31.3201 30.305L33.5683 16.4259H37.1344L34.8862 30.305H31.3201ZM47.9104 16.7748C47.2127 16.5034 46.0885 16.1933 44.6931 16.1933C41.1657 16.1933 38.6462 18.093 38.6462 20.768C38.6074 22.7839 40.4292 23.8695 41.7859 24.5285C43.1814 25.2264 43.6465 25.6528 43.6465 26.2343C43.6465 27.1648 42.5224 27.5912 41.5146 27.5912C40.0804 27.5912 39.3051 27.3974 38.1422 26.8546L37.6771 26.622L37.1732 29.7235C38.026 30.1112 39.5765 30.4601 41.1657 30.4601C44.9257 30.4601 47.3677 28.5992 47.4065 25.7304C47.4065 24.1408 46.4762 22.939 44.383 21.9698C43.1426 21.3107 42.3673 20.8843 42.3673 20.264C42.3673 19.6825 43.0263 19.0622 44.4218 19.0622C45.5846 19.0234 46.4374 19.2948 47.0964 19.6049L47.4065 19.76L47.9104 16.7748ZM57.0971 16.4647H54.3449C53.4922 16.4647 52.8332 16.6973 52.4456 17.6277L47.1351 30.3438H50.8951C50.8951 30.3438 51.5153 28.638 51.6316 28.2503C52.058 28.2503 55.7016 28.2503 56.2055 28.2503C56.3218 28.7155 56.6319 30.3438 56.6319 30.3438H59.9655L57.0971 16.4647ZM52.6782 25.3814C52.9883 24.5673 54.1124 21.5046 54.1124 21.5046C54.0736 21.5434 54.4225 20.6904 54.5775 20.1865L54.8101 21.3883L55.6241 25.3814H52.6782Z" fill="#A7ADB8"/>
<path d="M21.5519 16.4259H15.7763L15.7376 16.6585C20.234 17.8216 23.1799 20.6129 24.4203 23.9858L23.1799 17.6277C22.9474 16.7361 22.3272 16.4647 21.5519 16.4259Z" fill="#A7ADB8"/>
<path d="M4.92283 13.0918H2.63585L0 1.18989L2.51956 0.76344L4.34139 10.0679L8.95412 0.879746H11.3962L4.92283 13.0918ZM16.7841 9.21498H11.3574C11.2023 10.882 11.9776 11.5799 13.2955 11.5799C14.3809 11.5799 15.3499 11.1922 16.3577 10.5331V12.2002C15.3499 12.8205 14.1871 13.2469 12.7916 13.2469C10.4271 13.2469 8.83784 11.89 9.30299 8.82729C9.72937 6.07473 11.6287 4.40768 13.8382 4.40768C16.3965 4.40768 17.2493 6.30734 16.8617 8.74976C16.8617 8.86606 16.8229 9.0599 16.7841 9.21498ZM13.6056 5.80335C12.7528 5.80335 11.9776 6.46241 11.59 7.85808H14.9623C15.0398 6.57872 14.6134 5.80335 13.6056 5.80335ZM20.3503 8.16823L19.6138 13.0531H17.5206L18.7998 4.52399H20.5829V6.2298C21.2806 5.26059 22.2496 4.40768 23.6063 4.33014V6.42365C22.2884 6.53995 21.0868 7.23778 20.3503 8.16823ZM23.6063 13.0143L24.8855 4.52399H26.9787L25.6607 13.0143H23.6063ZM26.2034 3.12832C25.5057 3.12832 25.0018 2.62433 25.1181 1.9265C25.2343 1.18989 25.8545 0.685903 26.591 0.685903C27.2888 0.685903 27.7539 1.18989 27.6376 1.9265C27.5213 2.62433 26.9011 3.12832 26.2034 3.12832ZM32.8705 2.19788C32.1341 2.19788 31.7077 2.50802 31.5914 3.28339L31.3976 4.52399H33.0256V6.2298H31.1262L30.0797 13.0531H27.9865L29.0331 6.26857H27.7927L28.064 4.56276H29.3044L29.537 3.08955C29.8083 1.18989 31.1262 0.49206 32.8705 0.49206C33.2582 0.49206 33.5295 0.530828 33.7233 0.569597V2.27541C33.452 2.23664 33.1419 2.19788 32.8705 2.19788ZM32.8705 13.0143L34.1885 4.52399H36.2816L34.9637 13.0143H32.8705ZM35.4676 3.12832C34.7699 3.12832 34.266 2.62433 34.3823 1.9265C34.4986 1.18989 35.1188 0.685903 35.8553 0.685903C36.553 0.685903 37.0181 1.18989 36.9018 1.9265C36.7856 2.62433 36.1654 3.12832 35.4676 3.12832ZM44.4993 9.21498H39.0338C38.8787 10.882 39.654 11.5799 40.9719 11.5799C42.0572 11.5799 43.0263 11.1922 44.0341 10.5331V12.2002C43.0263 12.8205 41.8634 13.2469 40.468 13.2469C38.1035 13.2469 36.5142 11.89 36.9794 8.82729C37.4058 6.07473 39.3051 4.40768 41.5146 4.40768C44.0729 4.40768 44.9257 6.30734 44.538 8.74976C44.538 8.86606 44.4993 9.0599 44.4993 9.21498ZM41.282 5.80335C40.4292 5.80335 39.654 6.46241 39.2663 7.85808H42.6387C42.7162 6.57872 42.2898 5.80335 41.282 5.80335ZM50.74 13.0143V11.8512C50.0423 12.5878 49.112 13.2081 47.9104 13.2081C46.1273 13.2081 44.9257 11.89 45.3521 9.02114C45.856 5.84212 47.7941 4.44645 49.771 4.44645C50.585 4.44645 51.2052 4.60152 51.7091 4.7566L52.3293 0.647134L54.5 0.298218L52.5619 13.0143H50.74ZM51.4378 6.50118C50.9338 6.26857 50.5462 6.1135 49.8485 6.1135C48.7244 6.1135 47.7941 7.00517 47.5228 8.86606C47.2514 10.5331 47.8716 11.3085 48.8019 11.3085C49.5772 11.3085 50.2361 10.8433 50.8951 10.1454L51.4378 6.50118ZM58.9964 13.1306C57.9886 13.1306 57.1746 12.9755 56.4381 12.7041L57.8336 3.67108L59.4616 3.3997L58.8414 7.31532C59.3065 6.88887 59.9655 6.46241 60.7795 6.46241C62.1362 6.46241 63.0665 7.4704 62.7176 9.64143C62.3688 12.0063 60.9346 13.1306 58.9964 13.1306ZM60.1981 7.85808C59.6554 7.85808 59.1127 8.207 58.6476 8.71099L58.1824 11.6186C58.4925 11.7349 58.7251 11.7737 59.1515 11.7737C60.1593 11.7737 60.857 11.1534 61.0896 9.6802C61.3222 8.47838 60.8958 7.85808 60.1981 7.85808ZM66.5163 13.3632C65.7023 14.9527 64.8883 15.4567 63.6479 15.4567C63.3766 15.4567 63.2215 15.4179 63.0665 15.3792V14.061C63.2603 14.0998 63.4929 14.1386 63.803 14.1386C64.2681 14.1386 64.6557 13.906 64.9271 13.4407L65.1209 13.0143L63.7642 6.65626L65.4698 6.42365L66.245 10.9983L68.3769 6.50118H69.9662L66.5163 13.3632Z" fill="#A7ADB8"/>
</svg>
