<svg width="48" height="48" viewBox="0 0 48 48" xmlns="http://www.w3.org/2000/svg">
<path fill-rule="evenodd" clip-rule="evenodd" d="M24 45.7143C35.9925 45.7143 45.7143 35.9925 45.7143 24C45.7143 12.0075 35.9925 2.28571 24 2.28571C12.0075 2.28571 2.28571 12.0075 2.28571 24C2.28571 35.9925 12.0075 45.7143 24 45.7143ZM24 48C37.2548 48 48 37.2548 48 24C48 10.7452 37.2548 0 24 0C10.7452 0 0 10.7452 0 24C0 37.2548 10.7452 48 24 48Z"/>
<path d="M34.8805 18.6299C35.0226 18.1207 34.8805 17.6842 34.0986 17.6842H31.6107C30.9709 17.6842 30.6866 18.048 30.5444 18.4117C30.5444 18.4117 29.2649 21.5398 27.4879 23.6495C26.9192 24.2315 26.6349 24.4497 26.3506 24.4497C26.2084 24.4497 25.9241 24.2315 25.9241 23.7223V18.7027C25.9241 18.048 25.7819 17.757 25.2132 17.757H21.3037C20.8772 17.757 20.6639 18.048 20.6639 18.339C20.6639 18.9209 21.588 19.0664 21.6591 20.8124V24.5952C21.6591 25.3955 21.5169 25.5409 21.2326 25.5409C20.3796 25.5409 18.3182 22.3401 17.1098 18.7754C16.8966 18.048 16.6122 17.757 15.9725 17.757H13.4846C12.7738 17.757 12.6316 18.1207 12.6316 18.4845C12.6316 19.1392 13.4846 22.4856 16.5411 26.9231C18.6025 29.9785 21.5169 31.579 24.147 31.579C25.7108 31.579 25.9241 31.2152 25.9241 30.5605V28.2326C25.9241 27.5051 26.0662 27.3596 26.5638 27.3596C26.9192 27.3596 27.559 27.5779 29.0517 29.0328C30.7577 30.7788 31.042 31.5062 31.9661 31.5062H34.454C35.1648 31.5062 35.5202 31.1425 35.307 30.415C35.0937 29.6875 34.3118 28.6691 33.1745 27.4324C32.6058 26.7049 31.7528 25.9774 31.4685 25.6137C31.1131 25.1045 31.1842 24.8862 31.4685 24.4497C31.5396 24.4497 34.5251 20.0849 34.8805 18.6299Z"/>
</svg>
