<svg width="57" height="72" viewBox="0 0 57 72" fill="none" xmlns="http://www.w3.org/2000/svg">
<path d="M17.9051 33.6794C17.4314 33.1109 16.5788 33.0162 16.0103 33.4899C15.4419 33.9636 15.3472 34.8162 15.8209 35.3846L23.0209 43.7215C23.4946 44.2899 24.3472 44.3846 24.9156 43.9109L41.684 30.4583C42.2524 29.9846 42.3472 29.132 41.8735 28.5636C41.3998 27.9951 40.5472 27.9004 39.9788 28.3741L24.2524 40.9741L17.9051 33.6794Z" fill="#2E3346"/>
<path d="M55.9895 14.4474L28.6105 0.142105C28.2316 -0.0473684 27.7579 -0.0473684 27.2842 0.142105L0.757895 14.5421C0.284211 14.7316 0 15.2053 0 15.6789V34.5316C0 50.0684 9.28421 64.0895 23.6842 70.2474L27.3789 71.8579C27.7579 72.0474 28.1368 72.0474 28.4211 71.8579L32.5895 70.0579C47.1789 63.9 56.7474 49.7842 56.7474 34.0579V15.6789C56.7474 15.2053 56.4632 14.7316 55.9895 14.4474ZM54 34.0579C54 48.6474 45.1895 61.8158 31.5474 67.5L27.8526 69.0158L24.7263 67.6895C11.3684 61.9105 2.74737 48.9316 2.74737 34.5316V16.5316L28.0421 2.79474L54 16.5316V34.0579Z" fill="#2E3346"/>
</svg>
