<svg width="72" height="72" viewBox="0 0 72 72" fill="none" xmlns="http://www.w3.org/2000/svg">
<path d="M71.0526 36.6632L57.7895 23.5895C57.3158 23.1158 56.6526 23.1158 56.1789 23.5895C55.7053 24.0632 55.7053 24.7263 56.1789 25.2L69.4421 38.2737C69.6316 38.4632 69.7263 38.7474 69.7263 39.0316C69.7263 39.3158 69.6316 39.6 69.4421 39.7895L61.9579 47.1789C61.4842 47.5579 60.8211 47.5579 60.3474 47.1789L24.2526 11.4632C23.7789 11.0842 23.7789 10.3263 24.2526 9.94737L28.0421 6.25263L31.7368 2.65263C32.2105 2.27368 32.8737 2.27368 33.3474 2.65263L56.6526 25.5789C57.1263 26.0526 57.7895 26.0526 58.2632 25.5789C58.7368 25.1053 58.7368 24.4421 58.2632 23.9684L34.9579 0.947368C34.2947 0.284211 33.4421 0 32.5895 0C31.7368 0 30.8842 0.378947 30.2211 0.947368L27.3789 3.78947L27 3.41053C25.5789 1.98947 23.2105 1.98947 21.7895 3.41053L14.9684 10.1368C13.5474 11.5579 13.5474 13.8316 14.9684 15.2526L33.0632 33.1579C33.6316 33.7263 34.0105 34.5789 34.0105 35.4316C34.0105 36.2842 33.6316 37.0421 33.0632 37.7053L25.8632 44.8105L23.1158 42.0632C22.7368 41.6842 22.2632 41.4947 21.6947 41.4947C21.1263 41.4947 20.6526 41.6842 20.2737 42.0632L18.8526 43.3895C18.0947 44.1474 18.0947 45.4737 18.8526 46.2316L11.2737 53.0526C10.8 53.4316 10.8 54.1895 11.1789 54.6632C11.5579 55.1368 12.3158 55.1368 12.7895 54.7579L20.4632 47.8421L24.5368 51.8211L8.14737 69.5368C7.95789 69.7263 7.76842 69.7263 7.67368 69.7263C7.57895 69.7263 7.38947 69.7263 7.2 69.5368L2.55789 64.8947C2.36842 64.7053 2.36842 64.5158 2.36842 64.4211C2.36842 64.3263 2.36842 64.1368 2.55789 63.9474L14.1158 53.6211C14.5895 53.2421 14.5895 52.4842 14.2105 52.0105C13.8316 51.5368 13.0737 51.5368 12.6 51.9158L0.947368 62.2421C0.378947 62.8105 0 63.5684 0 64.3263C0 65.0842 0.28421 65.9368 0.852632 66.5053L5.49474 71.1474C6.06316 71.7158 6.82105 72 7.67368 72H7.76842C8.62105 72 9.37895 71.6211 9.85263 71.0526L26.0526 53.4316C26.4316 53.8105 26.9053 54 27.4737 54C28.0421 54 28.5158 53.8105 28.8947 53.4316L30.3158 52.1053C30.6947 51.7263 30.8842 51.2526 30.8842 50.6842C30.8842 50.1158 30.6947 49.6421 30.3158 49.2632L27.4737 46.4211L34.6737 39.3158C35.7158 38.2737 36.2842 36.9474 36.2842 35.5263C36.2842 34.1053 35.7158 32.7789 34.6737 31.7368L16.4842 13.7368C15.9158 13.1684 15.9158 12.3158 16.4842 11.7474L23.3053 5.02105C23.8737 4.45263 24.7263 4.45263 25.2947 5.02105L25.6737 5.4L23.7789 7.29474L22.7368 8.33684C21.4105 9.66316 21.4105 11.7474 22.7368 13.0737L58.8316 48.6947C59.4947 49.3579 60.3474 49.6421 61.2 49.6421C62.0526 49.6421 62.9053 49.3579 63.5684 48.6947L66.5053 45.7579L67.2632 46.4211C67.4526 46.6105 67.7368 46.7053 68.021 46.7053C68.3053 46.7053 68.5895 46.6105 68.7789 46.4211C69.2526 45.9474 69.2526 45.2842 68.7789 44.8105L68.1158 44.1474L70.9579 41.3053C72.2842 40.0737 72.2842 37.8947 71.0526 36.6632ZM27.4737 51.6316L20.5579 44.8105L21.6 43.7684L28.5158 50.5895L27.4737 51.6316Z" fill="#2E3346"/>
</svg>
