<svg width="36" height="36" viewBox="0 0 36 36" fill="none" xmlns="http://www.w3.org/2000/svg">
<circle cx="18" cy="18" r="18" fill="#70AF60"/>
<path d="M12.98 15.665L12.888 22.197L11.14 22.473V19.989L8.748 20.541V23.025L7 23.301L7.092 16.769L8.84 16.493V18.977L11.232 18.517V16.033L12.98 15.665Z" fill="white"/>
<path d="M14.0859 22.0131L14.1779 15.4811L15.9259 15.2051V17.2291L16.7539 17.0451C18.4099 16.7691 19.6059 17.0451 19.6059 18.7931C19.6059 20.5411 18.3179 21.2771 16.7539 21.5531L14.0859 22.0131ZM15.8339 20.1731L16.7539 19.9891C17.3059 19.8971 17.7659 19.6211 17.7659 19.0691C17.7659 18.5171 17.3059 18.4251 16.7539 18.5171L15.8339 18.7011V20.1731Z" fill="white"/>
<path d="M26.3198 19.8972C24.2958 20.2652 23.1918 19.2532 23.0078 17.8732L22.0878 18.0572V20.5412L20.3398 20.8172L20.4318 14.2852L22.1798 14.0092V16.4932L23.0998 16.3092C23.3758 14.8372 24.4798 13.4572 26.5038 13.0892C28.8038 12.6292 29.9998 14.0092 29.9998 15.8492C29.9998 17.6892 28.7118 19.4372 26.3198 19.8972ZM26.3198 18.3332C27.4238 18.1492 28.0678 17.2292 28.0678 16.2172C28.0678 15.2052 27.5158 14.4692 26.3198 14.7452C25.2158 14.9292 24.5718 15.8492 24.5718 16.8612C24.6638 17.8732 25.2158 18.5172 26.3198 18.3332Z" fill="white"/>
</svg>
