<svg width="24" height="21" viewBox="0 0 24 21" fill="none" xmlns="http://www.w3.org/2000/svg">
<path d="M22.1 1.99998C19.5 -0.600024 15.2 -0.600024 12.6 1.99998L12 2.59998L11.4 1.99998C8.8 -0.700024 4.5 -0.700024 1.9 1.99998C-0.700003 4.59998 -0.700003 8.59997 1.9 11.4C4.2 14 12 20.2 12 20.2C12 20.2 19.8 13.9 22.1 11.4C24.6 8.59997 24.6 4.49998 22.1 1.99998ZM20.5 9.99998C18.7 12 13.7 16.1 12 17.6C10.2 16.1 5.3 12 3.5 9.99998C1.7 7.99998 1.7 5.19998 3.5 3.49998C4.4 2.59998 5.6 2.19998 6.7 2.19998C7.9 2.19998 8.9 2.79998 9.9 3.49998L12 5.29998L14.1 3.49998C16 1.79998 18.8 1.69998 20.6 3.49998C22.3 5.19998 22.3 7.99998 20.5 9.99998Z" fill="#DEE0E2"/>
</svg>
