<?xml version="1.0" encoding="utf-8"?>
<!-- Generator: Adobe Illustrator 22.1.0, SVG Export Plug-In . SVG Version: 6.00 Build 0)  -->
<svg version="1.0" id="Layer_1" xmlns="http://www.w3.org/2000/svg" xmlns:xlink="http://www.w3.org/1999/xlink" x="0px" y="0px"
	 viewBox="0 0 149.6 14.9" style="enable-background:new 0 0 149.6 14.9;" xml:space="preserve">
<style type="text/css">
	.st0{fill:#F3C042;}
	.st1{fill:url(#zoon);}
</style>
<polygon class="st0" points="70.8,0 73.2,4.9 78.7,5.7 74.7,9.5 75.7,14.9 70.8,12.4 65.9,14.9 66.9,9.5 62.9,5.7 68.4,4.9 "/>
<polygon class="st0" points="88.5,0 91,4.9 96.4,5.7 92.5,9.5 93.4,14.9 88.5,12.4 83.7,14.9 84.6,9.5 80.7,5.7 86.1,4.9 "/>
<polygon class="st0" points="106.3,0 108.7,4.9 114.1,5.7 110.2,9.5 111.1,14.9 106.3,12.4 101.4,14.9 102.4,9.5 98.4,5.7
	103.9,4.9 "/>
<polygon class="st0" points="124,0 126.5,4.9 131.9,5.7 128,9.5 128.9,14.9 124,12.4 119.2,14.9 120.1,9.5 116.2,5.7 121.6,4.9 "/>
<polygon class="st0" points="141.8,0 144.2,4.9 149.6,5.7 145.7,9.5 146.6,14.9 141.8,12.4 136.9,14.9 137.9,9.5 133.9,5.7
	139.4,4.9 "/>
<linearGradient id="zoon" gradientUnits="userSpaceOnUse" x1="70" y1="0" x2="0" y2="0">
	<stop  offset="0" style="stop-color:#5A53A2"/>
	<stop  offset="1" style="stop-color:#3C3E54"/>
</linearGradient>
<path class="st1" d="M0.5,1.5h11.5c0.3,0,0.5,0.2,0.5,0.5v2.3c0,0.3-0.1,0.6-0.4,0.8l-6.4,5.4h6.3c0.3,0,0.5,0.2,0.5,0.5v2.6
	c0,0.3-0.2,0.5-0.5,0.5H0.5c-0.3,0-0.5-0.2-0.5-0.5v-2.2c0-0.3,0.1-0.6,0.4-0.8L6.8,5H0.5C0.2,5,0,4.8,0,4.5V2
	C0,1.7,0.2,1.5,0.5,1.5z M20.4,1c1.3,0,2.5,0.3,3.5,0.8s1.8,1.3,2.3,2.3s0.8,2.2,0.8,3.5s-0.3,2.5-0.8,3.5s-1.3,1.8-2.3,2.3
	c-1,0.5-2.2,0.8-3.5,0.8s-2.5-0.3-3.5-0.8c-1-0.5-1.8-1.3-2.3-2.3c-0.5-1-0.8-2.2-0.8-3.5s0.3-2.5,0.8-3.5c0.5-1,1.3-1.8,2.3-2.3
	S19.1,1,20.4,1z M20.4,4.6c-0.6,0-1.2,0.1-1.6,0.4c-0.5,0.2-0.8,0.6-1.1,1.1c-0.2,0.5-0.4,1-0.4,1.6s0.1,1.2,0.4,1.6
	c0.2,0.5,0.6,0.8,1.1,1.1c0.5,0.2,1,0.4,1.6,0.4c0.6,0,1.2-0.1,1.6-0.4c0.5-0.2,0.8-0.6,1.1-1.1c0.2-0.5,0.4-1,0.4-1.6
	S23.4,6.5,23.1,6c-0.2-0.5-0.6-0.8-1.1-1.1C21.6,4.7,21,4.6,20.4,4.6z M34.6,1c1.3,0,2.5,0.3,3.5,0.8c1,0.5,1.8,1.3,2.3,2.3
	s0.8,2.2,0.8,3.5s-0.3,2.5-0.8,3.5s-1.3,1.8-2.3,2.3c-1,0.5-2.2,0.8-3.5,0.8s-2.5-0.3-3.5-0.8c-1-0.5-1.8-1.3-2.3-2.3
	S27.9,9,27.9,7.7s0.3-2.5,0.8-3.5s1.3-1.8,2.3-2.3C32.1,1.3,33.3,1,34.6,1z M34.6,4.6c-0.6,0-1.2,0.1-1.6,0.4
	c-0.5,0.2-0.8,0.6-1.1,1.1c-0.2,0.5-0.4,1-0.4,1.6s0.1,1.2,0.4,1.6c0.2,0.5,0.6,0.8,1.1,1.1c0.5,0.2,1,0.4,1.6,0.4s1.2-0.1,1.6-0.4
	c0.5-0.2,0.8-0.6,1.1-1.1c0.2-0.5,0.4-1,0.4-1.6S37.6,6.5,37.3,6c-0.2-0.5-0.6-0.8-1.1-1.1S35.2,4.6,34.6,4.6z M55,2v11.5
	c0,0.3-0.2,0.5-0.5,0.5h-2.3c-0.3,0-0.6-0.1-0.8-0.4l-5.4-6.4v6.3c0,0.3-0.2,0.5-0.5,0.5h-2.6c-0.3,0-0.5-0.2-0.5-0.5V2
	c0-0.3,0.2-0.5,0.5-0.5h2.3c0.3,0,0.6,0.1,0.8,0.4l5.4,6.4V2c0-0.3,0.2-0.5,0.5-0.5h2.6C54.8,1.5,55,1.7,55,2z"/>
</svg>
