<svg width="31" height="32" viewBox="0 0 31 32" fill="none" xmlns="http://www.w3.org/2000/svg">
<path d="M15.5 31.0511C24.0604 31.0511 31 24.1001 31 15.5255C31 6.95102 24.0604 0 15.5 0C6.93959 0 0 6.95102 0 15.5255C0 24.1001 6.93959 31.0511 15.5 31.0511Z" fill="url(#paint11_linear)"/>
<path d="M10.4916 16.6599L12.3306 21.7583C12.3306 21.7583 12.5608 22.2355 12.8071 22.2355C13.0534 22.2355 16.7147 18.4202 16.7147 18.4202L20.7869 10.5422L10.5577 15.3444L10.4916 16.6599Z" fill="#C8DAEA"/>
<path d="M12.9302 17.9679L12.5772 21.7257C12.5772 21.7257 12.4294 22.877 13.5788 21.7257C14.7281 20.5745 15.8281 19.6863 15.8281 19.6863" fill="#A9C6D8"/>
<path d="M10.5255 16.8423L6.74346 15.608C6.74346 15.608 6.29197 15.4241 6.43707 15.0077C6.46676 14.9218 6.5275 14.8488 6.70769 14.7224C7.5459 14.137 22.2212 8.85413 22.2212 8.85413C22.2212 8.85413 22.6356 8.7142 22.8806 8.80749C22.9926 8.85008 23.0641 8.89807 23.1242 9.07315C23.1458 9.1367 23.1586 9.27257 23.1573 9.40777C23.1559 9.50511 23.1444 9.59502 23.1357 9.73698C23.0466 11.1816 20.372 21.9623 20.372 21.9623C20.372 21.9623 20.2121 22.593 19.6384 22.6146C19.4292 22.6228 19.1755 22.5802 18.8724 22.3186C17.7474 21.3492 13.8581 18.7311 12.9989 18.1558C12.9503 18.1234 12.9369 18.0814 12.9288 18.0402C12.9166 17.9794 12.9827 17.9043 12.9827 17.9043C12.9827 17.9043 19.7545 11.8751 19.9347 11.2424C19.9489 11.1931 19.8962 11.1694 19.8254 11.1904C19.3752 11.356 11.579 16.2874 10.7185 16.8322C10.6665 16.8626 10.5255 16.8423 10.5255 16.8423Z" fill="white"/>
<defs>
<linearGradient id="paint11_linear" x1="15.4997" y1="31.0506" x2="15.4997" y2="3.70152e-06" gradientUnits="userSpaceOnUse">
<stop offset="1" stop-color="#1D93D2"/>
<stop offset="1" stop-color="#38B0E3"/>
</linearGradient>
</defs>
</svg>
