<svg width="74" height="64" viewBox="0 0 74 64" fill="none" xmlns="http://www.w3.org/2000/svg">
<path d="M68.2248 6.40791C60.2164 -1.81953 46.9719 -1.81953 38.9636 6.40791L37.1155 8.30655L35.2674 6.40791C27.2591 -2.13597 14.0146 -2.13597 6.00624 6.40791C-2.00208 14.6354 -2.00208 27.293 6.00624 36.1533C13.0905 44.3807 37.1155 64 37.1155 64C37.1155 64 61.1405 44.0643 68.2248 36.1533C75.9251 27.293 75.9251 14.3189 68.2248 6.40791ZM63.2966 31.7231C57.7523 38.0519 42.3517 51.026 37.1155 55.7726C31.5713 51.026 16.4787 38.0519 10.9344 31.7231C5.39022 25.3943 5.39022 16.534 10.9344 11.1545C13.7066 8.30655 17.4027 7.04079 20.7908 7.04079C24.487 7.04079 27.5671 8.93943 30.6472 11.1545L37.1155 16.8504L43.5838 11.1545C49.436 5.77503 58.0604 5.45859 63.6046 11.1545C68.8408 16.534 68.8408 25.3943 63.2966 31.7231Z" fill="#D95858"/>
</svg>
