<svg width="72" height="72" viewBox="0 0 72 72" fill="none" xmlns="http://www.w3.org/2000/svg">
<path d="M66.0003 56.3998C62.64 56.3998 60.0006 52.6796 60.0006 47.9997C60.0006 43.3197 62.6409 39.5995 66.0003 39.5995C69.3606 39.5995 72 43.3197 72 47.9997C72 52.6805 69.3597 56.3998 66.0003 56.3998ZM66.0003 42.0001C64.08 42.0001 62.4003 44.7597 62.4003 47.9997C62.4003 51.2396 64.08 53.9992 66.0003 53.9992C67.9206 53.9992 69.6003 51.2396 69.6003 47.9997C69.6003 44.7606 67.9197 42.0001 66.0003 42.0001Z" fill="white"/>
<path d="M66.0003 56.3998H31.2006C27.8403 56.3998 25.201 52.6796 25.201 47.9997C25.201 43.3197 27.8413 39.5995 31.2006 39.5995H66.0003C66.7203 39.5995 67.2006 40.0798 67.2006 40.7998C67.2006 41.5197 66.7203 42.0001 66.0003 42.0001C64.08 42.0001 62.4003 44.7597 62.4003 47.9997C62.4003 51.2396 64.08 53.9992 66.0003 53.9992C66.7203 53.9992 67.2006 54.4796 67.2006 55.1995C67.1997 55.9205 66.7203 56.3998 66.0003 56.3998ZM31.1997 42.0001C29.2794 42.0001 27.5997 44.7597 27.5997 47.9997C27.5997 51.2396 29.2794 53.9992 31.1997 53.9992H61.7997C60.7197 52.439 59.9997 50.3993 59.9997 47.9997C59.9997 45.6 60.7197 43.5594 61.7997 42.0001H31.1997Z" fill="white"/>
<path d="M70.7997 49.1999C70.0797 49.1999 69.5994 48.7196 69.5994 47.9996C69.5994 44.7597 67.9197 42 65.9994 42H36C35.28 42 34.7997 41.5197 34.7997 40.7997V1.2003C34.7997 0.480307 35.28 0 36 0H70.7997C71.5197 0 72 0.480307 72 1.2003V47.9996C72 48.7206 71.5197 49.1999 70.7997 49.1999ZM37.2003 39.6004H66.0003C67.32 39.6004 68.6406 40.2001 69.6003 41.2801V2.40059H37.2003V39.6004Z" fill="white"/>
<path d="M36 72.0006H1.20031C0.480314 72.0006 0 71.5203 0 70.8003V1.20195C0 0.481955 0.480314 0.00164795 1.20031 0.00164795H36C36.72 0.00164795 37.2003 0.481955 37.2003 1.20195V40.8014C37.2003 41.5214 36.72 42.0017 36 42.0017H31.1997C29.2794 42.0017 27.5997 44.7613 27.5997 48.0013C27.5997 51.2412 29.2794 54.0009 31.1997 54.0009H36C36.72 54.0009 37.2003 54.4812 37.2003 55.2012V70.8013C37.2003 71.5203 36.72 72.0006 36 72.0006ZM2.39969 69.601H34.7997V56.4015H31.1997C27.8394 56.4015 25.2 52.6812 25.2 48.0013C25.2 43.3213 27.8403 39.6011 31.1997 39.6011H34.7997V2.40129H2.39969V69.601Z" fill="white"/>
</svg>
