<svg width="42" height="42" viewBox="0 0 42 42" fill="none" xmlns="http://www.w3.org/2000/svg">
<circle stroke-width="2" cx="21" cy="21" r="20" fill="transparent"/>
<path d="M30.5204 16.3012C30.6448 15.8556 30.5204 15.4737 29.8362 15.4737H27.6593C27.0995 15.4737 26.8507 15.792 26.7263 16.1102C26.7263 16.1102 25.6068 18.8474 24.0519 20.6933C23.5543 21.2025 23.3055 21.3935 23.0567 21.3935C22.9323 21.3935 22.6835 21.2025 22.6835 20.757V16.3648C22.6835 15.792 22.5591 15.5373 22.0615 15.5373H18.6407C18.2675 15.5373 18.0809 15.792 18.0809 16.0466C18.0809 16.5558 18.8895 16.6831 18.9517 18.2108V21.5208C18.9517 22.221 18.8273 22.3483 18.5785 22.3483C17.8321 22.3483 16.0284 19.5475 14.971 16.4285C14.7845 15.792 14.5357 15.5373 13.9759 15.5373H11.799C11.177 15.5373 11.0526 15.8556 11.0526 16.1739C11.0526 16.7468 11.799 19.6749 14.4735 23.5577C16.2772 26.2312 18.8273 27.6316 21.1286 27.6316C22.4969 27.6316 22.6835 27.3133 22.6835 26.7404V24.7035C22.6835 24.067 22.8079 23.9397 23.2433 23.9397C23.5543 23.9397 24.1141 24.1306 25.4202 25.4037C26.9129 26.9314 27.1617 27.5679 27.9703 27.5679H30.1472C30.7692 27.5679 31.0802 27.2497 30.8936 26.6131C30.707 25.9766 30.0228 25.0854 29.0277 24.0033C28.5301 23.3668 27.7837 22.7302 27.5349 22.412C27.2239 21.9664 27.2861 21.7754 27.5349 21.3935C27.5971 21.3935 30.2094 17.5743 30.5204 16.3012V16.3012Z"/>
</svg>
