<svg width="36" height="36" viewBox="0 0 36 36" fill="none" xmlns="http://www.w3.org/2000/svg">
<circle cx="18" cy="18" r="18" fill="#4F8CC8"/>
<path d="M12.98 15.6652L12.888 22.1972L11.14 22.4732V19.9892L8.748 20.5412V23.0252L7 23.3012L7.092 16.7692L8.84 16.4932V18.9772L11.232 18.5172V16.0332L12.98 15.6652Z" fill="white"/>
<path d="M14.084 22.0131L14.176 15.4811L15.924 15.2051V17.2291L16.752 17.0451C18.408 16.7691 19.604 17.0451 19.604 18.7931C19.604 20.5411 18.316 21.2771 16.752 21.5531L14.084 22.0131ZM15.832 20.1731L16.752 19.9891C17.304 19.8971 17.764 19.6211 17.764 19.0691C17.764 18.5171 17.304 18.4251 16.752 18.5171L15.832 18.7011V20.1731Z" fill="white"/>
<path d="M26.32 19.8972C24.296 20.2652 23.192 19.2532 23.008 17.8732L22.088 18.0572V20.5412L20.34 20.8172L20.432 14.2852L22.18 14.0092V16.4932L23.1 16.3092C23.376 14.8372 24.48 13.4572 26.504 13.0892C28.804 12.6292 30 14.0092 30 15.8492C30 17.6892 28.712 19.4372 26.32 19.8972ZM26.32 18.3332C27.424 18.1492 28.068 17.2292 28.068 16.2172C28.068 15.2052 27.516 14.4692 26.32 14.7452C25.216 14.9292 24.572 15.8492 24.572 16.8612C24.664 17.8732 25.216 18.5172 26.32 18.3332Z" fill="white"/>
</svg>
