<svg width="68" height="53" viewBox="0 0 68 53" fill="none" xmlns="http://www.w3.org/2000/svg">
<path d="M15.7063 32.7119L6.6275 52.9992H0L9.98665 31.3112C5.26569 28.9165 2.17891 24.6241 2.17891 16.717C2.17891 5.60189 9.26035 0.044342 17.6582 0.044342H26.2376V52.9992H20.4726V32.7119H15.7063ZM20.4726 4.83377H17.4312C12.8011 4.83377 8.35247 7.86105 8.35247 16.6718C8.35247 25.2114 12.4379 27.9224 17.4312 27.9224H20.4726V4.83377Z" fill="#FF302C"/>
<path d="M31.9119 17.26L39.9466 0.406651C40.1735 -0.0903647 40.6275 -0.135548 40.8998 0.361468L49.7063 16.3564C49.9786 16.8534 50.6595 17.3504 51.2043 17.4408L67.4552 20.1517C68 20.2421 68.1362 20.6488 67.773 21.0554L55.789 33.7971C55.3805 34.2038 55.1535 35.017 55.2443 35.5592L57.8771 52.006C57.9679 52.5482 57.6048 52.8193 57.1054 52.5933L41.7623 45.2285C41.263 45.0026 40.4459 45.0026 39.9466 45.2737L31.9119 49.5661" fill="#FEDA56"/>
</svg>
