<svg width="25" height="21" viewBox="0 0 25 21" fill="none" xmlns="http://www.w3.org/2000/svg">
<path d="M22.15 2.025C19.55 -0.575 15.25 -0.575 12.65 2.025L12.05 2.625L11.45 2.025C8.85 -0.675 4.55 -0.675 1.95 2.025C-0.65 4.625 -0.65 8.625 1.95 11.425C4.25 14.025 12.05 20.225 12.05 20.225C12.05 20.225 19.85 13.925 22.15 11.425C24.65 8.625 24.65 4.525 22.15 2.025ZM20.55 10.025C18.75 12.025 13.75 16.125 12.05 17.625C10.25 16.125 5.35 12.025 3.55 10.025C1.75 8.025 1.75 5.225 3.55 3.525C4.45 2.625 5.65 2.225 6.75 2.225C7.95 2.225 8.95 2.825 9.95 3.525L12.05 5.325L14.15 3.525C16.05 1.825 18.85 1.725 20.65 3.525C22.35 5.225 22.35 8.025 20.55 10.025Z" fill="#2E3346"/>
</svg>
