<svg width="21" height="21" viewBox="0 0 21 21" fill="none" xmlns="http://www.w3.org/2000/svg">
<path d="M0 20.1733L1.42458 14.9931C0.545836 13.4773 0.0834821 11.7576 0.0841938 9.99565C0.0864309 4.4842 4.591 0 10.1257 0C12.8119 0.00131594 15.3331 1.04232 17.2289 2.9317C19.1248 4.82108 20.1683 7.3328 20.1672 10.0035C20.1649 15.5153 15.66 19.9997 10.1258 19.9997C10.1255 19.9997 10.1261 19.9997 10.1258 19.9997H10.1218C8.44114 19.9991 6.78981 19.5794 5.32323 18.7832L0 20.1733ZM5.56971 16.9734L5.87445 17.1533C7.15587 17.9103 8.62478 18.311 10.1223 18.3116H10.1257C14.7258 18.3116 18.4699 14.5843 18.4717 10.003C18.4725 7.78305 17.6053 5.69547 16.0295 4.12505C14.4537 2.55454 12.3582 1.68916 10.129 1.68845C5.52537 1.68845 1.78129 5.41538 1.77946 9.99636C1.77885 11.5662 2.22005 13.0952 3.05548 14.4181L3.25397 14.7324L2.41081 17.7983L5.56971 16.9734Z" fill="#25D366"/>
<path fill-rule="evenodd" clip-rule="evenodd" d="M15.1842 12.3806C15.1215 12.2766 14.9543 12.2141 14.7033 12.0889C14.4524 11.964 13.2188 11.3598 12.9888 11.2764C12.7589 11.193 12.5915 11.1513 12.4243 11.4013C12.257 11.6514 11.7763 12.214 11.6298 12.3805C11.4835 12.5474 11.3371 12.5683 11.0862 12.4433C10.8354 12.3182 10.0269 12.0544 9.06852 11.2034C8.32268 10.5412 7.81914 9.72315 7.67272 9.47302C7.52629 9.22309 7.65706 9.08795 7.78274 8.96335C7.89561 8.85149 8.03359 8.67151 8.15907 8.52585C8.28444 8.37978 8.32634 8.27572 8.41002 8.1089C8.49361 7.94238 8.45181 7.79631 8.38908 7.6714C8.32634 7.54639 7.82453 6.3169 7.61547 5.81694C7.4118 5.32994 7.20497 5.39574 7.05102 5.38825C6.90491 5.38076 6.73743 5.37924 6.57016 5.37924C6.40289 5.37924 6.13099 5.442 5.90109 5.69193C5.67108 5.94196 5.02295 6.54627 5.02295 7.77556C5.02295 9.00495 5.92203 10.1926 6.04751 10.3596C6.17289 10.5261 7.8167 13.0491 10.3337 14.1309C10.9323 14.3882 11.3996 14.5419 11.7639 14.6571C12.365 14.8471 12.912 14.8204 13.3443 14.7561C13.8264 14.6843 14.8288 14.1518 15.0378 13.5683C15.2469 12.9849 15.2469 12.4849 15.1842 12.3806Z" fill="#25D366"/>
</svg>
