<svg width="36" height="36" viewBox="0 0 36 36" fill="none" xmlns="http://www.w3.org/2000/svg">
<path d="M18 36C27.9411 36 36 27.9411 36 18C36 8.05887 27.9411 0 18 0C8.05887 0 0 8.05887 0 18C0 27.9411 8.05887 36 18 36Z" fill="url(#copy_basket)"/>
<path d="M22.9965 13.6997C20.9948 10.9941 17.285 10.1659 14.3492 11.9328C11.1465 13.8377 10.0522 18.0893 11.8938 21.4022C13.7353 24.7152 17.8454 25.8471 21.0481 23.9422C22.5961 23.0035 23.6637 21.5127 24.1174 19.8562L25.5052 22.4513L26.9998 20.8225C27.0265 20.7949 23.9039 14.6659 22.9965 13.6997ZM19.7137 21.5127C17.7921 22.6446 15.3367 21.982 14.2424 19.9942C13.1481 18.0065 13.7887 15.4666 15.7103 14.3347C17.6319 13.2027 20.0873 13.8653 21.1816 15.8531C22.2758 17.8132 21.6086 20.3531 19.7137 21.5127Z" fill="white"/>
<defs>
<linearGradient id="copy_basket" x1="5.4774" y1="30.5226" x2="30.6415" y2="5.3585" gradientUnits="userSpaceOnUse">
<stop offset="0" stop-color="#6F4D9B"/>
<stop offset="1" stop-color="#9B5F84"/>
</linearGradient>
</defs>
</svg>
