<svg width="42" height="42" viewBox="0 0 42 42" fill="none" xmlns="http://www.w3.org/2000/svg">
<rect width="42" height="42" rx="21" fill="#70AF60"/>
<path d="M12.3646 21.5174L13.6723 20.7624L17.1723 26.8246L15.8646 27.5796L14.4196 25.0768L12.142 26.3918L13.587 28.8946L12.2706 29.6546L8.77062 23.5924L10.087 22.8324L11.437 25.1707L13.7146 23.8557L12.3646 21.5174ZM18.3052 20.5356C18.7267 20.2923 19.1536 20.1651 19.5861 20.1541C20.0243 20.1397 20.4291 20.2409 20.8005 20.4575C21.1743 20.6651 21.4796 20.9738 21.7163 21.3837C22.0729 22.0015 22.1613 22.6279 21.9814 23.2629C21.7981 23.8922 21.3861 24.3918 20.7452 24.7618L18.3896 26.1218L14.8896 20.0596L16.206 19.2996L17.266 21.1356L18.3052 20.5356ZM19.94 23.5871C20.2171 23.4271 20.3956 23.2162 20.4755 22.9546C20.5578 22.6838 20.5239 22.4185 20.3739 22.1587C20.2739 21.9855 20.1452 21.8558 19.9877 21.7697C19.836 21.6803 19.6663 21.6397 19.4786 21.6479C19.2909 21.6562 19.1047 21.7137 18.92 21.8204L17.976 22.3654L18.996 24.1321L19.94 23.5871ZM25.1711 13.9504C26.066 13.4338 26.9738 13.3061 27.8944 13.5674C28.8209 13.8254 29.5491 14.4134 30.0791 15.3314C30.6125 16.2552 30.7621 17.1811 30.5281 18.1091C30.2908 19.0313 29.7217 19.7524 28.8211 20.2724C28.0301 20.7291 27.2196 20.8853 26.3896 20.7409C25.562 20.5875 24.8659 20.1619 24.3013 19.464L23.5912 19.874L24.9962 22.3075L23.6798 23.0675L20.1798 17.0053L21.4962 16.2453L22.8912 18.6615L23.6013 18.2515C23.2883 17.4161 23.274 16.6046 23.5582 15.8169C23.8425 15.0293 24.3801 14.4071 25.1711 13.9504ZM28.0578 19.0503C28.5947 18.7403 28.9273 18.3097 29.0555 17.7584C29.1894 17.2038 29.0948 16.6465 28.7714 16.0864C28.4514 15.5322 28.0161 15.1715 27.4655 15.0044C26.9148 14.8374 26.3739 14.9072 25.8428 15.2139C25.4964 15.4139 25.2329 15.6776 25.0525 16.005C24.8687 16.3267 24.781 16.6814 24.7893 17.0692C24.8034 17.4536 24.9155 17.8277 25.1255 18.1914C25.4455 18.7457 25.8837 19.1047 26.4401 19.2684C26.9932 19.4264 27.5324 19.3537 28.0578 19.0503Z" fill="white"/>
</svg>
