<svg width="42" height="42" viewBox="0 0 42 42" fill="none" xmlns="http://www.w3.org/2000/svg">
<circle cx="21" cy="21" r="20" stroke-width="2" fill="transparent"/>
<g clip-path="url(#clipInst)">
<path d="M26.2448 9.94733H16.8604C13.6448 9.94733 11.0526 12.5395 11.0526 15.7551V25.1723C11.0526 28.3551 13.6448 30.9473 16.8604 30.9473H26.2776C29.4604 30.9473 32.0526 28.3551 32.0526 25.1395V15.7551C32.0526 12.5395 29.4604 9.94733 26.2448 9.94733V9.94733ZM30.1823 25.1395C30.1823 27.3051 28.4104 29.077 26.2448 29.077H16.8604C14.6948 29.077 12.9229 27.3051 12.9229 25.1395V15.7551C12.9229 13.5895 14.6948 11.8176 16.8604 11.8176H26.2776C28.4432 11.8176 30.2151 13.5895 30.2151 15.7551V25.1395H30.1823Z"/>
<path d="M21.5526 15.0333C18.5667 15.0333 16.1385 17.4614 16.1385 20.4473C16.1385 23.4333 18.5667 25.8614 21.5526 25.8614C24.5385 25.8614 26.9667 23.4333 26.9667 20.4473C26.9667 17.4614 24.5385 15.0333 21.5526 15.0333ZM21.5526 23.9911C19.5839 23.9911 18.0089 22.4161 18.0089 20.4473C18.0089 18.4786 19.6167 16.9036 21.5526 16.9036C23.4885 16.9036 25.0964 18.4786 25.0964 20.4473C25.0964 22.4161 23.5214 23.9911 21.5526 23.9911V23.9911Z"/>
<path d="M27.1964 13.4583C26.8354 13.4583 26.4745 13.5895 26.2448 13.852C25.9823 14.1145 25.851 14.4426 25.851 14.8036C25.851 15.1645 25.9823 15.5254 26.2448 15.7551C26.5073 16.0176 26.8354 16.1489 27.1964 16.1489C27.5573 16.1489 27.9182 16.0176 28.1479 15.7551C28.4104 15.4926 28.5417 15.1317 28.5417 14.8036C28.5417 14.4426 28.4104 14.0817 28.1479 13.852C27.9182 13.5895 27.5573 13.4583 27.1964 13.4583Z"/>
</g>
<defs>
<clipPath id="clipInst">
<rect width="21" height="21" fill="white" transform="translate(11.0526 9.94733)"/>
</clipPath>
</defs>
</svg>
