<svg width="18" height="17" viewBox="0 0 18 17" xmlns="http://www.w3.org/2000/svg">
<path d="M18 4.51562C18 4.78125 16.8241 10.0052 16.7337 10.4479C16.2814 10.4479 5.33668 10.625 5.33668 10.625L5.06533 11.8646H16.3719C16.191 12.5729 15.9196 13.6354 15.9196 13.6354H2.71357C2.89447 12.9271 3.43719 9.82812 3.43719 9.82812L2.71357 2.39062L0 1.59375L0.542714 0C0.542714 0 3.52764 0.885417 4.25126 1.0625C4.25126 1.23958 4.61307 3.09896 4.61307 3.09896C4.61307 3.09896 17.6382 4.51562 18 4.51562ZM6.78392 15.5833C6.78392 16.3802 6.15075 17 5.33668 17C4.52261 17 3.88945 16.3802 3.88945 15.5833C3.88945 14.7865 4.52261 14.1667 5.33668 14.1667C6.15075 14.1667 6.78392 14.7865 6.78392 15.5833ZM15.2864 15.5833C15.2864 16.3802 14.6533 17 13.8392 17C13.0251 17 12.392 16.3802 12.392 15.5833C12.392 14.7865 13.0251 14.1667 13.8392 14.1667C14.6533 14.1667 15.2864 14.7865 15.2864 15.5833Z"/>
</svg>
