<svg width="16" height="16" viewBox="0 0 16 16" fill="none" xmlns="http://www.w3.org/2000/svg">
<path d="M16 14.3448L11.1133 9.45813C11.7438 8.51232 12.1379 7.33005 12.1379 6.06897C12.2167 2.75862 9.45813 0 6.06897 0C2.6798 0 0 2.75862 0 6.06897C0 9.37931 2.75862 12.1379 6.06897 12.1379C7.33005 12.1379 8.51232 11.7438 9.53695 11.0345L14.4236 15.8424L16 14.3448ZM6.06897 10.4828C3.62562 10.4828 1.73399 8.51232 1.73399 6.14778C1.73399 3.78325 3.70443 1.81281 6.06897 1.81281C8.4335 1.81281 10.4039 3.78325 10.4039 6.14778C10.4039 8.51232 8.51232 10.4828 6.06897 10.4828Z"/>
</svg>
