<svg width="25" height="25" viewBox="0 0 25 25" fill="none" xmlns="http://www.w3.org/2000/svg">
<path d="M0 25L1.76543 18.5803C0.676434 16.7019 0.103456 14.5707 0.104338 12.3872C0.10711 5.5571 5.68946 0 12.5484 0C15.8773 0.00163079 19.0018 1.29171 21.3511 3.63315C23.7006 5.97458 24.9938 9.08726 24.9924 12.397C24.9896 19.2275 19.4068 24.7849 12.5486 24.7849C12.5482 24.7849 12.5489 24.7849 12.5486 24.7849H12.5435C10.4608 24.7841 8.41435 24.264 6.59687 23.2773L0 25ZM6.90233 21.0345L7.27998 21.2575C8.86799 22.1955 10.6884 22.6922 12.5441 22.6928H12.5484C18.2491 22.6928 22.889 18.0738 22.8913 12.3964C22.8923 9.64524 21.8175 7.05818 19.8647 5.11202C17.9119 3.16574 15.315 2.09331 12.5525 2.09243C6.84738 2.09243 2.20748 6.71107 2.20522 12.3881C2.20446 14.3335 2.75123 16.2284 3.78654 17.8678L4.03252 18.2573L2.98763 22.0568L6.90233 21.0345Z" fill="white"/>
<path fill-rule="evenodd" clip-rule="evenodd" d="M18.8151 15.3426C18.7374 15.2136 18.5302 15.1362 18.2192 14.981C17.9082 14.8262 16.3795 14.0775 16.0945 13.9741C15.8095 13.8708 15.6021 13.8192 15.3948 14.1289C15.1876 14.4389 14.5918 15.1361 14.4103 15.3424C14.229 15.5493 14.0475 15.5751 13.7366 15.4202C13.4258 15.2652 12.4238 14.9383 11.2362 13.8836C10.3119 13.063 9.68787 12.0493 9.50641 11.7393C9.32495 11.4296 9.48701 11.2621 9.64276 11.1077C9.78263 10.969 9.95363 10.746 10.1091 10.5655C10.2645 10.3845 10.3164 10.2555 10.4201 10.0488C10.5237 9.84242 10.4719 9.6614 10.3942 9.5066C10.3164 9.35167 9.69455 7.82802 9.43547 7.20844C9.18306 6.60492 8.92676 6.68646 8.73597 6.67718C8.55489 6.6679 8.34735 6.66602 8.14006 6.66602C7.93277 6.66602 7.59581 6.74379 7.3109 7.05352C7.02586 7.36337 6.22266 8.11227 6.22266 9.63568C6.22266 11.1592 7.33686 12.6311 7.49236 12.8379C7.64773 13.0443 9.68485 16.171 12.804 17.5116C13.5459 17.8305 14.125 18.021 14.5765 18.1637C15.3214 18.3992 15.9992 18.3661 16.535 18.2864C17.1324 18.1975 18.3747 17.5375 18.6337 16.8144C18.8928 16.0915 18.8928 15.4718 18.8151 15.3426V15.3426Z" fill="white"/>
</svg>
