<svg width="25" height="21" viewBox="0 0 25 21" fill="none" xmlns="http://www.w3.org/2000/svg">
<path d="M11.3429 3.33211L12.05 4.03921L12.7571 3.33211L13.3571 2.73211C15.5666 0.522631 19.2334 0.522631 21.4429 2.73211C23.5302 4.81942 23.5858 8.31006 21.409 10.7535C20.3078 11.9488 17.8398 14.1025 15.5927 15.9981C14.4783 16.9382 13.4351 17.8008 12.6702 18.4286C12.433 18.6233 12.2227 18.7953 12.0454 18.94C11.8691 18.7981 11.6603 18.6295 11.425 18.4388C10.6607 17.8192 9.61821 16.9666 8.50479 16.0335C6.25276 14.1464 3.78995 11.9957 2.699 10.7624L2.691 10.7534L2.68279 10.7445C0.425251 8.31335 0.461449 4.92776 2.65711 2.73211L2.66378 2.72544L2.67032 2.71864C4.87697 0.427119 8.52303 0.427119 10.7297 2.71864L10.7362 2.72544L10.7429 2.73211L11.3429 3.33211Z" stroke-width="2"/>
</svg>
