<svg width="28" height="28" viewBox="0 0 28 28" fill="none" xmlns="http://www.w3.org/2000/svg">
<path d="M16.0585 11.9412C14.9664 10.8496 13.4854 10.2363 11.9413 10.2363C10.3972 10.2363 8.91624 10.8496 7.82414 11.9412L3.70566 16.0584C2.61354 17.1505 2 18.6317 2 20.1762C2 21.7207 2.61354 23.2019 3.70566 24.294C4.79777 25.3861 6.279 25.9997 7.82348 25.9997C9.36796 25.9997 10.8492 25.3861 11.9413 24.294L13.9999 22.2354" stroke="#2D3344" stroke-width="3" stroke-linecap="round" stroke-linejoin="round"/>
<path d="M11.9414 16.0585C13.0335 17.1501 14.5144 17.7633 16.0586 17.7633C17.6027 17.7633 19.0836 17.1501 20.1757 16.0585L24.2942 11.9413C25.3863 10.8492 25.9999 9.36796 25.9999 7.82348C25.9999 6.279 25.3863 4.79777 24.2942 3.70566C23.2021 2.61354 21.7209 2 20.1764 2C18.6319 2 17.1507 2.61354 16.0586 3.70566L14 5.76423" stroke="#2D3344" stroke-width="3" stroke-linecap="round" stroke-linejoin="round"/>
</svg>
