<svg width="30" height="30" viewBox="0 0 30 30" fill="none" xmlns="http://www.w3.org/2000/svg">
<path d="M1.68707 8.82353H0V0H9.70588V1.54698H1.68707V8.82353Z" fill="#2E3346"/>
<path d="M29.9999 8.82353H28.3129V1.54698H20.2941V0H29.9999V8.82353Z" fill="#2E3346"/>
<path d="M24.7059 10.5882H23.6966V6.31354H19.4117V5.29407H24.7059V10.5882Z" fill="#2E3346"/>
<path d="M10.5882 25.5882H4.41174V19.4117H5.5892V24.4028H10.5882V25.5882Z" fill="#2E3346"/>
<path d="M9.70588 30H0V21.1765H1.68707V28.4531H9.70588V30Z" fill="#2E3346"/>
<path d="M29.9999 30H20.2941V28.4531H28.3129V21.1765H29.9999V30Z" fill="#2E3346"/>
<path d="M5.01428 24.2297L24.174 5.06462L24.9802 5.8706L5.82049 25.0357L5.01428 24.2297Z" fill="#2E3346"/>
</svg>
