<svg width="20" height="20" viewBox="0 0 20 20" fill="none" xmlns="http://www.w3.org/2000/svg">
<path d="M19.9 5.1C19.9 5.4 18.6 11.3 18.5 11.8C18 11.8 5.9 12 5.9 12L5.6 13.4H18.1C17.9 14.2 17.6 15.4 17.6 15.4H3C3.2 14.6 3.8 11.1 3.8 11.1L3 2.7L0 1.8L0.6 0C0.6 0 3.9 1 4.7 1.2C4.7 1.4 5.1 3.5 5.1 3.5C5.1 3.5 19.5 5.1 19.9 5.1ZM7.5 17.6C7.5 18.5 6.8 19.2 5.9 19.2C5 19.2 4.3 18.5 4.3 17.6C4.3 16.7 5 16 5.9 16C6.8 16 7.5 16.7 7.5 17.6ZM16.9 17.6C16.9 18.5 16.2 19.2 15.3 19.2C14.4 19.2 13.7 18.5 13.7 17.6C13.7 16.7 14.4 16 15.3 16C16.2 16 16.9 16.7 16.9 17.6Z" fill="#333844"/>
</svg>
