<svg width="24" height="24" viewBox="0 0 24 24" fill="none" xmlns="http://www.w3.org/2000/svg">
<path d="M12 2C17.5 2 22 6.5 22 12C22 17.5 17.5 22 12 22C6.5 22 2 17.5 2 12C2 6.5 6.5 2 12 2ZM12 0C5.4 0 0 5.4 0 12C0 18.6 5.4 24 12 24C18.6 24 24 18.6 24 12C24 5.4 18.6 0 12 0Z" fill="#70AF60"/>
<path d="M7.6 11.8H8.8V7H12.2C13.5 7 14.3 7 14.7 7.2C15.3 7.4 15.8 7.7 16.2 8.2C16.6 8.7 16.8 9.4 16.8 10.2C16.8 10.9 16.7 11.4 16.4 11.8C16.2 12.2 15.9 12.6 15.5 12.8C15.1 13.1 14.8 13.2 14.4 13.3C13.9 13.4 13.2 13.5 12.2 13.5H10.8V14.4H16.3V16.2H10.8V17.5H8.7V16.2H7.5V14.4H8.7V13.6H7.5V11.8H7.6ZM11 8.8V11.8H12.2C13 11.8 13.6 11.7 13.9 11.6C14.2 11.5 14.4 11.3 14.6 11.1C14.8 10.9 14.8 10.6 14.8 10.3C14.8 9.9 14.7 9.6 14.5 9.4C14.3 9.2 14 9 13.7 8.9C13.5 8.9 12.9 8.8 12.2 8.8H11Z" fill="#70AF60"/>
</svg>
