<svg width="110" height="113" viewBox="0 0 110 113" fill="none" xmlns="http://www.w3.org/2000/svg">
<g clip-path="url(#clip01)">
<path d="M97.7 39.9L98.7 40.6H99.6V38.8L102.5 38.5L105.2 40.5H109.7L110 40.2C109.5 38.7 109 37.2 108.5 35.8H105.6L104.1 34.2L103.8 31.6L102.3 32.4L101.5 35.6L99.3 33.3L99.2 31.1L97.1 29.3L96.3 28.5H93.9L94.7 30.7L97.6 32.3L98.1 32.8L97.5 33.1V34.8L96.1 35.4L94.9 35.1L94.1 34L96.1 34.1L96.6 33.4L92.2 30.4L91.9 29.1L90.1 31L88.3 30.6L85.6 34.2L85 35.6L83.2 35.8H80.6L79 35.1L78.7 32L79.3 30.5L81.9 29.9L84.8 30.5L85.1 28.9L83.9 28.6L84.3 26.1L87.2 25.6L89.2 22.7L91.3 22.4L93.2 22.7H93.9L93.5 20L91.3 21L90.5 19L89.2 18.8L89 17.4L90.1 16.2L92.7 15.2L93.4 14C83.3 5.3 70.3 0 56.1 0C43.8 0 32.4 4 23.1 10.8H25.9L27.2 11.5L29.6 12L29.8 12.9L33.6 13L33.1 11.8L29.7 11.7L30.5 11L30.2 10.1H27.2L30.5 7.6H33.7L35.2 9.6L37.7 9.7L39.2 8.2L40.3 8.8L38.3 10.8C38.3 10.8 35.5 10.8 35.6 10.8C35.7 10.8 35.8 12.8 35.8 12.8L39.2 12.7L39.6 11.8L42 11.7L42.3 10.3L40.9 10.1L41.4 8.8L42.5 8.5L46.2 8.7L44.2 10.6L44.5 12L46.6 12.3L46.5 9.7L48.5 8.6L52.1 8.2L57.4 10.5V12.5L59 13L58.2 14.6H55.8L55.1 16.4L49.7 15.1L54 12.8L52.4 11.4L48.7 11.9L48.4 12.2L48.3 12.3L47.2 13.4L45.4 13.5L45.5 14.4L46.1 14.7V15L44.7 15.2L44.6 16L43.2 16.1L43 14.5L40.6 15.3L35.6 18.2L36.2 20.3L37.6 21.2L40.4 21.6V24.8L41.7 24.6L42.9 22.1L45.9 21.2V17.4L47.6 16.1L51.6 17L51.3 19.5H52.4L55.3 18.1L55.4 21.4L57.5 22.7L57.4 24.7L55.4 25.4L55.5 26.1L58 27.2V28.6L57.3 28.7L54.2 27.7L54.1 26.7L55 26.1V25.2L54 25L53.8 25.8L52.1 26.1L51.9 26V26.1L51.3 26.2L50.8 25.2L50 24.7H48.8L48.2 25.2V26.2L49.2 26.5L50.2 26.6L50 26.7L49.1 27.7L48.7 27.2L47.8 27L45.3 29.3L45.6 29.6L41.9 31.6L38.4 35.2L38.2 36.8L34.7 39.1L33 40.8L33.2 44.3L30.8 43.2V41.2H24.2L20.8 42.9L19.3 45.7L18.7 47.9L19.7 50L22.4 50.3L26.7 47.4L27.1 48.8L25.8 51.3L29.1 51.9L29.4 57L33.9 57.8L36.7 54.5L40.2 55.2L41.4 56.9L44.7 56.7L44.8 55.7L46.6 56.6L48.6 59.8H52.1L53.4 62.1L53.6 64.9L57.5 66.4H62.4L63.9 68.8L66.1 69.5L65.7 71.5L63.3 74.6L62.6 81.4L60.5 83L57.3 82.9L56.2 84.8L57 88.3L53.5 92.8L52.4 94.9L49.1 96.5L46.9 96.8L46.8 97.7L48.3 98.1L48.1 99.1L46.7 100.4L47.5 101.5H49.2L49.1 102.8L48.7 104.1L48.6 105.1L51.1 107.2L50.8 108.3L47.5 108.2L44.2 105.3L41.6 100.7L42 96.3L40 93.7L40.8 89.3L39.6 89V79.4C39.6 79.4 36.3 76.9 36.1 76.9C35.9 76.9 34.4 76.5 34.4 76.5L34 74.6L29.8 69.3L30.2 67.4L30.3 64.3L33.2 62.3L32.8 58.8L28.5 58.5L25.1 54.7L22.7 54L21.2 53.7L21.4 52.3L19.4 52V52.8L14.5 51.6L12.5 48.6L13.3 47.1L10.2 42.6L9.7 39.3H8.5L9 42.4L11.1 45.7L10.9 47L9 46.7L6.8 42.9V38.5L4.5 37.4V34.2C1.6 40.9 0 48.4 0 56.1C0 87 25.2 112.2 56.1 112.2C73.6 112.2 89.3 104.1 99.6 91.5H97.8V87.8L95.7 84.9V80.4L94.1 78.8L94 76.9L96.1 72.9L92 66L92.5 61.3L89 60.9L87.7 59.6H85.3L84.1 60.7H79.9L79.8 61.1H77.5L72 55V50.2L72.9 49.9L73.2 48.1H72L71.5 46.2L77.7 41.7V38.5L80.7 36.8L82 37H84.5L86.5 36L92.8 35.5V38.7L97.7 39.9ZM82 19.9L82.5 19.1L84.3 18.7L84.8 20.9L85.8 22.5L86.4 23.3L87.6 23.8L86.5 25.1L84.3 25.3H82.7L82.9 23.4L84.3 23.1L84.2 22.2L82.9 21.4L82 20.8V19.9ZM78.9 23.4L80 21.6L81.5 21.3L82.6 21.8L82.5 23L80.2 24.6H78.9V23.4ZM48.4 30.3L47.2 30.4L47.3 29.6L47.8 28.9L48.5 29.5L48.4 30.3ZM52.5 28.9L51.7 29L51.5 29.8L51 30.1L50 30.2C50 30 50 29.8 50 29.8H49.6V29H51.2L51.5 28.2H52.1L52.8 28.3L52.5 28.9Z" fill="#EEEEEE"/>
</g>
<defs>
<clipPath id="clip01">
<rect width="110" height="112.3" fill="white"/>
</clipPath>
</defs>
</svg>
