<svg width="201" height="33" viewBox="0 0 201 33" fill="none" xmlns="http://www.w3.org/2000/svg">
<g clip-path="url(#clipLogo)">
<path d="M28.2912 7.95481C23.5655 1.86442 14.8072 8.22544e-06 7.87619 3.97741C0.315059 8.26554 -2.26833 17.8362 2.07932 25.2938C6.42697 32.7514 16.1304 35.2994 23.6915 31.0113C27.3461 28.8983 29.8665 25.5424 30.9376 21.8136L34.2141 27.6554L37.7426 23.9887C37.8057 23.9266 30.4336 10.13 28.2912 7.95481ZM20.5411 25.5424C16.0044 28.0904 10.2075 26.5989 7.62415 22.1243C5.04076 17.6497 6.55299 11.9322 11.0897 9.38419C15.6263 6.83617 21.4232 8.32769 24.0066 12.8023C26.59 17.2147 25.0147 22.9322 20.5411 25.5424Z" fill="#70AE60"/>
<path d="M62.6944 7.45764H66.79V27.4689H62.4423L62.0013 25.6667C60.174 27.2204 57.9687 28.0283 55.4483 28.0283C52.3608 28.0283 49.8405 27.0339 47.8242 24.9831C45.7448 23.0565 44.7367 20.5085 44.7367 17.4633C44.7367 14.4181 45.7448 11.9322 47.7611 9.94352C49.7774 7.95481 52.2978 6.96046 55.3853 6.96046C57.9687 6.96046 60.174 7.76837 62.0643 9.38419L62.6944 7.45764ZM51.9198 21.3785C52.9909 22.435 54.2511 22.9322 55.8894 22.9322C57.4646 22.9322 58.7878 22.435 59.8589 21.3785C60.9301 20.322 61.4342 19.017 61.4342 17.4633C61.4342 15.9096 60.9301 14.5424 59.8589 13.548C58.7878 12.4915 57.4646 11.9944 55.8894 11.9944C54.8182 11.9944 53.8731 12.243 53.0539 12.7401C52.2348 13.2373 51.5417 13.8588 51.1006 14.7288C50.5966 15.5367 50.4075 16.4689 50.4075 17.5254C50.3445 19.017 50.8486 20.3842 51.9198 21.3785Z" fill="#2D3344"/>
<path d="M71.0746 27.5311V0.248596H76.5564V27.5311H71.0746Z" fill="#2D3344"/>
<path d="M80.9041 27.5311V0.248596H86.3859V27.5311H80.9041Z" fill="#2D3344"/>
<path d="M100.689 22.6836H103.146V27.5311H99.3028C97.8536 27.5311 96.5304 27.2204 95.4593 26.661C94.3881 26.1017 93.506 25.2938 92.9389 24.1752C92.3718 23.1187 92.0568 21.8136 92.0568 20.3221V11.8079H88.3392V10.6271L96.4044 2.2373H97.4126V7.45764H103.02V11.8079H97.5386V19.6384C97.5386 20.6328 97.7906 21.3785 98.3577 21.8757C98.8618 22.435 99.6809 22.6836 100.689 22.6836Z" fill="#2D3344"/>
<path d="M115.433 28.0904C113.354 28.0904 111.464 27.6554 109.762 26.7232C108.061 25.791 106.801 24.548 105.856 22.9322C104.911 21.3164 104.47 19.5141 104.47 17.5254C104.47 14.4802 105.541 11.9322 107.62 9.94352C109.699 7.95481 112.346 6.96046 115.496 6.96046C118.647 6.96046 121.23 7.95481 123.309 9.94352C125.389 11.9322 126.46 14.4802 126.46 17.5254C126.46 20.5706 125.389 23.0565 123.309 25.0452C121.167 27.0961 118.584 28.0904 115.433 28.0904ZM115.433 22.9944C117.008 22.9944 118.332 22.4972 119.277 21.4407C120.285 20.3842 120.789 19.0791 120.789 17.4633C120.789 15.8475 120.285 14.5424 119.277 13.4859C118.269 12.4294 116.945 11.9322 115.37 11.9322C113.795 11.9322 112.472 12.4294 111.464 13.4859C110.456 14.5424 109.951 15.8475 109.951 17.4633C109.951 18.2712 110.077 19.017 110.329 19.7006C110.582 20.3842 110.96 21.0057 111.464 21.4407C111.968 21.9379 112.535 22.3107 113.165 22.5593C113.921 22.8701 114.614 22.9944 115.433 22.9944Z" fill="#2D3344"/>
<path d="M152.546 7.45764H158.028L151.349 27.4689H146.938L142.338 17.0904L137.802 27.4689H133.391L126.649 7.45764H132.257L136.226 19.3898L141.519 7.58194H143.031L148.513 19.3898L152.546 7.45764Z" fill="#2D3344"/>
<path d="M176.174 7.45764H180.27V27.4689H175.922L175.481 25.6667C173.654 27.2204 171.449 28.0283 168.928 28.0283C165.841 28.0283 163.32 27.0339 161.304 24.9831C159.288 22.9944 158.28 20.4463 158.28 17.4011C158.28 14.3559 159.288 11.8701 161.304 9.88137C163.32 7.89267 165.841 6.89832 168.928 6.89832C171.512 6.89832 173.717 7.70622 175.607 9.32204L176.174 7.45764ZM165.4 21.3785C166.471 22.435 167.731 22.9322 169.369 22.9322C170.945 22.9322 172.268 22.435 173.339 21.3785C174.41 20.322 174.914 19.017 174.914 17.4633C174.914 15.9096 174.41 14.5424 173.339 13.548C172.268 12.4915 170.945 11.9944 169.369 11.9944C168.298 11.9944 167.353 12.2429 166.534 12.7401C165.715 13.2373 165.022 13.8588 164.581 14.7288C164.077 15.5367 163.887 16.4689 163.887 17.5254C163.887 19.017 164.392 20.3842 165.4 21.3785Z" fill="#2D3344"/>
<path d="M184.618 27.5311V0.248596H190.099V27.5311H184.618Z" fill="#2D3344"/>
<path d="M194.447 27.5311V0.248596H199.929V27.5311H194.447Z" fill="#2D3344"/>
</g>
<defs>
<clipPath id="clipLogo">
<rect width="201" height="33" fill="white"/>
</clipPath>
</defs>
</svg>
