<svg width="159" height="26" viewBox="0 0 159 26" fill="none" xmlns="http://www.w3.org/2000/svg">
<g clip-path="url(#clipLogoW)">
<path d="M22.2901 6.26742C18.5668 1.46893 11.6663 -1.19209e-07 6.2055 3.13371C0.248246 6.51224 -1.78715 14.0527 1.63827 19.9284C5.06369 25.8041 12.7088 27.8117 18.6661 24.4331C21.5454 22.7684 23.5312 20.1243 24.3751 17.1864L26.9566 21.7891L29.7366 18.9002C29.7863 18.8512 23.978 7.98117 22.2901 6.26742ZM16.1839 20.1243C12.6095 22.1318 8.04232 20.9567 6.00692 17.4313C3.97153 13.9058 5.16298 9.40113 8.73733 7.3936C12.3117 5.38606 16.8789 6.5612 18.9143 10.0866C20.9497 13.5631 19.7086 18.0678 16.1839 20.1243Z" fill="#70AF60"/>
<path d="M49.3956 5.87572H52.6224V21.6422H49.197L48.8495 20.2222C47.4099 21.4463 45.6723 22.0829 43.6866 22.0829C41.254 22.0829 39.2683 21.2995 37.6797 19.6836C36.0414 18.1657 35.2471 16.1582 35.2471 13.759C35.2471 11.3597 36.0414 9.40115 37.63 7.83429C39.2186 6.26744 41.2044 5.48401 43.6369 5.48401C45.6723 5.48401 47.4099 6.12054 48.8992 7.39361L49.3956 5.87572ZM40.9065 16.8437C41.7505 17.6761 42.7433 18.0678 44.0341 18.0678C45.2752 18.0678 46.3177 17.6761 47.1616 16.8437C48.0056 16.0113 48.4027 14.9831 48.4027 13.759C48.4027 12.5349 48.0056 11.4576 47.1616 10.6742C46.3177 9.84182 45.2752 9.45011 44.0341 9.45011C43.1901 9.45011 42.4455 9.64597 41.8001 10.0377C41.1547 10.4294 40.6087 10.919 40.2611 11.6045C39.864 12.2411 39.7151 12.9755 39.7151 13.8079C39.6654 14.9831 40.0626 16.0603 40.9065 16.8437Z" fill="white"/>
<path d="M55.9982 21.6912V0.195862H60.3172V21.6912H55.9982Z" fill="white"/>
<path d="M63.7426 21.6912V0.195862H68.0616V21.6912H63.7426Z" fill="white"/>
<path d="M79.3308 17.8719H81.2669V21.6911H78.2386C77.0968 21.6911 76.0543 21.4463 75.2103 21.0056C74.3664 20.565 73.6714 19.9284 73.2246 19.0471C72.7778 18.2147 72.5296 17.1864 72.5296 16.0113V9.30319H69.6006V8.37287L75.955 1.7627H76.7493V5.87569H81.1676V9.30319H76.8486V15.4727C76.8486 16.2561 77.0472 16.8437 77.494 17.2354C77.8911 17.6761 78.5365 17.8719 79.3308 17.8719Z" fill="white"/>
<path d="M90.9475 22.1318C89.3092 22.1318 87.8199 21.7891 86.4795 21.0546C85.1391 20.3202 84.1463 19.3409 83.4016 18.0678C82.657 16.7947 82.3094 15.3748 82.3094 13.8079C82.3094 11.4087 83.1534 9.40115 84.7916 7.83429C86.4299 6.26744 88.5149 5.48401 90.9971 5.48401C93.4793 5.48401 95.5147 6.26744 97.1529 7.83429C98.7912 9.40115 99.6351 11.4087 99.6351 13.8079C99.6351 16.2072 98.7912 18.1657 97.1529 19.7326C95.465 21.3484 93.4296 22.1318 90.9475 22.1318ZM90.9475 18.1168C92.1886 18.1168 93.2311 17.7251 93.9757 16.8927C94.77 16.0603 95.1672 15.032 95.1672 13.759C95.1672 12.4859 94.77 11.4576 93.9757 10.6253C93.1814 9.79286 92.1389 9.40115 90.8978 9.40115C89.6567 9.40115 88.6142 9.79286 87.8199 10.6253C87.0256 11.4576 86.6285 12.4859 86.6285 13.759C86.6285 14.3955 86.7277 14.9831 86.9263 15.5217C87.1249 16.0603 87.4228 16.5499 87.8199 16.8927C88.2171 17.2844 88.6639 17.5782 89.1603 17.774C89.756 18.0188 90.3021 18.1168 90.9475 18.1168Z" fill="white"/>
<path d="M120.188 5.8757H124.507L119.244 21.6422H115.769L112.145 13.4652L108.571 21.6422H105.096L99.7841 5.8757H104.202L107.33 15.2768L111.5 5.97363H112.691L117.01 15.2768L120.188 5.8757Z" fill="white"/>
<path d="M138.804 5.87571H142.031V21.6422H138.605L138.258 20.2222C136.818 21.4463 135.081 22.0829 133.095 22.0829C130.662 22.0829 128.677 21.2994 127.088 19.6836C125.5 18.1168 124.705 16.1092 124.705 13.71C124.705 11.3107 125.5 9.35217 127.088 7.78531C128.677 6.21846 130.662 5.43503 133.095 5.43503C135.13 5.43503 136.868 6.07156 138.357 7.34463L138.804 5.87571ZM130.315 16.8437C131.159 17.6761 132.152 18.0678 133.442 18.0678C134.684 18.0678 135.726 17.6761 136.57 16.8437C137.414 16.0113 137.811 14.9831 137.811 13.7589C137.811 12.5348 137.414 11.4576 136.57 10.6742C135.726 9.84181 134.684 9.45009 133.442 9.45009C132.599 9.45009 131.854 9.64595 131.209 10.0377C130.563 10.4294 130.017 10.919 129.67 11.6045C129.272 12.2411 129.123 12.9755 129.123 13.8079C129.123 14.9831 129.521 16.0603 130.315 16.8437Z" fill="white"/>
<path d="M145.456 21.6912V0.195862H149.775V21.6912H145.456Z" fill="white"/>
<path d="M153.201 21.6912V0.195862H157.52V21.6912H153.201Z" fill="white"/>
</g>
<defs>
<clipPath id="clipLogoW">
<rect width="158.364" height="26" fill="white"/>
</clipPath>
</defs>
</svg>
