<svg width="72" height="72" viewBox="0 0 72 72" fill="none" xmlns="http://www.w3.org/2000/svg">
<path d="M3.888 22.176H0V0H22.368V3.888H3.888V22.176Z" fill="white"/>
<path d="M72 22.176H68.112V3.888H49.632V0H72V22.176Z" fill="white"/>
<path d="M60.288 25.872H57.552V14.4H45.936V11.664H60.288V25.872Z" fill="white"/>
<path d="M25.968 60.912H11.616V46.656H14.352V58.176H25.968V60.912Z" fill="white"/>
<path d="M22.368 72H0V49.824H3.888V68.112H22.368V72Z" fill="white"/>
<path d="M72 72H49.632V68.112H68.112V49.824H72V72Z" fill="white"/>
<path d="M12.0341 58.1513L58.0173 12.155L59.9522 14.0894L13.969 60.0857L12.0341 58.1513Z" fill="white"/>
</svg>
