<svg width="30" height="30" viewBox="0 0 30 30" fill="none" xmlns="http://www.w3.org/2000/svg">
<path d="M15 2.5C21.875 2.5 27.5 8.125 27.5 15C27.5 21.875 21.875 27.5 15 27.5C8.125 27.5 2.5 21.875 2.5 15C2.5 8.125 8.125 2.5 15 2.5ZM15 0C6.75 0 0 6.75 0 15C0 23.25 6.75 30 15 30C23.25 30 30 23.25 30 15C30 6.75 23.25 0 15 0Z" fill="white"/>
<path d="M11.75 11.25V12.125L13.125 11.875C13.125 11.875 14.125 11.625 13.875 12.5C13.75 13.5 12 22.125 12 22.125C12 22.125 11.25 24.875 13.625 24.625C16 24.375 16.625 24.25 16.625 24.25V23.125C16.625 23.125 14.5 23.625 14.75 22.5C15 21.25 16.625 12.625 16.625 12.625C16.625 12.625 17.125 10.375 15.375 10.625" fill="white"/>
<path d="M16.375 9.125C17.4105 9.125 18.25 8.28554 18.25 7.25C18.25 6.21447 17.4105 5.375 16.375 5.375C15.3395 5.375 14.5 6.21447 14.5 7.25C14.5 8.28554 15.3395 9.125 16.375 9.125Z" fill="white"/>
</svg>
