<svg width="87" height="20" viewBox="0 0 87 20" fill="none" xmlns="http://www.w3.org/2000/svg">
<g clip-path="url(#clipWa)">
<path d="M32.4547 11.748H32.4279L30.763 5.06198H28.7568L27.0644 11.6664H27.0372L25.4951 5.06198H23.3528L25.9319 14.7647H28.1019L29.7255 8.1602H29.7529L31.4041 14.7647H33.5332L36.1533 5.06198H34.0518L32.4547 11.748ZM42.6896 8.34352C42.4988 8.0943 42.2372 7.89985 41.9055 7.75904C41.5731 7.61945 41.1476 7.5492 40.6294 7.5492C40.2654 7.5492 39.8925 7.64182 39.5099 7.82788C39.128 8.01312 38.8141 8.31012 38.5685 8.71806H38.5275V5.06198H36.5898V14.7647H38.5275V11.082C38.5275 10.3664 38.6458 9.85249 38.8825 9.5395C39.1188 9.22732 39.5009 9.07083 40.0289 9.07083C40.4927 9.07083 40.8157 9.21346 40.9977 9.49922C41.1797 9.78427 41.2706 10.2171 41.2706 10.7966V14.7647H43.2086V10.4433C43.2086 10.0087 43.1696 9.61259 43.0926 9.25395C43.015 8.89682 42.8809 8.59304 42.6896 8.34352ZM50.6729 13.2019V9.54669C50.6729 9.12023 50.5778 8.77859 50.3862 8.52077C50.1955 8.26234 49.9498 8.061 49.65 7.91594C49.3493 7.77099 49.017 7.67351 48.6532 7.6238C48.2895 7.574 47.9299 7.5491 47.5754 7.5491C47.1845 7.5491 46.795 7.58736 46.4089 7.6645C46.0213 7.74143 45.674 7.8708 45.3645 8.05158C45.0552 8.23268 44.7997 8.47309 44.6007 8.77171C44.3999 9.07063 44.2863 9.44678 44.2591 9.89977H46.1967C46.2331 9.51916 46.361 9.24706 46.5795 9.08419C46.7978 8.92101 47.0976 8.83993 47.4802 8.83993C47.6527 8.83993 47.814 8.85127 47.9645 8.87374C48.1142 8.89662 48.2464 8.94116 48.3603 9.00948C48.4741 9.07741 48.565 9.17236 48.633 9.29494C48.7013 9.41712 48.7353 9.58283 48.7353 9.79064C48.7444 9.99057 48.685 10.1414 48.5582 10.2458C48.4305 10.3505 48.2579 10.43 48.0394 10.4836C47.821 10.5385 47.5707 10.5794 47.2886 10.6057C47.0064 10.6335 46.7201 10.6704 46.4293 10.715C46.1377 10.7605 45.8487 10.8216 45.5628 10.8986C45.2763 10.9752 45.0207 11.0912 44.7981 11.2446C44.5751 11.3993 44.3933 11.6051 44.2519 11.8634C44.1112 12.1218 44.0408 12.4505 44.0408 12.8487C44.0408 13.2109 44.1021 13.5234 44.2251 13.7859C44.3478 14.0494 44.5183 14.266 44.7369 14.4383C44.9554 14.6105 45.21 14.7376 45.501 14.8193C45.7917 14.9006 46.1059 14.9415 46.4428 14.9415C46.8795 14.9415 47.3072 14.8778 47.725 14.7516C48.1437 14.6239 48.5081 14.4027 48.8174 14.0851C48.8264 14.2029 48.8423 14.3188 48.8648 14.4317C48.8874 14.5446 48.9172 14.6562 48.9536 14.7645H50.919C50.8281 14.6203 50.7639 14.4027 50.7279 14.1123C50.6911 13.8228 50.6729 13.5198 50.6729 13.2019ZM48.7352 12.0464C48.7352 12.1559 48.7242 12.3008 48.7011 12.4817C48.6786 12.6634 48.617 12.8417 48.517 13.0184C48.4169 13.195 48.2617 13.3473 48.053 13.4736C47.8439 13.6009 47.5483 13.6643 47.1657 13.6643C47.0115 13.6643 46.8611 13.6507 46.7156 13.6229C46.5698 13.5961 46.4427 13.5481 46.3335 13.4804C46.2245 13.4125 46.1377 13.3197 46.0741 13.2018C46.0107 13.084 45.9786 12.9396 45.9786 12.7675C45.9786 12.5864 46.0108 12.436 46.0741 12.3188C46.1378 12.2015 46.2221 12.1038 46.327 12.0265C46.4311 11.9496 46.5541 11.8884 46.6952 11.8428C46.8361 11.7976 46.9792 11.7615 47.1252 11.7343C47.2794 11.7076 47.4345 11.6843 47.5887 11.6663C47.744 11.6485 47.8917 11.6253 48.0324 11.5985C48.1738 11.5714 48.3053 11.537 48.4284 11.4962C48.5513 11.4554 48.6533 11.3995 48.7353 11.3266V12.0464H48.7352ZM54.2895 5.63289H52.3513V7.7389H51.1782V9.02973H52.3513V13.1747C52.3513 13.5285 52.4111 13.8136 52.5289 14.0309C52.6474 14.248 52.8087 14.4166 53.0131 14.5341C53.2179 14.6518 53.4547 14.7309 53.7231 14.7716C53.9907 14.8121 54.2763 14.8327 54.5758 14.8327C54.7676 14.8327 54.9626 14.8277 55.1631 14.8195C55.3629 14.8103 55.5447 14.7926 55.7088 14.7647V13.2697C55.6175 13.2881 55.5221 13.3023 55.4217 13.3105C55.322 13.3197 55.2172 13.3245 55.108 13.3245C54.7808 13.3245 54.5622 13.2697 54.4528 13.1611C54.3442 13.0525 54.2896 12.835 54.2896 12.5087V9.02973H55.7089V7.7389H54.2896V5.63289H54.2895ZM62.2996 11.6869C62.1723 11.465 62.0039 11.2793 61.7948 11.1294C61.5857 10.9804 61.3463 10.86 61.0785 10.7689C60.8097 10.6788 60.5346 10.6025 60.2524 10.5387C59.9797 10.475 59.7116 10.4161 59.4478 10.3617C59.1839 10.3071 58.9491 10.246 58.7444 10.1785C58.5399 10.1103 58.3745 10.0226 58.247 9.91303C58.1192 9.80451 58.0561 9.66442 58.0561 9.49203C58.0561 9.34707 58.0916 9.23168 58.1648 9.14543C58.2378 9.05979 58.3265 8.9939 58.4311 8.94814C58.536 8.9032 58.6511 8.87394 58.7789 8.85987C58.9062 8.84651 59.0249 8.84013 59.1337 8.84013C59.4796 8.84013 59.7799 8.90553 60.0351 9.03692C60.289 9.16821 60.4305 9.41975 60.4573 9.79095H62.2996C62.2632 9.35628 62.1519 8.99643 61.9654 8.71026C61.7792 8.42521 61.5444 8.19644 61.2627 8.02456C60.9812 7.85237 60.6603 7.73029 60.3004 7.65761C59.941 7.58504 59.5706 7.5491 59.1891 7.5491C58.8063 7.5491 58.4331 7.58311 58.0701 7.65033C57.7053 7.71865 57.378 7.83688 57.0872 8.00411C56.7957 8.17164 56.5619 8.4 56.3841 8.69022C56.2064 8.98003 56.1178 9.35193 56.1178 9.80441C56.1178 10.1125 56.1819 10.3735 56.3094 10.5861C56.4356 10.7993 56.6049 10.9753 56.8134 11.1159C57.0232 11.2562 57.2622 11.3699 57.5304 11.4554C57.7988 11.5424 58.074 11.6166 58.3556 11.6801C59.0478 11.8253 59.587 11.9697 59.9733 12.1152C60.36 12.2598 60.5533 12.4772 60.5533 12.7674C60.5533 12.9395 60.5127 13.0814 60.4305 13.1948C60.3485 13.3086 60.2463 13.3987 60.1237 13.4667C60.0001 13.535 59.8636 13.585 59.7142 13.6161C59.564 13.6481 59.4203 13.6641 59.284 13.6641C59.0929 13.6641 58.9087 13.6412 58.7317 13.596C58.5539 13.5507 58.3971 13.4803 58.2606 13.3852C58.1243 13.2901 58.0122 13.168 57.926 13.0182C57.8402 12.8686 57.796 12.6904 57.796 12.4815H55.954C55.9726 12.9526 56.0791 13.3447 56.2754 13.6571C56.4701 13.9697 56.7201 14.2208 57.0255 14.4114C57.3302 14.6013 57.6786 14.7376 58.0702 14.8193C58.4606 14.9006 58.8611 14.9415 59.2699 14.9415C59.6704 14.9415 60.064 14.9026 60.451 14.8263C60.8376 14.7491 61.1811 14.6154 61.4813 14.4248C61.7822 14.2349 62.0245 13.9835 62.2116 13.6707C62.3976 13.3578 62.4908 12.9706 62.4908 12.5085C62.4905 12.182 62.4269 11.9088 62.2996 11.6869ZM66.148 5.06198L62.4637 14.7647H64.6199L65.3838 12.6039H69.0279L69.7641 14.7647H71.989L68.3457 5.06198H66.148ZM65.9436 11.0143L67.2127 7.45364H67.2399L68.4683 11.0143H65.9436ZM78.6892 8.69032C78.4258 8.34625 78.0934 8.0696 77.6929 7.86158C77.2924 7.65286 76.8153 7.5491 76.2605 7.5491C75.8233 7.5491 75.4233 7.63474 75.0596 7.80692C74.6948 7.97931 74.3953 8.25566 74.159 8.63616H74.1312V7.7389H72.2883V17.2248H74.2274V13.8954H74.2536C74.4899 14.2399 74.7933 14.5001 75.1619 14.6761C75.5295 14.8527 75.9324 14.9416 76.3692 14.9416C76.8881 14.9416 77.3404 14.8412 77.7269 14.6424C78.1136 14.4434 78.4366 14.1757 78.6959 13.8404C78.9556 13.5051 79.148 13.1205 79.2763 12.6856C79.4027 12.2505 79.4672 11.7976 79.4672 11.3266C79.4672 10.8284 79.4027 10.3507 79.2763 9.89278C79.1482 9.43585 78.9531 9.03469 78.6892 8.69032ZM77.4481 12.1012C77.3929 12.3732 77.2994 12.6106 77.1678 12.8145C77.036 13.0184 76.863 13.1844 76.6484 13.3105C76.4353 13.4375 76.1688 13.5013 75.8506 13.5013C75.5409 13.5013 75.2782 13.4374 75.0597 13.3105C74.8411 13.1844 74.6661 13.0184 74.534 12.8145C74.4021 12.6105 74.3068 12.3732 74.2474 12.1012C74.188 11.8298 74.1591 11.5531 74.1591 11.2731C74.1591 10.9822 74.1856 10.7015 74.2402 10.4303C74.2955 10.1584 74.3881 9.91849 74.5205 9.70906C74.6516 9.50124 74.825 9.33138 75.0394 9.2003C75.2527 9.06901 75.5181 9.0025 75.8372 9.0025C76.1461 9.0025 76.4087 9.06901 76.6218 9.2003C76.8355 9.33138 77.0111 9.50296 77.1473 9.71624C77.2835 9.92922 77.3812 10.172 77.4406 10.4433C77.5001 10.7152 77.5288 10.9919 77.5288 11.273C77.5288 11.5531 77.5023 11.8298 77.4481 12.1012ZM87 9.89278C86.8725 9.43575 86.6771 9.03459 86.4129 8.69032C86.149 8.34625 85.8176 8.0696 85.4172 7.86158C85.0166 7.65286 84.5385 7.5491 83.9836 7.5491C83.5474 7.5491 83.1467 7.63474 82.7832 7.80692C82.4192 7.97931 82.1189 8.25566 81.8823 8.63616H81.8556V7.7389H80.0129V17.2248H81.9505V13.8954H81.9779C82.2144 14.2399 82.5175 14.5001 82.8855 14.6761C83.2537 14.8527 83.6569 14.9416 84.0937 14.9416C84.6118 14.9416 85.0643 14.8412 85.4515 14.6424C85.8376 14.4434 86.1612 14.1757 86.42 13.8404C86.6799 13.5051 86.8725 13.1205 87.0001 12.6856C87.128 12.2505 87.1914 11.7976 87.1914 11.3266C87.1913 10.8285 87.128 10.3508 87 9.89278ZM85.1712 12.1012C85.117 12.3732 85.0237 12.6106 84.8919 12.8145C84.7595 13.0184 84.5866 13.1844 84.3728 13.3105C84.1595 13.4375 83.8932 13.5013 83.5747 13.5013C83.2652 13.5013 83.0013 13.4374 82.7832 13.3105C82.5645 13.1844 82.3898 13.0184 82.2574 12.8145C82.1261 12.6105 82.0301 12.3732 81.9709 12.1012C81.9118 11.8298 81.8824 11.5531 81.8824 11.2731C81.8824 10.9822 81.9103 10.7015 81.9645 10.4303C82.019 10.1584 82.1125 9.91849 82.2442 9.70906C82.3759 9.50124 82.5491 9.33138 82.7629 9.2003C82.976 9.06901 83.2423 9.0025 83.5611 9.0025C83.8704 9.0025 84.1316 9.06901 84.3452 9.2003C84.5596 9.33138 84.7342 9.50296 84.871 9.71624C85.0079 9.92922 85.1058 10.172 85.1646 10.4433C85.2244 10.7152 85.2534 10.9919 85.2534 11.273C85.2534 11.5531 85.2258 11.8298 85.1712 12.1012Z" fill="#455A64"/>
<path d="M0.0293655 20L1.45395 14.8197C0.575202 13.304 0.112848 11.5842 0.113559 9.82231C0.115796 4.31086 4.62037 -0.17334 10.1551 -0.17334C12.8413 -0.172024 15.3625 0.868983 17.2583 2.75836C19.1542 4.64774 20.1977 7.15946 20.1965 9.8302C20.1943 15.3419 15.6893 19.8264 10.1552 19.8264C10.1549 19.8264 10.1555 19.8264 10.1552 19.8264H10.1511C8.47051 19.8257 6.81917 19.4061 5.35259 18.6098L0.0293655 20ZM5.59907 16.8001L5.90382 16.98C7.18523 17.737 8.65415 18.1377 10.1516 18.1382H10.1551C14.7552 18.1382 18.4992 14.411 18.5011 9.8297C18.5019 7.60971 17.6346 5.52213 16.0588 3.95171C14.483 2.3812 12.3876 1.51582 10.1584 1.51511C5.55474 1.51511 1.81065 5.24204 1.80882 9.82302C1.80821 11.3928 2.24942 12.9218 3.08485 14.2448L3.28334 14.5591L2.44018 17.625L5.59907 16.8001Z" fill="#25D366"/>
<path fill-rule="evenodd" clip-rule="evenodd" d="M15.2136 12.2073C15.1509 12.1032 14.9836 12.0408 14.7327 11.9156C14.4817 11.7906 13.2482 11.1864 13.0182 11.103C12.7883 11.0197 12.6209 10.978 12.4537 11.2279C12.2864 11.4781 11.8056 12.0407 11.6592 12.2072C11.5129 12.3741 11.3665 12.395 11.1156 12.2699C10.8648 12.1448 10.0563 11.881 9.09791 11.03C8.35206 10.3678 7.84852 9.54981 7.7021 9.29968C7.55567 9.04975 7.68644 8.91461 7.81212 8.79001C7.92499 8.67815 8.06297 8.49817 8.18845 8.35251C8.31382 8.20644 8.35572 8.10238 8.4394 7.93556C8.52299 7.76904 8.4812 7.62297 8.41846 7.49806C8.35572 7.37305 7.85391 6.14356 7.64485 5.6436C7.44118 5.1566 7.23435 5.2224 7.08041 5.21491C6.93429 5.20742 6.76681 5.2059 6.59954 5.2059C6.43228 5.2059 6.16037 5.26866 5.93047 5.51859C5.70046 5.76862 5.05233 6.37293 5.05233 7.60222C5.05233 8.83161 5.95141 10.0193 6.07689 10.1862C6.20227 10.3527 7.84608 12.8758 10.363 13.9576C10.9617 14.2149 11.429 14.3686 11.7933 14.4838C12.3944 14.6738 12.9413 14.647 13.3737 14.5828C13.8558 14.511 14.8582 13.9784 15.0672 13.395C15.2763 12.8116 15.2763 12.3116 15.2136 12.2073Z" fill="#25D366"/>
</g>
<defs>
<clipPath id="clipWa">
<rect width="87" height="20" fill="white"/>
</clipPath>
</defs>
</svg>
