<svg width="16" height="16" viewBox="0 0 16 16" fill="#767F86" xmlns="http://www.w3.org/2000/svg">
<path d="M16 14.4876L11.1133 9.55224C11.7438 8.59702 12.1379 7.40299 12.1379 6.12935C12.2167 2.78607 9.45813 0 6.06897 0C2.6798 0 0 2.78607 0 6.12935C0 9.47264 2.75862 12.2587 6.06897 12.2587C7.33005 12.2587 8.51232 11.8607 9.53695 11.1443L14.4236 16L16 14.4876ZM6.06897 10.5871C3.62562 10.5871 1.73399 8.59702 1.73399 6.20896C1.73399 3.8209 3.70443 1.83085 6.06897 1.83085C8.4335 1.83085 10.4039 3.8209 10.4039 6.20896C10.4039 8.59702 8.51232 10.5871 6.06897 10.5871Z"/>
</svg>
