<svg width="64" height="64" viewBox="0 0 64 64" fill="none" xmlns="http://www.w3.org/2000/svg">
<path d="M58.6669 50.1341C55.68 50.1341 53.3339 46.8271 53.3339 42.6671C53.3339 38.5071 55.6808 35.2002 58.6669 35.2002C61.6539 35.2002 64 38.5071 64 42.6671C64 46.828 61.653 50.1341 58.6669 50.1341ZM58.6669 37.3341C56.96 37.3341 55.4669 39.7871 55.4669 42.6671C55.4669 45.5471 56.96 48.0002 58.6669 48.0002C60.3739 48.0002 61.8669 45.5471 61.8669 42.6671C61.8669 39.788 60.373 37.3341 58.6669 37.3341Z" fill="#2E3346"/>
<path d="M58.667 50.1341H27.7339C24.747 50.1341 22.4009 46.8271 22.4009 42.6671C22.4009 38.5071 24.7478 35.2002 27.7339 35.2002H58.667C59.307 35.2002 59.7339 35.6271 59.7339 36.2671C59.7339 36.9071 59.307 37.3341 58.667 37.3341C56.96 37.3341 55.467 39.7871 55.467 42.6671C55.467 45.5471 56.96 48.0002 58.667 48.0002C59.307 48.0002 59.7339 48.4271 59.7339 49.0671C59.7331 49.708 59.307 50.1341 58.667 50.1341ZM27.7331 37.3341C26.0261 37.3341 24.5331 39.7871 24.5331 42.6671C24.5331 45.5471 26.0261 48.0002 27.7331 48.0002H54.9331C53.9731 46.6132 53.3331 44.8002 53.3331 42.6671C53.3331 40.5341 53.9731 38.7202 54.9331 37.3341H27.7331Z" fill="#2E3346"/>
<path d="M62.9331 43.7339C62.2931 43.7339 61.8662 43.307 61.8662 42.667C61.8662 39.787 60.3731 37.3339 58.6662 37.3339H32.0001C31.3601 37.3339 30.9331 36.907 30.9331 36.267V1.06695C30.9331 0.426946 31.3601 0 32.0001 0H62.9331C63.5731 0 64 0.426946 64 1.06695V42.667C64 43.3078 63.5731 43.7339 62.9331 43.7339ZM33.067 35.2008H58.667C59.84 35.2008 61.0139 35.7339 61.867 36.6939V2.13389H33.067V35.2008Z" fill="#2E3346"/>
<path d="M32 64.001H1.06695C0.426946 64.001 0 63.574 0 62.934V1.06792C0 0.427923 0.426946 0.000976562 1.06695 0.000976562H32C32.64 0.000976562 33.0669 0.427923 33.0669 1.06792V36.2679C33.0669 36.9079 32.64 37.3349 32 37.3349H27.7331C26.0261 37.3349 24.5331 39.7879 24.5331 42.6679C24.5331 45.5479 26.0261 48.001 27.7331 48.001H32C32.64 48.001 33.0669 48.4279 33.0669 49.0679V62.9349C33.0669 63.574 32.64 64.001 32 64.001ZM2.13305 61.8679H30.9331V50.1349H27.7331C24.7461 50.1349 22.4 46.8279 22.4 42.6679C22.4 38.5079 24.7469 35.201 27.7331 35.201H30.9331V2.13402H2.13305V61.8679Z" fill="#2E3346"/>
</svg>
