<svg width="50" height="50" viewBox="0 0 50 50" fill="none" xmlns="http://www.w3.org/2000/svg">
<path d="M36.1719 0H13.8281C6.17188 0 0 6.17188 0 13.8281V36.25C0 43.8281 6.17188 50 13.8281 50H36.25C43.8281 50 50 43.8281 50 36.1719V13.8281C50 6.17188 43.8281 0 36.1719 0V0ZM45.5469 36.1719C45.5469 41.3281 41.3281 45.5469 36.1719 45.5469H13.8281C8.67188 45.5469 4.45312 41.3281 4.45312 36.1719V13.8281C4.45312 8.67188 8.67188 4.45312 13.8281 4.45312H36.25C41.4062 4.45312 45.625 8.67188 45.625 13.8281V36.1719H45.5469Z" fill="url(#paint0_linear)"/>
<path d="M25 12.1094C17.8906 12.1094 12.1094 17.8906 12.1094 25C12.1094 32.1094 17.8906 37.8906 25 37.8906C32.1094 37.8906 37.8906 32.1094 37.8906 25C37.8906 17.8906 32.1094 12.1094 25 12.1094ZM25 33.4375C20.3125 33.4375 16.5625 29.6875 16.5625 25C16.5625 20.3125 20.3906 16.5625 25 16.5625C29.6094 16.5625 33.4375 20.3125 33.4375 25C33.4375 29.6875 29.6875 33.4375 25 33.4375Z" fill="url(#paint1_linear)"/>
<path d="M38.4375 8.35934C37.5781 8.35934 36.7188 8.67184 36.1719 9.29684C35.5469 9.92184 35.2344 10.7031 35.2344 11.5625C35.2344 12.4218 35.5469 13.2812 36.1719 13.8281C36.7969 14.4531 37.5781 14.7656 38.4375 14.7656C39.2969 14.7656 40.1562 14.4531 40.7031 13.8281C41.3281 13.2031 41.6406 12.3437 41.6406 11.5625C41.6406 10.7031 41.3281 9.84372 40.7031 9.29684C40.1562 8.67184 39.2969 8.35934 38.4375 8.35934Z" fill="url(#paint2_linear)"/>
<defs>
<linearGradient id="paint0_linear" x1="0" y1="50" x2="50" y2="50" gradientUnits="userSpaceOnUse">
<stop offset="100%" stop-color="#D95858"/>
<stop offset="1" stop-color="#DE712B"/>
</linearGradient>
<linearGradient id="paint1_linear" x1="12.1094" y1="37.8906" x2="37.8906" y2="37.8906" gradientUnits="userSpaceOnUse">
<stop offset="100%" stop-color="#D95858"/>
<stop offset="1" stop-color="#DE712B"/>
</linearGradient>
<linearGradient id="paint2_linear" x1="35.2344" y1="14.7656" x2="41.6406" y2="14.7656" gradientUnits="userSpaceOnUse">
<stop offset="100%" stop-color="#D95858"/>
<stop offset="1" stop-color="#DE712B"/>
</linearGradient>
</defs>
</svg>
