<svg width="59" height="64" viewBox="0 0 59 64" fill="none" xmlns="http://www.w3.org/2000/svg">
<path d="M6.10657 61.5242H9.62152V64H3.36133V54.1992H6.10657V61.5242Z" fill="white"/>
<path d="M19.6412 63.9999L19.0896 62.4092H15.5875L15.0359 63.9999H12.1367L16.0108 54.2119H18.6663L22.6302 63.9999H19.6412ZM18.4226 60.2925L17.345 57.2522L16.2546 60.2925H18.4226Z" fill="white"/>
<path d="M32.2274 54.1992V56.6366H29.5335V64H26.8139V56.6366H24.1328V54.1992H32.2274Z" fill="white"/>
<path d="M38.4099 61.6653H42.1301V64H35.7031V54.1992H42.0146V56.534H38.4099V57.9707H41.6554V60.1772H38.4099V61.6653Z" fill="white"/>
<path d="M54.3769 64H51.2981L49.6817 60.9982L48.0526 64H44.9609L47.9243 58.9072L45.1277 54.1992H48.1808L49.6561 56.9701L51.157 54.1992H54.1845L51.4007 58.9457L54.3769 64Z" fill="white"/>
<path d="M58.0992 23.6553V0H0V23.6553H3.51494V49.1579H6.91443V23.6553H13.7262V43.9368H36.5605L44.3601 36.1885V23.6553H51.2874V49.1579H54.6869V23.6553H58.0992ZM40.9606 34.7774L35.1494 40.5501H33.7127V33.3663H40.9606V34.7774ZM40.9606 30.4158H30.7493V40.5501H17.1385V16.8948H40.9734V30.4158H40.9606ZM44.3729 20.2686V16.8948H47.7724V13.521H10.3267V16.8948H13.7262V20.2686H3.39948V3.37383H54.6869V20.2686H44.3729Z" fill="white"/>
</svg>
