<svg width="64" height="64" viewBox="0 0 64 64" fill="none" xmlns="http://www.w3.org/2000/svg">
<path d="M25.7868 39.5973C25.7868 33.8264 27.7146 22.2846 40.956 17.9342C28.7547 25.0749 28.3615 36.6294 28.4249 38.9378L33.4221 38.0626C39.4721 37.0226 44.3678 31.2517 44.3678 25.2525V14.4717L33.5363 16.3995C27.4863 17.4396 22.3242 23.4895 22.3242 29.92V38.2783V39.9271V51.9128C23.1994 52.2426 24.8482 52.0777 25.7868 52.2426V39.5973Z" fill="white"/>
<path d="M32 64C14.3575 64 0 49.6425 0 32C0 14.3575 14.3575 0 32 0C49.6425 0 64 14.3575 64 32C64 49.6425 49.6425 64 32 64ZM32 2.71423C15.8541 2.71423 2.70153 15.8541 2.70153 32.0127C2.70153 48.1712 15.8415 61.3112 32 61.3112C48.1459 61.3112 61.2985 48.1712 61.2985 32.0127C61.2985 15.8541 48.1459 2.71423 32 2.71423Z" fill="white"/>
</svg>
