<svg width="61" height="60" viewBox="0 0 61 60" fill="none" xmlns="http://www.w3.org/2000/svg">
<path d="M49.1965 5.55218C49.1965 3.96771 51.1738 2.63205 53.5178 2.63205C55.8617 2.63205 57.839 3.96771 57.839 5.55218C57.839 7.13664 55.8617 8.47231 53.5178 8.47231C51.1738 8.4854 49.1965 7.13664 49.1965 5.55218ZM46.5645 5.55218C46.5645 8.61635 49.6679 11.1044 53.5047 11.1044C57.3414 11.1044 60.4449 8.61635 60.4449 5.55218C60.4449 2.488 57.3414 0 53.5047 0C49.681 0.0130948 46.5645 2.488 46.5645 5.55218Z" fill="white"/>
<path d="M49.1834 5.55176H46.5645V54.4345H49.1834V5.55176Z" fill="white"/>
<path d="M60.4471 5.55273H57.8281V54.4355H60.4471V5.55273Z" fill="white"/>
<path d="M53.5183 59.9867H0V0.0126953H53.5183V2.63165H2.61895V57.3547H53.5052" fill="white"/>
<path d="M57.8273 53.9115C57.8273 54.7234 57.6964 55.2995 57.369 55.7186C56.6095 56.6483 55.1822 57.3685 53.5061 57.3685C52.1966 57.3685 51.018 56.9626 50.2193 56.3078C49.3681 55.6007 49.1717 54.4484 49.1717 53.5841C47.9801 53.1913 47.4563 54.7365 46.6051 53.9901C46.592 54.1472 46.5527 54.2912 46.5527 54.4484C46.5527 57.5125 49.6562 60.0005 53.493 60.0005C57.3297 60.0005 60.4332 57.5125 60.4332 54.4484C60.4332 53.977 60.3415 53.5317 60.1975 53.0996C59.5427 53.8984 58.8225 53.3877 57.8273 53.9115Z" fill="white"/>
</svg>
