<svg width="54" height="55" viewBox="0 0 54 55" fill="none" xmlns="http://www.w3.org/2000/svg">
<path d="M0 54.0164L3.81449 40.1457C1.46154 36.0871 0.223533 31.4823 0.225439 26.7645C0.231429 12.007 12.293 0 27.1129 0C34.3054 0.00352358 41.0563 2.79094 46.1325 7.84998C51.209 12.909 54.003 19.6344 54 26.7857C53.994 41.544 41.9314 53.5516 27.1131 53.5516C27.1123 53.5516 27.1139 53.5516 27.1131 53.5516H27.1022C22.6022 53.5499 18.1805 52.4262 14.2536 50.2942L0 54.0164ZM14.9136 45.4484L15.7295 45.9301C19.1607 47.9569 23.0939 49.03 27.1036 49.0314H27.1129C39.43 49.0314 49.4553 39.0512 49.4602 26.7843C49.4624 20.8401 47.1402 15.2503 42.9208 11.0453C38.7015 6.84007 33.0905 4.52292 27.1216 4.52102C14.7948 4.52102 4.76961 14.5003 4.76471 26.7664C4.76308 30.9698 5.94446 35.0639 8.18142 38.6062L8.71289 39.4478L6.45523 47.6572L14.9136 45.4484Z" fill="#25D366"/>
<path fill-rule="evenodd" clip-rule="evenodd" d="M40.6576 33.1506C40.4899 32.872 40.042 32.7047 39.37 32.3695C38.6981 32.035 35.3952 30.4171 34.7793 30.1938C34.1637 29.9707 33.7155 29.8591 33.2677 30.5283C32.8198 31.198 31.5325 32.7045 31.1404 33.1503C30.7486 33.5973 30.3565 33.6531 29.6849 33.3184C29.0132 32.9834 26.8484 32.277 24.2822 29.9984C22.2851 28.2252 20.9368 26.0349 20.5448 25.3651C20.1527 24.6959 20.5028 24.3341 20.8394 24.0004C21.1416 23.7009 21.5111 23.219 21.847 22.829C22.1827 22.4379 22.2949 22.1592 22.519 21.7125C22.7428 21.2667 22.6309 20.8756 22.4629 20.5411C22.2949 20.2064 20.9513 16.9142 20.3915 15.5756C19.8461 14.2716 19.2923 14.4477 18.8801 14.4277C18.4889 14.4076 18.0404 14.4036 17.5926 14.4036C17.1447 14.4036 16.4166 14.5716 15.801 15.2408C15.1852 15.9103 13.4497 17.5284 13.4497 20.82C13.4497 24.1118 15.8571 27.292 16.1931 27.7389C16.5288 28.1848 20.9303 34.9406 27.6698 37.8372C29.2726 38.5262 30.524 38.9377 31.4995 39.2461C33.1089 39.7549 34.5735 39.6833 35.7311 39.5112C37.022 39.319 39.706 37.8931 40.2658 36.3308C40.8256 34.7688 40.8256 33.4298 40.6576 33.1506Z" fill="#25D366"/>
</svg>
