<svg width="144" height="41" viewBox="0 0 144 41" fill="none" xmlns="http://www.w3.org/2000/svg">
<g clip-path="url(#clip0_5260_24906)">
<path d="M17.5554 4.75727H14.7746C9.67875 4.75727 7.00147 7.28737 7.00147 11.0335C7.00147 15.2851 8.8553 17.2584 12.6643 19.7907L15.805 21.8664L6.74495 35.1782H0L8.13533 23.2829C3.449 19.9933 0.823448 16.804 0.823448 11.3897C0.823448 4.60581 5.61109 0 14.7251 0H23.7852V35.1782H17.5554V4.75727Z" fill="#A7ADB8"/>
<path d="M74.2905 9.71924H56.4247V11.8952C56.4247 18.1202 56.013 26.1692 53.8509 30.4208H51.9453V40.9999H57.6081V35.1781H71.3545V40.9999H77.0174V30.4208H74.2884V9.71924H74.2905ZM68.1642 30.4208H59.5159C61.2145 26.5745 61.678 19.6391 61.678 15.236V14.4765H68.1642V30.4208Z" fill="#A7ADB8"/>
<path d="M43.2448 19.7906H35.0599V9.71924H28.9336V35.1781H35.0599V24.5478H43.2448V35.1781H49.3711V9.71924H43.2448V19.7906Z" fill="#A7ADB8"/>
<path d="M138.076 13.9707C140.445 13.9707 142.761 14.7813 143.998 15.5408V10.4272C142.711 9.71897 140.445 9.21338 137.408 9.21338C129.583 9.21338 125.516 14.7301 125.516 22.474C125.516 30.9774 129.48 35.6856 137.665 35.6856C140.497 35.6856 142.504 35.18 143.998 34.1155V29.2046C142.455 30.267 140.601 30.9262 138.027 30.9262C133.651 30.9262 131.849 27.5854 131.849 22.3204C131.849 16.8037 134.063 13.9707 138.076 13.9707Z" fill="#A7ADB8"/>
<path d="M124.693 9.71924H118.515L109.865 21.461V9.71924H103.738V35.1781H109.865V22.6769L118.927 35.1781H125.877L116.043 21.461L124.693 9.71924Z" fill="#A7ADB8"/>
<path d="M89.5291 9.21143C82.0642 9.21143 78.5117 14.8306 78.5117 22.5233C78.5117 31.3807 82.9394 35.6836 90.7643 35.6836C94.6767 35.6836 97.561 34.6703 99.3631 33.4564V28.5477C97.4575 29.8128 94.2672 30.9263 91.2795 30.9263C86.8001 30.9263 85.1015 28.8506 84.8449 24.599H99.6217V21.4097C99.6196 12.5522 95.6554 9.21143 89.5291 9.21143ZM93.392 20.1446H84.8449C85.0001 16.0956 86.4918 13.9687 89.4278 13.9687C92.4651 13.9687 93.392 16.4497 93.392 19.6369V20.1446Z" fill="#A7ADB8"/>
</g>
<defs>
<clipPath id="clip0_5260_24906">
<rect width="144" height="41" fill="white"/>
</clipPath>
</defs>
</svg>
