<svg width="117" height="28" viewBox="0 0 117 28" fill="none" xmlns="http://www.w3.org/2000/svg">
<path d="M1.06364 1.06061H25.5273C26.1655 1.06061 26.5909 1.48485 26.5909 2.12121V7C26.5909 7.63636 26.3782 8.27273 25.74 8.69697L12.1255 20.1515H25.5273C26.1655 20.1515 26.5909 20.5758 26.5909 21.2121V26.7273C26.5909 27.3636 26.1655 27.7879 25.5273 27.7879H1.06364C0.425455 27.7879 0 27.3636 0 26.7273V22.0606C0 21.4242 0.212727 20.7879 0.850909 20.3636L14.4655 8.48485H1.06364C0.425455 8.48485 0 8.06061 0 7.42424V2.12121C0 1.48485 0.425455 1.06061 1.06364 1.06061ZM43.3964 0C46.1618 0 48.7145 0.636364 50.8418 1.69697C52.9691 2.75758 54.6709 4.45455 55.7346 6.57576C56.7982 8.69697 57.4364 11.2424 57.4364 14C57.4364 16.7576 56.7982 19.303 55.7346 21.4242C54.6709 23.5455 52.9691 25.2424 50.8418 26.303C48.7145 27.3636 46.1618 28 43.3964 28C40.6309 28 38.0782 27.3636 35.9509 26.303C33.8236 25.2424 32.1218 23.5455 31.0582 21.4242C29.9945 19.303 29.3564 16.7576 29.3564 14C29.3564 11.2424 29.9945 8.69697 31.0582 6.57576C32.1218 4.45455 33.8236 2.75758 35.9509 1.69697C38.0782 0.636364 40.6309 0 43.3964 0ZM43.3964 7.63636C42.12 7.63636 40.8436 7.84849 39.9927 8.48485C38.9291 8.90909 38.2909 9.75758 37.6527 10.8182C37.2273 11.8788 36.8018 12.9394 36.8018 14.2121C36.8018 15.4848 37.0145 16.7576 37.6527 17.6061C38.0782 18.6667 38.9291 19.303 39.9927 19.9394C41.0564 20.3636 42.12 20.7879 43.3964 20.7879C44.6727 20.7879 45.9491 20.5758 46.8 19.9394C47.8636 19.5152 48.5018 18.6667 49.14 17.6061C49.5655 16.5455 49.9909 15.4848 49.9909 14.2121C49.9909 12.9394 49.7782 11.6667 49.14 10.6061C48.7146 9.54545 47.8636 8.90909 46.8 8.27273C45.9491 7.84849 44.6727 7.63636 43.3964 7.63636ZM73.6036 0C76.3691 0 78.9218 0.636364 81.0491 1.69697C83.1764 2.75758 84.8782 4.45455 85.9418 6.57576C87.0055 8.69697 87.6436 11.2424 87.6436 14C87.6436 16.7576 87.0055 19.303 85.9418 21.4242C84.8782 23.5455 83.1764 25.2424 81.0491 26.303C78.9218 27.3636 76.3691 28 73.6036 28C70.8382 28 68.2855 27.3636 66.1582 26.303C64.0309 25.2424 62.3291 23.5455 61.2655 21.4242C60.2018 19.303 59.3509 16.9697 59.3509 14.2121C59.3509 11.4545 59.9891 8.90909 61.0527 6.78788C62.1164 4.66667 63.8182 2.9697 65.9455 1.90909C68.2855 0.636364 70.8382 0 73.6036 0ZM73.6036 7.63636C72.3273 7.63636 71.0509 7.84849 70.2 8.48485C69.1364 8.90909 68.4982 9.75758 67.86 10.8182C67.4345 11.8788 67.0091 12.9394 67.0091 14.2121C67.0091 15.4848 67.2218 16.7576 67.86 17.6061C68.2855 18.6667 69.1364 19.303 70.2 19.9394C71.2636 20.3636 72.3273 20.7879 73.6036 20.7879C74.88 20.7879 76.1564 20.5758 77.0073 19.9394C78.0709 19.5152 78.7091 18.6667 79.3473 17.6061C79.7727 16.5455 80.1982 15.4848 80.1982 14.2121C80.1982 12.9394 79.9855 11.6667 79.3473 10.6061C78.9218 9.54545 78.0709 8.90909 77.0073 8.27273C75.9436 7.63636 74.88 7.63636 73.6036 7.63636ZM117 2.12121V26.5152C117 27.1515 116.575 27.5758 115.936 27.5758H111.044C110.405 27.5758 109.767 27.3636 109.342 26.7273L97.8546 13.1515V26.5152C97.8546 27.1515 97.4291 27.5758 96.7909 27.5758H91.26C90.6218 27.5758 90.1964 27.1515 90.1964 26.5152V2.12121C90.1964 1.48485 90.6218 1.06061 91.26 1.06061H96.1527C96.7909 1.06061 97.4291 1.27273 97.8546 1.90909L109.342 15.4848V2.12121C109.342 1.48485 109.767 1.06061 110.405 1.06061H115.936C116.575 1.06061 117 1.48485 117 2.12121Z" fill="#A7ADB8"/>
</svg>
